roundedultracondensed-black.ufo
<glyph name="exclam" format="2">
  <advance height="1920" width="400"/>
  <unicode hex="0021"/>
  <outline>
    <contour>
      <point x="208.0" y="-17.0" type="curve" smooth="yes"/>
      <point x="192.0" y="-17.0" type="line" smooth="yes"/>
      <point x="108.0" y="-17.0"/>
      <point x="52.0" y="24.0"/>
      <point x="52.0" y="138.0" type="curve" smooth="yes"/>
      <point x="52.0" y="222.0" type="line" smooth="yes"/>
      <point x="52.0" y="336.0"/>
      <point x="108.0" y="377.0"/>
      <point x="192.0" y="377.0" type="curve" smooth="yes"/>
      <point x="208.0" y="377.0" type="line" smooth="yes"/>
      <point x="292.0" y="377.0"/>
      <point x="348.0" y="336.0"/>
      <point x="348.0" y="222.0" type="curve" smooth="yes"/>
      <point x="348.0" y="138.0" type="line" smooth="yes"/>
      <point x="348.0" y="24.0"/>
      <point x="292.0" y="-17.0"/>
    </contour>
    <contour>
      <point x="30.0" y="1150.0" type="curve" smooth="yes"/>
      <point x="30.0" y="1280.0" type="line" smooth="yes"/>
      <point x="30.0" y="1387.0"/>
      <point x="88.0" y="1465.0"/>
      <point x="195.0" y="1465.0" type="curve" smooth="yes"/>
      <point x="205.0" y="1465.0" type="line" smooth="yes"/>
      <point x="312.0" y="1465.0"/>
      <point x="370.0" y="1387.0"/>
      <point x="370.0" y="1280.0" type="curve" smooth="yes"/>
      <point x="370.0" y="1150.0" type="line" smooth="yes"/>
      <point x="370.0" y="1043.0"/>
      <point x="364.826922048" y="976.401094491"/>
      <point x="319.0" y="780.0" type="curve" smooth="yes"/>
      <point x="291.0" y="660.0" type="line" smooth="yes"/>
      <point x="265.08877869" y="548.95190867"/>
      <point x="242.0" y="485.0"/>
      <point x="205.0" y="485.0" type="curve" smooth="yes"/>
      <point x="195.0" y="485.0" type="line" smooth="yes"/>
      <point x="158.0" y="485.0"/>
      <point x="134.91122131" y="548.95190867"/>
      <point x="109.0" y="660.0" type="curve" smooth="yes"/>
      <point x="81.0" y="780.0" type="line" smooth="yes"/>
      <point x="35.1730779521" y="976.401094491"/>
      <point x="30.0" y="1043.0"/>
    </contour>
  </outline>
</glyph>
<glyph name="numbersign" format="2">
  <advance height="1920" width="805"/>
  <unicode hex="0023"/>
  <outline>
    <contour>
      <point x="105.0" y="545.0" type="curve" smooth="yes"/>
      <point x="660.0" y="545.0" type="line" smooth="yes"/>
      <point x="663.5" y="545.0"/>
      <point x="780.0" y="523.5"/>
      <point x="780.0" y="470.0" type="curve" smooth="yes"/>
      <point x="780.0" y="465.0" type="line" smooth="yes"/>
      <point x="780.0" y="411.5"/>
      <point x="664.0" y="390.0"/>
      <point x="660.0" y="390.0" type="curve" smooth="yes"/>
      <point x="105.0" y="390.0" type="line" smooth="yes"/>
      <point x="11.5" y="390.0"/>
      <point x="-15.0" y="411.5"/>
      <point x="-15.0" y="465.0" type="curve" smooth="yes"/>
      <point x="-15.0" y="470.0" type="line" smooth="yes"/>
      <point x="-15.0" y="523.5"/>
      <point x="11.5" y="545.0"/>
    </contour>
    <contour>
      <point x="145.0" y="1050.0" type="curve" smooth="yes"/>
      <point x="700.0" y="1050.0" type="line" smooth="yes"/>
      <point x="793.5" y="1050.0"/>
      <point x="820.0" y="1028.5"/>
      <point x="820.0" y="975.0" type="curve" smooth="yes"/>
      <point x="820.0" y="970.0" type="line" smooth="yes"/>
      <point x="820.0" y="916.5"/>
      <point x="793.5" y="895.0"/>
      <point x="700.0" y="895.0" type="curve" smooth="yes"/>
      <point x="145.0" y="895.0" type="line" smooth="yes"/>
      <point x="51.5" y="895.0"/>
      <point x="25.0" y="916.5"/>
      <point x="25.0" y="970.0" type="curve" smooth="yes"/>
      <point x="25.0" y="975.0" type="line" smooth="yes"/>
      <point x="25.0" y="1028.5"/>
      <point x="51.5" y="1050.0"/>
    </contour>
    <contour>
      <point x="620.0" y="1415.0" type="curve" smooth="yes"/>
      <point x="625.0" y="1415.0" type="line" smooth="yes"/>
      <point x="710.0" y="1415.0"/>
      <point x="732.477419376" y="1376.79989938"/>
      <point x="717.0" y="1245.0" type="curve" smooth="yes"/>
      <point x="589.0" y="155.0" type="line" smooth="yes"/>
      <point x="573.522580624" y="23.200100624"/>
      <point x="535.0" y="-15.0"/>
      <point x="460.0" y="-15.0" type="curve" smooth="yes"/>
      <point x="455.0" y="-15.0" type="line" smooth="yes"/>
      <point x="380.0" y="-15.0"/>
      <point x="348.522580624" y="23.200100624"/>
      <point x="364.0" y="155.0" type="curve" smooth="yes"/>
      <point x="492.0" y="1245.0" type="line" smooth="yes"/>
      <point x="507.477419376" y="1376.79989938"/>
      <point x="535.0" y="1415.0"/>
    </contour>
    <contour>
      <point x="335.0" y="1415.0" type="curve" smooth="yes"/>
      <point x="340.0" y="1415.0" type="line" smooth="yes"/>
      <point x="423.5" y="1415.0"/>
      <point x="447.477419376" y="1376.79989938"/>
      <point x="432.0" y="1245.0" type="curve" smooth="yes"/>
      <point x="304.0" y="155.0" type="line" smooth="yes"/>
      <point x="288.522580624" y="23.200100624"/>
      <point x="248.5" y="-15.0"/>
      <point x="175.0" y="-15.0" type="curve" smooth="yes"/>
      <point x="170.0" y="-15.0" type="line" smooth="yes"/>
      <point x="96.5" y="-15.0"/>
      <point x="63.5225806237" y="23.200100624"/>
      <point x="79.0" y="155.0" type="curve" smooth="yes"/>
      <point x="207.0" y="1245.0" type="line" smooth="yes"/>
      <point x="222.477419376" y="1376.79989938"/>
      <point x="251.5" y="1415.0"/>
    </contour>
  </outline>
</glyph>
<glyph name="dollar" format="2">
  <advance height="1920" width="564"/>
  <unicode hex="0024"/>
  <outline>
    <contour>
      <point x="104.0" y="503.0" type="curve" smooth="yes"/>
      <point x="110.0" y="503.0" type="line" smooth="yes"/>
      <point x="171.0" y="503.0"/>
      <point x="204.0" y="477.0"/>
      <point x="204.0" y="330.0" type="curve" smooth="yes"/>
      <point x="204.0" y="320.0" type="line" smooth="yes"/>
      <point x="204.0" y="206.0"/>
      <point x="204.0" y="155.0"/>
      <point x="274.0" y="155.0" type="curve" smooth="yes"/>
      <point x="328.0" y="155.0"/>
      <point x="344.0" y="217.0"/>
      <point x="344.0" y="338.0" type="curve" smooth="yes"/>
      <point x="344.0" y="462.0"/>
      <point x="313.0" y="561.0"/>
      <point x="234.0" y="644.0" type="curve" smooth="yes"/>
      <point x="98.0" y="787.0"/>
      <point x="12.0" y="875.0"/>
      <point x="12.0" y="1123.0" type="curve" smooth="yes"/>
      <point x="12.0" y="1303.0"/>
      <point x="83.0" y="1435.0"/>
      <point x="264.0" y="1435.0" type="curve" smooth="yes"/>
      <point x="446.0" y="1435.0"/>
      <point x="520.0" y="1336.0"/>
      <point x="520.0" y="1121.0" type="curve" smooth="yes"/>
      <point x="520.0" y="1091.0" type="line" smooth="yes"/>
      <point x="520.0" y="994.0"/>
      <point x="494.0" y="948.0"/>
      <point x="441.0" y="948.0" type="curve" smooth="yes"/>
      <point x="437.0" y="948.0" type="line" smooth="yes"/>
      <point x="374.0" y="948.0"/>
      <point x="344.0" y="994.0"/>
      <point x="344.0" y="1091.0" type="curve" smooth="yes"/>
      <point x="344.0" y="1131.0" type="line" smooth="yes"/>
      <point x="344.0" y="1206.0"/>
      <point x="327.0" y="1265.0"/>
      <point x="269.0" y="1265.0" type="curve" smooth="yes"/>
      <point x="233.0" y="1265.0"/>
      <point x="210.0" y="1203.0"/>
      <point x="210.0" y="1113.0" type="curve" smooth="yes"/>
      <point x="210.0" y="1062.0"/>
      <point x="215.0" y="912.0"/>
      <point x="328.0" y="812.0" type="curve" smooth="yes"/>
      <point x="464.0" y="692.0"/>
      <point x="554.0" y="597.0"/>
      <point x="554.0" y="348.0" type="curve" smooth="yes"/>
      <point x="554.0" y="71.0"/>
      <point x="464.0" y="-35.0"/>
      <point x="264.0" y="-35.0" type="curve" smooth="yes"/>
      <point x="80.0" y="-35.0"/>
      <point x="10.0" y="63.0"/>
      <point x="10.0" y="319.0" type="curve" smooth="yes"/>
      <point x="10.0" y="329.0" type="line" smooth="yes"/>
      <point x="10.0" y="476.0"/>
      <point x="43.0" y="503.0"/>
    </contour>
    <contour>
      <point x="268.0" y="1590.0" type="curve" smooth="yes"/>
      <point x="272.0" y="1590.0" type="line" smooth="yes"/>
      <point x="280.0" y="1590.0"/>
      <point x="290.0" y="1583.0"/>
      <point x="290.0" y="1565.0" type="curve" smooth="yes"/>
      <point x="290.0" y="-165.0" type="line" smooth="yes"/>
      <point x="290.0" y="-183.0"/>
      <point x="280.0" y="-190.0"/>
      <point x="272.0" y="-190.0" type="curve" smooth="yes"/>
      <point x="268.0" y="-190.0" type="line" smooth="yes"/>
      <point x="260.0" y="-190.0"/>
      <point x="250.0" y="-183.0"/>
      <point x="250.0" y="-165.0" type="curve" smooth="yes"/>
      <point x="250.0" y="1565.0" type="line" smooth="yes"/>
      <point x="250.0" y="1583.0"/>
      <point x="260.0" y="1590.0"/>
    </contour>
  </outline>
</glyph>
<glyph name="percent" format="2">
  <advance height="2048" width="927"/>
  <unicode hex="0025"/>
  <outline>
    <contour>
      <point x="25.0" y="1042.0" type="curve" smooth="yes"/>
      <point x="25.0" y="1209.0" type="line" smooth="yes"/>
      <point x="25.0" y="1344.0"/>
      <point x="104.0" y="1418.0"/>
      <point x="242.0" y="1418.0" type="curve" smooth="yes"/>
      <point x="380.0" y="1418.0"/>
      <point x="465.0" y="1344.0"/>
      <point x="465.0" y="1209.0" type="curve" smooth="yes"/>
      <point x="465.0" y="1042.0" type="line" smooth="yes"/>
      <point x="465.0" y="907.0"/>
      <point x="380.0" y="832.0"/>
      <point x="242.0" y="832.0" type="curve" smooth="yes"/>
      <point x="104.0" y="832.0"/>
      <point x="25.0" y="907.0"/>
    </contour>
    <contour>
      <point x="212.0" y="1026.0" type="line" smooth="yes"/>
      <point x="212.0" y="966.0"/>
      <point x="214.0" y="942.0"/>
      <point x="242.0" y="942.0" type="curve" smooth="yes"/>
      <point x="270.0" y="942.0"/>
      <point x="278.0" y="966.0"/>
      <point x="278.0" y="1026.0" type="curve" smooth="yes"/>
      <point x="278.0" y="1224.0" type="line" smooth="yes"/>
      <point x="278.0" y="1284.0"/>
      <point x="270.0" y="1308.0"/>
      <point x="242.0" y="1308.0" type="curve" smooth="yes"/>
      <point x="214.0" y="1308.0"/>
      <point x="212.0" y="1284.0"/>
      <point x="212.0" y="1224.0" type="curve" smooth="yes"/>
    </contour>
    <contour>
      <point x="463.0" y="192.0" type="curve" smooth="yes"/>
      <point x="463.0" y="359.0" type="line" smooth="yes"/>
      <point x="463.0" y="494.0"/>
      <point x="542.0" y="568.0"/>
      <point x="680.0" y="568.0" type="curve" smooth="yes"/>
      <point x="818.0" y="568.0"/>
      <point x="903.0" y="494.0"/>
      <point x="903.0" y="359.0" type="curve" smooth="yes"/>
      <point x="903.0" y="192.0" type="line" smooth="yes"/>
      <point x="903.0" y="57.0"/>
      <point x="818.0" y="-18.0"/>
      <point x="680.0" y="-18.0" type="curve" smooth="yes"/>
      <point x="542.0" y="-18.0"/>
      <point x="463.0" y="57.0"/>
    </contour>
    <contour>
      <point x="650.0" y="176.0" type="line" smooth="yes"/>
      <point x="650.0" y="116.0"/>
      <point x="652.0" y="92.0"/>
      <point x="680.0" y="92.0" type="curve" smooth="yes"/>
      <point x="708.0" y="92.0"/>
      <point x="716.0" y="116.0"/>
      <point x="716.0" y="176.0" type="curve" smooth="yes"/>
      <point x="716.0" y="374.0" type="line" smooth="yes"/>
      <point x="716.0" y="434.0"/>
      <point x="708.0" y="458.0"/>
      <point x="680.0" y="458.0" type="curve" smooth="yes"/>
      <point x="652.0" y="458.0"/>
      <point x="650.0" y="434.0"/>
      <point x="650.0" y="374.0" type="curve" smooth="yes"/>
    </contour>
    <contour>
      <point x="817.0" y="1245.0" type="curve" smooth="yes"/>
      <point x="291.0" y="155.0" type="line" smooth="yes"/>
      <point x="230.343823219" y="29.3056412721"/>
      <point x="207.0" y="-14.0"/>
      <point x="153.0" y="-14.0" type="curve" smooth="yes"/>
      <point x="150.0" y="-14.0" type="line" smooth="yes"/>
      <point x="86.0" y="-14.0"/>
      <point x="50.3438232194" y="29.3056412721"/>
      <point x="111.0" y="155.0" type="curve" smooth="yes"/>
      <point x="637.0" y="1245.0" type="line" smooth="yes"/>
      <point x="705.484540981" y="1386.91663435"/>
      <point x="721.0" y="1415.0"/>
      <point x="775.0" y="1415.0" type="curve" smooth="yes"/>
      <point x="778.0" y="1415.0" type="line" smooth="yes"/>
      <point x="842.0" y="1415.0"/>
      <point x="885.484540981" y="1386.91663435"/>
    </contour>
  </outline>
</glyph>
<glyph name="ampersand" format="2">
  <advance height="1920" width="851"/>
  <unicode hex="0026"/>
  <outline>
    <contour>
      <point x="467.0" y="155.0" type="curve" smooth="yes"/>
      <point x="193.0" y="1034.0" type="line" smooth="yes"/>
      <point x="164.143554688" y="1132.32617188"/>
      <point x="153.0" y="1201.0"/>
      <point x="153.0" y="1257.0" type="curve" smooth="yes"/>
      <point x="153.0" y="1342.0"/>
      <point x="213.0" y="1417.0"/>
      <point x="387.0" y="1417.0" type="curve" smooth="yes"/>
      <point x="575.0" y="1417.0"/>
      <point x="634.0" y="1336.0"/>
      <point x="634.0" y="1221.0" type="curve" smooth="yes"/>
      <point x="634.0" y="1077.0"/>
      <point x="458.618164062" y="942.092773438"/>
      <point x="348.0" y="885.0" type="curve" smooth="yes"/>
      <point x="286.0" y="853.0"/>
      <point x="255.0" y="763.0"/>
      <point x="255.0" y="691.0" type="curve" smooth="yes"/>
      <point x="255.0" y="641.0"/>
      <point x="261.522783653" y="616.678358069"/>
      <point x="284.0" y="546.0" type="curve" smooth="yes"/>
      <point x="379.0" y="246.0" type="line" smooth="yes"/>
      <point x="390.729888384" y="208.958247207"/>
      <point x="402.0" y="198.0"/>
      <point x="423.0" y="198.0" type="curve" smooth="yes"/>
      <point x="544.0" y="198.0"/>
      <point x="581.193887062" y="440.328011437"/>
      <point x="621.0" y="537.0" type="curve" smooth="yes"/>
      <point x="656.0" y="622.0"/>
      <point x="678.0" y="656.0"/>
      <point x="732.0" y="656.0" type="curve" smooth="yes"/>
      <point x="737.0" y="656.0" type="line" smooth="yes"/>
      <point x="791.0" y="656.0"/>
      <point x="838.0" y="614.0"/>
      <point x="801.0" y="535.0" type="curve" smooth="yes"/>
      <point x="704.626806062" y="329.230207537"/>
      <point x="539.0" y="-17.0"/>
      <point x="335.0" y="-17.0" type="curve" smooth="yes"/>
      <point x="207.0" y="-17.0"/>
      <point x="173.092191191" y="58.1255834293"/>
      <point x="121.0" y="210.0" type="curve" smooth="yes"/>
      <point x="50.0" y="417.0" type="line" smooth="yes"/>
      <point x="19.4674541284" y="504.896722964"/>
      <point x="10.0" y="583.0"/>
      <point x="10.0" y="651.0" type="curve" smooth="yes"/>
      <point x="10.0" y="775.0"/>
      <point x="119.52734375" y="907.689453125"/>
      <point x="313.0" y="988.0" type="curve" smooth="yes"/>
      <point x="426.284179688" y="1035.02441406"/>
      <point x="457.0" y="1180.0"/>
      <point x="457.0" y="1230.0" type="curve" smooth="yes"/>
      <point x="457.0" y="1262.0"/>
      <point x="439.0" y="1275.0"/>
      <point x="421.0" y="1275.0" type="curve" smooth="yes"/>
      <point x="403.0" y="1275.0"/>
      <point x="389.0" y="1258.0"/>
      <point x="389.0" y="1231.0" type="curve" smooth="yes"/>
      <point x="389.0" y="1207.0"/>
      <point x="403.649414062" y="1155.45996094"/>
      <point x="418.0" y="1105.0" type="curve" smooth="yes"/>
      <point x="722.0" y="155.0" type="line" smooth="yes"/>
      <point x="763.985486212" y="23.7953555878"/>
      <point x="702.0" y="-15.0"/>
      <point x="628.0" y="-15.0" type="curve" smooth="yes"/>
      <point x="623.0" y="-15.0" type="line" smooth="yes"/>
      <point x="549.0" y="-15.0"/>
      <point x="508.089155933" y="23.1847880838"/>
    </contour>
  </outline>
</glyph>
<glyph name="quotesingle" format="2">
  <advance height="1920" width="360"/>
  <unicode hex="0027"/>
  <outline>
    <contour>
      <point x="180.0" y="800.0" type="curve" smooth="yes"/>
      <point x="170.0" y="800.0" type="line" smooth="yes"/>
      <point x="136.0" y="800.0"/>
      <point x="118.0" y="842.0"/>
      <point x="106.0" y="910.0" type="curve" smooth="yes"/>
      <point x="76.0" y="1080.0" type="line" smooth="yes"/>
      <point x="62.0" y="1157.0"/>
      <point x="55.0" y="1213.0"/>
      <point x="55.0" y="1280.0" type="curve" smooth="yes"/>
      <point x="55.0" y="1310.0" type="line" smooth="yes"/>
      <point x="55.0" y="1387.0"/>
      <point x="91.0" y="1450.0"/>
      <point x="175.0" y="1450.0" type="curve" smooth="yes"/>
      <point x="180.0" y="1450.0" type="line" smooth="yes"/>
      <point x="268.0" y="1450.0"/>
      <point x="305.0" y="1387.0"/>
      <point x="305.0" y="1310.0" type="curve" smooth="yes"/>
      <point x="305.0" y="1280.0" type="line" smooth="yes"/>
      <point x="305.0" y="1213.0"/>
      <point x="294.0" y="1155.0"/>
      <point x="279.0" y="1080.0" type="curve" smooth="yes"/>
      <point x="244.0" y="910.0" type="line" smooth="yes"/>
      <point x="230.0" y="844.0"/>
      <point x="214.0" y="800.0"/>
    </contour>
  </outline>
</glyph>
<glyph name="parenleft" format="2">
  <advance height="2048" width="332"/>
  <unicode hex="0028"/>
  <outline>
    <contour>
      <point x="10.0" y="1252.0" type="line" smooth="yes"/>
      <point x="10.0" y="1454.0"/>
      <point x="78.0" y="1574.0"/>
      <point x="245.0" y="1626.0" type="curve" smooth="yes"/>
      <point x="297.0" y="1642.0"/>
      <point x="340.0" y="1617.0"/>
      <point x="340.0" y="1578.0" type="curve" smooth="yes"/>
      <point x="340.0" y="1568.0" type="line" smooth="yes"/>
      <point x="340.0" y="1530.0"/>
      <point x="315.0" y="1505.0"/>
      <point x="290.0" y="1486.0" type="curve" smooth="yes"/>
      <point x="250.915003942" y="1456.295403"/>
      <point x="248.0" y="1386.0"/>
      <point x="248.0" y="1236.0" type="curve" smooth="yes"/>
      <point x="248.0" y="14.0" type="line" smooth="yes"/>
      <point x="248.0" y="-136.0"/>
      <point x="260.915003942" y="-216.295402996"/>
      <point x="300.0" y="-246.0" type="curve" smooth="yes"/>
      <point x="325.0" y="-265.0"/>
      <point x="340.0" y="-280.0"/>
      <point x="340.0" y="-318.0" type="curve" smooth="yes"/>
      <point x="340.0" y="-328.0" type="line" smooth="yes"/>
      <point x="340.0" y="-367.0"/>
      <point x="297.0" y="-392.0"/>
      <point x="245.0" y="-376.0" type="curve" smooth="yes"/>
      <point x="78.0" y="-324.0"/>
      <point x="10.0" y="-204.0"/>
      <point x="10.0" y="-2.0" type="curve" smooth="yes"/>
    </contour>
  </outline>
</glyph>
<glyph name="parenright" format="2">
  <advance height="2048" width="332"/>
  <unicode hex="0029"/>
  <outline>
    <contour>
      <point x="322.0" y="-2.0" type="line" smooth="yes"/>
      <point x="322.0" y="-204.0"/>
      <point x="254.0" y="-324.0"/>
      <point x="87.0" y="-376.0" type="curve" smooth="yes"/>
      <point x="35.0" y="-392.0"/>
      <point x="-8.0" y="-367.0"/>
      <point x="-8.0" y="-328.0" type="curve" smooth="yes"/>
      <point x="-8.0" y="-318.0" type="line" smooth="yes"/>
      <point x="-8.0" y="-280.0"/>
      <point x="17.0" y="-255.0"/>
      <point x="42.0" y="-236.0" type="curve" smooth="yes"/>
      <point x="81.0849609375" y="-206.294921875"/>
      <point x="84.0" y="-136.0"/>
      <point x="84.0" y="14.0" type="curve" smooth="yes"/>
      <point x="84.0" y="1236.0" type="line" smooth="yes"/>
      <point x="84.0" y="1386.0"/>
      <point x="71.0849609375" y="1466.29492188"/>
      <point x="32.0" y="1496.0" type="curve" smooth="yes"/>
      <point x="7.0" y="1515.0"/>
      <point x="-8.0" y="1530.0"/>
      <point x="-8.0" y="1568.0" type="curve" smooth="yes"/>
      <point x="-8.0" y="1578.0" type="line" smooth="yes"/>
      <point x="-8.0" y="1617.0"/>
      <point x="35.0" y="1642.0"/>
      <point x="87.0" y="1626.0" type="curve" smooth="yes"/>
      <point x="254.0" y="1574.0"/>
      <point x="322.0" y="1454.0"/>
      <point x="322.0" y="1252.0" type="curve" smooth="yes"/>
    </contour>
  </outline>
</glyph>
<glyph name="asterisk" format="2">
  <advance height="2048" width="644"/>
  <unicode hex="002A"/>
  <outline>
    <contour>
      <point x="327.0" y="1202.0" type="line"/>
      <point x="316.0" y="1236.0" type="line"/>
      <point x="424.0" y="1341.0" type="line" smooth="yes"/>
      <point x="465.0" y="1381.0"/>
      <point x="475.0" y="1390.0"/>
      <point x="507.0" y="1400.0" type="curve" smooth="yes"/>
      <point x="509.0" y="1402.0" type="line" smooth="yes"/>
      <point x="565.0" y="1420.0"/>
      <point x="612.0" y="1377.0"/>
      <point x="628.0" y="1326.0" type="curve" smooth="yes"/>
      <point x="633.0" y="1312.0" type="line" smooth="yes"/>
      <point x="649.0" y="1261.0"/>
      <point x="637.0" y="1200.0"/>
      <point x="581.0" y="1182.0" type="curve" smooth="yes"/>
      <point x="578.0" y="1181.0" type="line" smooth="yes"/>
      <point x="546.0" y="1171.0"/>
      <point x="532.0" y="1172.0"/>
      <point x="476.0" y="1180.0" type="curve" smooth="yes"/>
    </contour>
    <contour>
      <point x="307.0" y="1210.0" type="line"/>
      <point x="335.0" y="1230.0" type="line"/>
      <point x="469.0" y="1160.0" type="line" smooth="yes"/>
      <point x="519.0" y="1134.0"/>
      <point x="531.0" y="1127.0"/>
      <point x="551.0" y="1100.0" type="curve" smooth="yes"/>
      <point x="553.0" y="1098.0" type="line" smooth="yes"/>
      <point x="587.0" y="1050.0"/>
      <point x="562.0" y="993.0"/>
      <point x="518.0" y="961.0" type="curve" smooth="yes"/>
      <point x="506.0" y="952.0" type="line" smooth="yes"/>
      <point x="462.0" y="920.0"/>
      <point x="400.0" y="914.0"/>
      <point x="366.0" y="962.0" type="curve" smooth="yes"/>
      <point x="364.0" y="964.0" type="line" smooth="yes"/>
      <point x="344.0" y="991.0"/>
      <point x="342.0" y="1005.0"/>
      <point x="332.0" y="1061.0" type="curve" smooth="yes"/>
    </contour>
    <contour>
      <point x="308.0" y="1230.0" type="line"/>
      <point x="336.0" y="1209.0" type="line"/>
      <point x="311.0" y="1060.0" type="line" smooth="yes"/>
      <point x="301.0" y="1004.0"/>
      <point x="299.0" y="990.0"/>
      <point x="279.0" y="963.0" type="curve" smooth="yes"/>
      <point x="277.0" y="961.0" type="line" smooth="yes"/>
      <point x="243.0" y="913.0"/>
      <point x="181.0" y="920.0"/>
      <point x="137.0" y="952.0" type="curve" smooth="yes"/>
      <point x="125.0" y="960.0" type="line" smooth="yes"/>
      <point x="81.0" y="992.0"/>
      <point x="56.0" y="1049.0"/>
      <point x="90.0" y="1097.0" type="curve" smooth="yes"/>
      <point x="92.0" y="1099.0" type="line" smooth="yes"/>
      <point x="112.0" y="1126.0"/>
      <point x="124.0" y="1134.0"/>
      <point x="174.0" y="1160.0" type="curve" smooth="yes"/>
    </contour>
    <contour>
      <point x="327.0" y="1236.0" type="line"/>
      <point x="316.0" y="1202.0" type="line"/>
      <point x="167.0" y="1180.0" type="line" smooth="yes"/>
      <point x="111.0" y="1172.0"/>
      <point x="97.0" y="1171.0"/>
      <point x="65.0" y="1181.0" type="curve" smooth="yes"/>
      <point x="62.0" y="1182.0" type="line" smooth="yes"/>
      <point x="6.0" y="1200.0"/>
      <point x="-6.0" y="1261.0"/>
      <point x="10.0" y="1312.0" type="curve" smooth="yes"/>
      <point x="15.0" y="1326.0" type="line" smooth="yes"/>
      <point x="31.0" y="1377.0"/>
      <point x="78.0" y="1420.0"/>
      <point x="134.0" y="1402.0" type="curve" smooth="yes"/>
      <point x="136.0" y="1400.0" type="line" smooth="yes"/>
      <point x="168.0" y="1390.0"/>
      <point x="178.0" y="1381.0"/>
      <point x="219.0" y="1341.0" type="curve" smooth="yes"/>
    </contour>
    <contour>
      <point x="339.0" y="1219.0" type="line"/>
      <point x="304.0" y="1219.0" type="line"/>
      <point x="237.0" y="1354.0" type="line" smooth="yes"/>
      <point x="211.0" y="1405.0"/>
      <point x="206.0" y="1418.0"/>
      <point x="206.0" y="1452.0" type="curve" smooth="yes"/>
      <point x="206.0" y="1454.0" type="line" smooth="yes"/>
      <point x="206.0" y="1512.0"/>
      <point x="260.0" y="1544.0"/>
      <point x="314.0" y="1544.0" type="curve" smooth="yes"/>
      <point x="329.0" y="1544.0" type="line" smooth="yes"/>
      <point x="383.0" y="1544.0"/>
      <point x="437.0" y="1512.0"/>
      <point x="437.0" y="1454.0" type="curve" smooth="yes"/>
      <point x="437.0" y="1452.0" type="line" smooth="yes"/>
      <point x="437.0" y="1418.0"/>
      <point x="432.0" y="1405.0"/>
      <point x="406.0" y="1354.0" type="curve" smooth="yes"/>
    </contour>
  </outline>
</glyph>
<glyph name="plus" format="2">
  <advance height="1920" width="520"/>
  <unicode hex="002B"/>
  <outline>
    <contour>
      <point x="8.0" y="678.0" type="curve" smooth="yes"/>
      <point x="8.0" y="695.0" type="line" smooth="yes"/>
      <point x="8.0" y="749.0"/>
      <point x="48.0" y="775.0"/>
      <point x="102.0" y="775.0" type="curve" smooth="yes"/>
      <point x="418.0" y="775.0" type="line" smooth="yes"/>
      <point x="472.0" y="775.0"/>
      <point x="512.0" y="749.0"/>
      <point x="512.0" y="695.0" type="curve" smooth="yes"/>
      <point x="512.0" y="678.0" type="line" smooth="yes"/>
      <point x="512.0" y="624.0"/>
      <point x="472.0" y="598.0"/>
      <point x="418.0" y="598.0" type="curve" smooth="yes"/>
      <point x="102.0" y="598.0" type="line" smooth="yes"/>
      <point x="48.0" y="598.0"/>
      <point x="8.0" y="624.0"/>
    </contour>
    <contour>
      <point x="252.0" y="950.0" type="curve" smooth="yes"/>
      <point x="268.0" y="950.0" type="line" smooth="yes"/>
      <point x="322.0" y="950.0"/>
      <point x="348.0" y="909.0"/>
      <point x="348.0" y="855.0" type="curve" smooth="yes"/>
      <point x="348.0" y="505.0" type="line" smooth="yes"/>
      <point x="348.0" y="451.0"/>
      <point x="322.0" y="410.0"/>
      <point x="268.0" y="410.0" type="curve" smooth="yes"/>
      <point x="252.0" y="410.0" type="line" smooth="yes"/>
      <point x="198.0" y="410.0"/>
      <point x="172.0" y="451.0"/>
      <point x="172.0" y="505.0" type="curve" smooth="yes"/>
      <point x="172.0" y="855.0" type="line" smooth="yes"/>
      <point x="172.0" y="909.0"/>
      <point x="198.0" y="950.0"/>
    </contour>
  </outline>
</glyph>
<glyph name="comma" format="2">
  <advance height="1920" width="400"/>
  <unicode hex="002C"/>
  <outline>
    <contour>
      <point x="75.0" y="-326.0" type="curve" smooth="yes"/>
      <point x="73.0" y="-326.0" type="line" smooth="yes"/>
      <point x="55.0" y="-326.0"/>
      <point x="46.1058970047" y="-306.994894903"/>
      <point x="62.0" y="-270.0" type="curve" smooth="yes"/>
      <point x="178.0" y="0.0" type="line"/>
      <point x="172.0" y="0.0" type="line" smooth="yes"/>
      <point x="98.0" y="0.0"/>
      <point x="52.0" y="40.0"/>
      <point x="52.0" y="134.0" type="curve" smooth="yes"/>
      <point x="52.0" y="221.0" type="line" smooth="yes"/>
      <point x="52.0" y="335.0"/>
      <point x="104.0" y="377.0"/>
      <point x="192.0" y="377.0" type="curve" smooth="yes"/>
      <point x="208.0" y="377.0" type="line" smooth="yes"/>
      <point x="296.0" y="377.0"/>
      <point x="348.0" y="335.0"/>
      <point x="348.0" y="221.0" type="curve" smooth="yes"/>
      <point x="348.0" y="180.0" type="line" smooth="yes"/>
      <point x="348.0" y="92.0"/>
      <point x="330.750964441" y="21.9451520771"/>
      <point x="276.0" y="-60.0" type="curve" smooth="yes"/>
      <point x="125.0" y="-286.0" type="line" smooth="yes"/>
      <point x="105.423162825" y="-315.300431799"/>
      <point x="88.0" y="-326.0"/>
    </contour>
  </outline>
</glyph>
<glyph name="hyphen" format="2">
  <advance height="1920" width="285"/>
  <unicode hex="002D"/>
  <outline>
    <contour>
      <point x="6.0" y="604.0" type="curve" smooth="yes"/>
      <point x="6.0" y="621.0" type="line" smooth="yes"/>
      <point x="6.0" y="675.0"/>
      <point x="46.0" y="701.0"/>
      <point x="100.0" y="701.0" type="curve" smooth="yes"/>
      <point x="186.0" y="701.0" type="line" smooth="yes"/>
      <point x="240.0" y="701.0"/>
      <point x="280.0" y="675.0"/>
      <point x="280.0" y="621.0" type="curve" smooth="yes"/>
      <point x="280.0" y="604.0" type="line" smooth="yes"/>
      <point x="280.0" y="550.0"/>
      <point x="240.0" y="524.0"/>
      <point x="186.0" y="524.0" type="curve" smooth="yes"/>
      <point x="100.0" y="524.0" type="line" smooth="yes"/>
      <point x="46.0" y="524.0"/>
      <point x="6.0" y="550.0"/>
    </contour>
  </outline>
</glyph>
<glyph name="period" format="2">
  <advance height="1920" width="400"/>
  <unicode hex="002E"/>
  <outline>
    <contour>
      <point x="208.0" y="-17.0" type="curve" smooth="yes"/>
      <point x="192.0" y="-17.0" type="line" smooth="yes"/>
      <point x="108.0" y="-17.0"/>
      <point x="52.0" y="24.0"/>
      <point x="52.0" y="138.0" type="curve" smooth="yes"/>
      <point x="52.0" y="222.0" type="line" smooth="yes"/>
      <point x="52.0" y="336.0"/>
      <point x="108.0" y="377.0"/>
      <point x="192.0" y="377.0" type="curve" smooth="yes"/>
      <point x="208.0" y="377.0" type="line" smooth="yes"/>
      <point x="292.0" y="377.0"/>
      <point x="348.0" y="336.0"/>
      <point x="348.0" y="222.0" type="curve" smooth="yes"/>
      <point x="348.0" y="138.0" type="line" smooth="yes"/>
      <point x="348.0" y="24.0"/>
      <point x="292.0" y="-17.0"/>
    </contour>
  </outline>
</glyph>
<glyph name="slash" format="2">
  <advance height="2048" width="520"/>
  <unicode hex="002F"/>
  <outline>
    <contour>
      <point x="477.0" y="1295.0" type="curve" smooth="yes"/>
      <point x="211.0" y="5.0" type="line" smooth="yes"/>
      <point x="194.0" y="-76.0"/>
      <point x="156.0" y="-115.0"/>
      <point x="103.0" y="-115.0" type="curve" smooth="yes"/>
      <point x="101.0" y="-115.0" type="line" smooth="yes"/>
      <point x="47.0" y="-115.0"/>
      <point x="14.0" y="-76.0"/>
      <point x="31.0" y="5.0" type="curve" smooth="yes"/>
      <point x="297.0" y="1295.0" type="line" smooth="yes"/>
      <point x="313.714466215" y="1376.05887751"/>
      <point x="352.0" y="1415.0"/>
      <point x="405.0" y="1415.0" type="curve" smooth="yes"/>
      <point x="407.0" y="1415.0" type="line" smooth="yes"/>
      <point x="461.0" y="1415.0"/>
      <point x="493.714466215" y="1376.05887751"/>
    </contour>
  </outline>
</glyph>
<glyph name="zero" format="2">
  <advance height="1920" width="615"/>
  <unicode hex="0030"/>
  <outline>
    <contour>
      <point x="25.0" y="244.0" type="curve" smooth="yes"/>
      <point x="25.0" y="1155.0" type="line" smooth="yes"/>
      <point x="25.0" y="1318.0"/>
      <point x="107.0" y="1417.0"/>
      <point x="308.0" y="1417.0" type="curve" smooth="yes"/>
      <point x="509.0" y="1417.0"/>
      <point x="590.0" y="1318.0"/>
      <point x="590.0" y="1155.0" type="curve" smooth="yes"/>
      <point x="590.0" y="244.0" type="line" smooth="yes"/>
      <point x="590.0" y="81.0"/>
      <point x="509.0" y="-18.0"/>
      <point x="308.0" y="-18.0" type="curve" smooth="yes"/>
      <point x="107.0" y="-18.0"/>
      <point x="25.0" y="81.0"/>
    </contour>
    <contour>
      <point x="270.0" y="254.0" type="line" smooth="yes"/>
      <point x="270.0" y="180.0"/>
      <point x="276.0" y="152.0"/>
      <point x="308.0" y="152.0" type="curve" smooth="yes"/>
      <point x="340.0" y="152.0"/>
      <point x="345.0" y="180.0"/>
      <point x="345.0" y="254.0" type="curve" smooth="yes"/>
      <point x="345.0" y="1145.0" type="line" smooth="yes"/>
      <point x="345.0" y="1219.0"/>
      <point x="340.0" y="1247.0"/>
      <point x="308.0" y="1247.0" type="curve" smooth="yes"/>
      <point x="276.0" y="1247.0"/>
      <point x="270.0" y="1219.0"/>
      <point x="270.0" y="1145.0" type="curve" smooth="yes"/>
    </contour>
  </outline>
</glyph>
<glyph name="one" format="2">
  <advance height="1920" width="320"/>
  <unicode hex="0031"/>
  <outline>
    <contour>
      <point x="80.0" y="1362.0" type="curve" smooth="yes"/>
      <point x="109.0" y="1372.0"/>
      <point x="118.0" y="1376.0"/>
      <point x="136.0" y="1398.0" type="curve" smooth="yes"/>
      <point x="155.0" y="1421.0"/>
      <point x="178.0" y="1425.0"/>
      <point x="201.0" y="1425.0" type="curve" smooth="yes"/>
      <point x="203.0" y="1425.0" type="line" smooth="yes"/>
      <point x="251.0" y="1425.0"/>
      <point x="282.0" y="1393.0"/>
      <point x="282.0" y="1325.0" type="curve" smooth="yes"/>
      <point x="282.0" y="125.0" type="line" smooth="yes"/>
      <point x="282.0" y="37.0"/>
      <point x="236.0" y="-5.0"/>
      <point x="162.0" y="-5.0" type="curve" smooth="yes"/>
      <point x="158.0" y="-5.0" type="line" smooth="yes"/>
      <point x="84.0" y="-5.0"/>
      <point x="38.0" y="37.0"/>
      <point x="38.0" y="125.0" type="curve" smooth="yes"/>
      <point x="38.0" y="1272.0" type="line" smooth="yes"/>
      <point x="38.0" y="1325.0"/>
      <point x="53.0" y="1352.0"/>
    </contour>
  </outline>
</glyph>
<glyph name="two" format="2">
  <advance height="1920" width="580"/>
  <unicode hex="0032"/>
  <outline>
    <contour>
      <point x="25.0" y="140.0" type="line" smooth="yes"/>
      <point x="25.0" y="492.0"/>
      <point x="308.0" y="588.0"/>
      <point x="308.0" y="937.0" type="curve" smooth="yes"/>
      <point x="308.0" y="1159.0" type="line" smooth="yes"/>
      <point x="308.0" y="1219.0"/>
      <point x="305.0" y="1243.0"/>
      <point x="287.0" y="1243.0" type="curve" smooth="yes"/>
      <point x="270.0" y="1243.0"/>
      <point x="268.0" y="1217.0"/>
      <point x="268.0" y="1161.0" type="curve" smooth="yes"/>
      <point x="268.0" y="967.0" type="line" smooth="yes"/>
      <point x="268.0" y="853.0"/>
      <point x="236.0" y="797.0"/>
      <point x="152.0" y="797.0" type="curve" smooth="yes"/>
      <point x="142.0" y="797.0" type="line" smooth="yes"/>
      <point x="58.0" y="797.0"/>
      <point x="28.0" y="853.0"/>
      <point x="28.0" y="967.0" type="curve" smooth="yes"/>
      <point x="28.0" y="1131.0" type="line" smooth="yes"/>
      <point x="28.0" y="1298.0"/>
      <point x="102.0" y="1417.0"/>
      <point x="300.0" y="1417.0" type="curve" smooth="yes"/>
      <point x="464.0" y="1417.0"/>
      <point x="548.0" y="1311.0"/>
      <point x="548.0" y="1151.0" type="curve" smooth="yes"/>
      <point x="548.0" y="999.0" type="line" smooth="yes"/>
      <point x="548.0" y="591.0"/>
      <point x="260.0" y="416.0"/>
      <point x="260.0" y="190.0" type="curve" smooth="yes"/>
      <point x="260.0" y="185.0" type="line"/>
      <point x="410.0" y="185.0" type="line" smooth="yes"/>
      <point x="514.0" y="185.0"/>
      <point x="580.0" y="169.0"/>
      <point x="580.0" y="95.0" type="curve" smooth="yes"/>
      <point x="580.0" y="90.0" type="line" smooth="yes"/>
      <point x="580.0" y="16.0"/>
      <point x="514.0" y="-1.27363267111e-14"/>
      <point x="410.0" y="0.0" type="curve" smooth="yes"/>
      <point x="170.0" y="0.0" type="line" smooth="yes"/>
      <point x="56.0" y="0.0"/>
      <point x="25.0" y="71.0"/>
      <point x="25.0" y="135.0" type="curve" smooth="yes"/>
    </contour>
  </outline>
</glyph>
<glyph name="three" format="2">
  <advance height="1920" width="576"/>
  <unicode hex="0033"/>
  <outline>
    <contour>
      <point x="136.0" y="472.0" type="curve" smooth="yes"/>
      <point x="151.0" y="472.0" type="line" smooth="yes"/>
      <point x="215.0" y="472.0"/>
      <point x="266.0" y="425.0"/>
      <point x="266.0" y="301.0" type="curve" smooth="yes"/>
      <point x="266.0" y="264.0" type="line" smooth="yes"/>
      <point x="266.0" y="204.0"/>
      <point x="266.0" y="158.0"/>
      <point x="290.0" y="158.0" type="curve" smooth="yes"/>
      <point x="314.0" y="158.0"/>
      <point x="314.0" y="196.0"/>
      <point x="314.0" y="261.0" type="curve" smooth="yes"/>
      <point x="314.0" y="544.0" type="line" smooth="yes"/>
      <point x="314.0" y="589.0"/>
      <point x="309.0" y="620.0"/>
      <point x="261.0" y="620.0" type="curve" smooth="yes"/>
      <point x="260.0" y="620.0" type="line" smooth="yes"/>
      <point x="226.0" y="620.0"/>
      <point x="181.0" y="641.0"/>
      <point x="181.0" y="705.0" type="curve" smooth="yes"/>
      <point x="181.0" y="710.0" type="line" smooth="yes"/>
      <point x="181.0" y="774.0"/>
      <point x="216.0" y="795.0"/>
      <point x="250.0" y="795.0" type="curve" smooth="yes"/>
      <point x="251.0" y="795.0" type="line" smooth="yes"/>
      <point x="294.0" y="795.0"/>
      <point x="306.0" y="816.0"/>
      <point x="306.0" y="856.0" type="curve" smooth="yes"/>
      <point x="306.0" y="1154.0" type="line" smooth="yes"/>
      <point x="306.0" y="1214.0"/>
      <point x="303.0" y="1241.0"/>
      <point x="281.0" y="1241.0" type="curve" smooth="yes"/>
      <point x="260.0" y="1241.0"/>
      <point x="258.0" y="1206.0"/>
      <point x="258.0" y="1155.0" type="curve" smooth="yes"/>
      <point x="258.0" y="1117.0" type="line" smooth="yes"/>
      <point x="258.0" y="993.0"/>
      <point x="218.0" y="937.0"/>
      <point x="144.0" y="937.0" type="curve" smooth="yes"/>
      <point x="134.0" y="937.0" type="line" smooth="yes"/>
      <point x="60.0" y="937.0"/>
      <point x="18.0" y="993.0"/>
      <point x="18.0" y="1117.0" type="curve" smooth="yes"/>
      <point x="18.0" y="1185.0" type="line" smooth="yes"/>
      <point x="18.0" y="1302.0"/>
      <point x="82.0" y="1417.0"/>
      <point x="286.0" y="1417.0" type="curve" smooth="yes"/>
      <point x="490.0" y="1417.0"/>
      <point x="554.0" y="1297.0"/>
      <point x="554.0" y="1182.0" type="curve" smooth="yes"/>
      <point x="554.0" y="919.0" type="line" smooth="yes"/>
      <point x="554.0" y="754.0"/>
      <point x="459.0" y="700.0"/>
      <point x="281.0" y="700.0" type="curve"/>
      <point x="291.0" y="725.0" type="line"/>
      <point x="469.0" y="725.0"/>
      <point x="558.0" y="676.0"/>
      <point x="558.0" y="501.0" type="curve" smooth="yes"/>
      <point x="558.0" y="264.0" type="line" smooth="yes"/>
      <point x="558.0" y="94.0"/>
      <point x="489.0" y="-18.0"/>
      <point x="261.0" y="-18.0" type="curve" smooth="yes"/>
      <point x="65.0" y="-18.0"/>
      <point x="21.0" y="85.0"/>
      <point x="21.0" y="234.0" type="curve" smooth="yes"/>
      <point x="21.0" y="301.0" type="line" smooth="yes"/>
      <point x="21.0" y="425.0"/>
      <point x="72.0" y="472.0"/>
    </contour>
  </outline>
</glyph>
<glyph name="four" format="2">
  <advance height="1920" width="575"/>
  <unicode hex="0034"/>
  <outline>
    <contour>
      <point x="590.0" y="415.0" type="curve" smooth="yes"/>
      <point x="590.0" y="410.0" type="line" smooth="yes"/>
      <point x="590.0" y="336.0"/>
      <point x="544.0" y="325.0"/>
      <point x="490.0" y="325.0" type="curve" smooth="yes"/>
      <point x="480.0" y="325.0" type="line"/>
      <point x="480.0" y="155.0" type="line" smooth="yes"/>
      <point x="480.0" y="31.0"/>
      <point x="429.0" y="-15.0"/>
      <point x="355.0" y="-15.0" type="curve" smooth="yes"/>
      <point x="350.0" y="-15.0" type="line" smooth="yes"/>
      <point x="276.0" y="-15.0"/>
      <point x="235.0" y="31.0"/>
      <point x="235.0" y="155.0" type="curve" smooth="yes"/>
      <point x="235.0" y="325.0" type="line"/>
      <point x="165.0" y="325.0" type="line" smooth="yes"/>
      <point x="31.0" y="325.0"/>
      <point x="-5.0" y="356.0"/>
      <point x="-5.0" y="430.0" type="curve" smooth="yes"/>
      <point x="-5.0" y="435.0" type="line" smooth="yes"/>
      <point x="-5.0" y="479.0"/>
      <point x="4.80615794441" y="528.686710724"/>
      <point x="39.0" y="665.0" type="curve" smooth="yes"/>
      <point x="187.0" y="1255.0" type="line" smooth="yes"/>
      <point x="211.415533497" y="1352.37987349"/>
      <point x="256.0" y="1415.0"/>
      <point x="340.0" y="1415.0" type="curve" smooth="yes"/>
      <point x="365.0" y="1415.0" type="line" smooth="yes"/>
      <point x="449.0" y="1415.0"/>
      <point x="480.0" y="1349.0"/>
      <point x="480.0" y="1245.0" type="curve" smooth="yes"/>
      <point x="480.0" y="500.0" type="line"/>
      <point x="490.0" y="500.0" type="line" smooth="yes"/>
      <point x="544.0" y="500.0"/>
      <point x="590.0" y="489.0"/>
    </contour>
    <contour>
      <point x="240.0" y="500.0" type="line"/>
      <point x="240.0" y="1000.0" type="line"/>
      <point x="142.0" y="500.0" type="line"/>
    </contour>
  </outline>
</glyph>
<glyph name="five" format="2">
  <advance height="1920" width="600"/>
  <unicode hex="0035"/>
  <outline>
    <contour>
      <point x="145.0" y="379.0" type="curve" smooth="yes"/>
      <point x="150.0" y="379.0" type="line" smooth="yes"/>
      <point x="243.0" y="379.0"/>
      <point x="260.0" y="352.162109375"/>
      <point x="265.0" y="259.0" type="curve" smooth="yes"/>
      <point x="268.697900298" y="190.099161592"/>
      <point x="274.0" y="152.0"/>
      <point x="298.0" y="152.0" type="curve" smooth="yes"/>
      <point x="327.0" y="152.0"/>
      <point x="330.0" y="193.0"/>
      <point x="330.0" y="379.0" type="curve" smooth="yes"/>
      <point x="330.0" y="631.0" type="line" smooth="yes"/>
      <point x="330.0" y="721.0"/>
      <point x="328.0" y="753.0"/>
      <point x="306.0" y="753.0" type="curve" smooth="yes"/>
      <point x="280.0" y="753.0"/>
      <point x="284.162392996" y="722.714951229"/>
      <point x="278.0" y="658.0" type="curve" smooth="yes"/>
      <point x="268.917165489" y="562.615756762"/>
      <point x="243.0" y="538.0"/>
      <point x="160.0" y="538.0" type="curve" smooth="yes"/>
      <point x="155.0" y="538.0" type="line" smooth="yes"/>
      <point x="91.0" y="538.0"/>
      <point x="42.60109632" y="593.416829993"/>
      <point x="50.0" y="707.0" type="curve" smooth="yes"/>
      <point x="87.0" y="1275.0" type="line" smooth="yes"/>
      <point x="93.7178391178" y="1377.62571248"/>
      <point x="146.0" y="1400.0"/>
      <point x="250.0" y="1400.0" type="curve" smooth="yes"/>
      <point x="420.0" y="1400.0" type="line" smooth="yes"/>
      <point x="504.0" y="1400.0"/>
      <point x="546.0" y="1379.0"/>
      <point x="546.0" y="1325.0" type="curve" smooth="yes"/>
      <point x="546.0" y="1322.0" type="line" smooth="yes"/>
      <point x="546.0" y="1262.0"/>
      <point x="520.0" y="1225.0"/>
      <point x="410.0" y="1225.0" type="curve" smooth="yes"/>
      <point x="283.0" y="1225.0" type="line"/>
      <point x="240.0" y="694.0" type="line"/>
      <point x="229.0" y="694.0" type="line"/>
      <point x="236.0" y="866.0"/>
      <point x="290.0" y="929.0"/>
      <point x="400.0" y="929.0" type="curve" smooth="yes"/>
      <point x="520.0" y="929.0"/>
      <point x="575.0" y="865.0"/>
      <point x="575.0" y="651.0" type="curve" smooth="yes"/>
      <point x="575.0" y="379.0" type="line" smooth="yes"/>
      <point x="575.0" y="85.0"/>
      <point x="483.0" y="-18.0"/>
      <point x="278.0" y="-18.0" type="curve" smooth="yes"/>
      <point x="111.0" y="-18.0"/>
      <point x="50.5006101667" y="75.3216574413"/>
      <point x="37.0" y="259.0" type="curve" smooth="yes"/>
      <point x="30.826171875" y="342.99609375"/>
      <point x="51.0" y="379.0"/>
    </contour>
  </outline>
</glyph>
<glyph name="six" format="2">
  <advance height="1920" width="591"/>
  <unicode hex="0036"/>
  <outline>
    <contour>
      <point x="297.0" y="669.0" type="curve" smooth="yes"/>
      <point x="272.0" y="669.0"/>
      <point x="267.0" y="642.0"/>
      <point x="267.0" y="540.0" type="curve" smooth="yes"/>
      <point x="267.0" y="510.0" type="line"/>
      <point x="222.0" y="550.0" type="line"/>
      <point x="222.0" y="682.0"/>
      <point x="269.0" y="794.0"/>
      <point x="387.0" y="794.0" type="curve" smooth="yes"/>
      <point x="531.0" y="794.0"/>
      <point x="571.0" y="694.0"/>
      <point x="571.0" y="517.0" type="curve" smooth="yes"/>
      <point x="571.0" y="266.0" type="line" smooth="yes"/>
      <point x="571.0" y="67.0"/>
      <point x="497.0" y="-16.0"/>
      <point x="301.0" y="-16.0" type="curve" smooth="yes"/>
      <point x="83.0" y="-16.0"/>
      <point x="25.0" y="86.0"/>
      <point x="25.0" y="326.0" type="curve" smooth="yes"/>
      <point x="25.0" y="1121.0" type="line" smooth="yes"/>
      <point x="25.0" y="1311.0"/>
      <point x="98.0" y="1417.0"/>
      <point x="292.0" y="1417.0" type="curve" smooth="yes"/>
      <point x="490.0" y="1417.0"/>
      <point x="554.0" y="1317.0"/>
      <point x="554.0" y="1145.0" type="curve" smooth="yes"/>
      <point x="554.0" y="1055.0" type="line" smooth="yes"/>
      <point x="554.0" y="931.0"/>
      <point x="513.0" y="885.0"/>
      <point x="439.0" y="885.0" type="curve" smooth="yes"/>
      <point x="434.0" y="885.0" type="line" smooth="yes"/>
      <point x="360.0" y="885.0"/>
      <point x="319.0" y="931.0"/>
      <point x="319.0" y="1055.0" type="curve" smooth="yes"/>
      <point x="319.0" y="1125.0" type="line" smooth="yes"/>
      <point x="319.0" y="1191.0"/>
      <point x="319.0" y="1241.0"/>
      <point x="293.0" y="1241.0" type="curve" smooth="yes"/>
      <point x="268.0" y="1241.0"/>
      <point x="267.0" y="1193.0"/>
      <point x="267.0" y="1118.0" type="curve" smooth="yes"/>
      <point x="267.0" y="293.0" type="line" smooth="yes"/>
      <point x="267.0" y="188.0"/>
      <point x="273.0" y="160.0"/>
      <point x="297.0" y="160.0" type="curve" smooth="yes"/>
      <point x="327.0" y="160.0"/>
      <point x="327.0" y="190.0"/>
      <point x="327.0" y="290.0" type="curve" smooth="yes"/>
      <point x="327.0" y="527.0" type="line" smooth="yes"/>
      <point x="327.0" y="629.0"/>
      <point x="322.0" y="669.0"/>
    </contour>
  </outline>
</glyph>
<glyph name="seven" format="2">
  <advance height="1920" width="521"/>
  <unicode hex="0037"/>
  <outline>
    <contour>
      <point x="507.685546875" y="1235.0" type="curve" smooth="yes"/>
      <point x="359.685546875" y="155.0" type="line" smooth="yes"/>
      <point x="345.582155298" y="52.1283725074"/>
      <point x="296.71875" y="-15.0"/>
      <point x="211.685546875" y="-15.0" type="curve" smooth="yes"/>
      <point x="207.685546875" y="-15.0" type="line" smooth="yes"/>
      <point x="122.7734375" y="-15.0"/>
      <point x="82.7722178248" y="55.3197773567"/>
      <point x="103.685546875" y="155.0" type="curve" smooth="yes"/>
      <point x="317.685827628" y="1175.0" type="line"/>
      <point x="191.685546875" y="1175.0" type="line" smooth="yes"/>
      <point x="77.900390625" y="1175.0"/>
      <point x="22.685546875" y="1210.546875"/>
      <point x="22.685546875" y="1285.0" type="curve" smooth="yes"/>
      <point x="22.685546875" y="1290.0" type="line" smooth="yes"/>
      <point x="22.685546875" y="1374.453125"/>
      <point x="77.900390625" y="1400.0"/>
      <point x="191.685546875" y="1400.0" type="curve" smooth="yes"/>
      <point x="375.685546875" y="1400.0" type="line" smooth="yes"/>
      <point x="489.646484375" y="1400.0"/>
      <point x="522.999640283" y="1346.75149244"/>
    </contour>
  </outline>
</glyph>
<glyph name="eight" format="2">
  <advance height="1920" width="630"/>
  <unicode hex="0038"/>
  <outline>
    <contour>
      <point x="316.0" y="155.0" type="curve" smooth="yes"/>
      <point x="346.0" y="155.0"/>
      <point x="354.0" y="178.0"/>
      <point x="354.0" y="216.0" type="curve" smooth="yes"/>
      <point x="354.0" y="567.0" type="line" smooth="yes"/>
      <point x="354.0" y="606.0"/>
      <point x="346.0" y="629.0"/>
      <point x="316.0" y="629.0" type="curve" smooth="yes"/>
      <point x="286.0" y="629.0"/>
      <point x="278.0" y="606.0"/>
      <point x="278.0" y="567.0" type="curve" smooth="yes"/>
      <point x="278.0" y="216.0" type="line" smooth="yes"/>
      <point x="278.0" y="178.0"/>
      <point x="286.0" y="155.0"/>
    </contour>
    <contour>
      <point x="316.0" y="804.0" type="curve" smooth="yes"/>
      <point x="341.0" y="804.0"/>
      <point x="348.0" y="823.0"/>
      <point x="348.0" y="851.0" type="curve" smooth="yes"/>
      <point x="348.0" y="1203.0" type="line" smooth="yes"/>
      <point x="348.0" y="1226.0"/>
      <point x="340.0" y="1244.0"/>
      <point x="316.0" y="1244.0" type="curve" smooth="yes"/>
      <point x="292.0" y="1244.0"/>
      <point x="282.0" y="1226.0"/>
      <point x="282.0" y="1203.0" type="curve" smooth="yes"/>
      <point x="282.0" y="851.0" type="line" smooth="yes"/>
      <point x="282.0" y="823.0"/>
      <point x="291.0" y="804.0"/>
    </contour>
    <contour>
      <point x="331.0" y="729.0" type="line"/>
      <point x="546.0" y="729.0"/>
      <point x="598.0" y="641.0"/>
      <point x="598.0" y="495.0" type="curve" smooth="yes"/>
      <point x="598.0" y="224.0" type="line" smooth="yes"/>
      <point x="598.0" y="70.0"/>
      <point x="545.0" y="-18.0"/>
      <point x="316.0" y="-18.0" type="curve" smooth="yes"/>
      <point x="112.0" y="-18.0"/>
      <point x="32.0" y="70.0"/>
      <point x="32.0" y="224.0" type="curve" smooth="yes"/>
      <point x="32.0" y="495.0" type="line" smooth="yes"/>
      <point x="32.0" y="641.0"/>
      <point x="110.0" y="729.0"/>
      <point x="300.0" y="729.0" type="curve"/>
      <point x="301.0" y="709.0" type="line"/>
      <point x="118.0" y="712.0"/>
      <point x="38.0" y="788.0"/>
      <point x="38.0" y="948.0" type="curve" smooth="yes"/>
      <point x="38.0" y="1171.0" type="line" smooth="yes"/>
      <point x="38.0" y="1332.0"/>
      <point x="132.0" y="1417.0"/>
      <point x="316.0" y="1417.0" type="curve" smooth="yes"/>
      <point x="525.0" y="1417.0"/>
      <point x="594.0" y="1332.0"/>
      <point x="594.0" y="1171.0" type="curve" smooth="yes"/>
      <point x="594.0" y="948.0" type="line" smooth="yes"/>
      <point x="594.0" y="788.0"/>
      <point x="538.0" y="712.0"/>
      <point x="330.0" y="709.0" type="curve"/>
    </contour>
  </outline>
</glyph>
<glyph name="nine" format="2">
  <advance height="1920" width="591"/>
  <unicode hex="0039"/>
  <outline>
    <contour>
      <point x="294.0" y="731.0" type="curve" smooth="yes"/>
      <point x="319.0" y="731.0"/>
      <point x="324.0" y="758.0"/>
      <point x="324.0" y="860.0" type="curve" smooth="yes"/>
      <point x="324.0" y="890.0" type="line"/>
      <point x="369.0" y="850.0" type="line"/>
      <point x="369.0" y="718.0"/>
      <point x="322.0" y="606.0"/>
      <point x="204.0" y="606.0" type="curve" smooth="yes"/>
      <point x="60.0" y="606.0"/>
      <point x="20.0" y="706.0"/>
      <point x="20.0" y="883.0" type="curve" smooth="yes"/>
      <point x="20.0" y="1134.0" type="line" smooth="yes"/>
      <point x="20.0" y="1333.0"/>
      <point x="94.0" y="1416.0"/>
      <point x="290.0" y="1416.0" type="curve" smooth="yes"/>
      <point x="508.0" y="1416.0"/>
      <point x="566.0" y="1314.0"/>
      <point x="566.0" y="1074.0" type="curve" smooth="yes"/>
      <point x="566.0" y="279.0" type="line" smooth="yes"/>
      <point x="566.0" y="89.0"/>
      <point x="493.0" y="-17.0"/>
      <point x="299.0" y="-17.0" type="curve" smooth="yes"/>
      <point x="101.0" y="-17.0"/>
      <point x="27.0" y="83.0"/>
      <point x="27.0" y="255.0" type="curve" smooth="yes"/>
      <point x="27.0" y="345.0" type="line" smooth="yes"/>
      <point x="27.0" y="469.0"/>
      <point x="68.0" y="515.0"/>
      <point x="142.0" y="515.0" type="curve" smooth="yes"/>
      <point x="147.0" y="515.0" type="line" smooth="yes"/>
      <point x="221.0" y="515.0"/>
      <point x="262.0" y="469.0"/>
      <point x="262.0" y="345.0" type="curve" smooth="yes"/>
      <point x="262.0" y="275.0" type="line" smooth="yes"/>
      <point x="262.0" y="209.0"/>
      <point x="262.0" y="159.0"/>
      <point x="293.0" y="159.0" type="curve" smooth="yes"/>
      <point x="323.0" y="159.0"/>
      <point x="324.0" y="207.0"/>
      <point x="324.0" y="282.0" type="curve" smooth="yes"/>
      <point x="324.0" y="1107.0" type="line" smooth="yes"/>
      <point x="324.0" y="1212.0"/>
      <point x="318.0" y="1240.0"/>
      <point x="294.0" y="1240.0" type="curve" smooth="yes"/>
      <point x="264.0" y="1240.0"/>
      <point x="264.0" y="1210.0"/>
      <point x="264.0" y="1110.0" type="curve" smooth="yes"/>
      <point x="264.0" y="873.0" type="line" smooth="yes"/>
      <point x="264.0" y="771.0"/>
      <point x="269.0" y="731.0"/>
    </contour>
  </outline>
</glyph>
<glyph name="less" format="2">
  <advance height="1920" width="505"/>
  <unicode hex="003C"/>
  <outline>
    <contour>
      <point x="305.0" y="390.0" type="curve" smooth="yes"/>
      <point x="95.0" y="487.0" type="line" smooth="yes"/>
      <point x="29.0" y="517.0"/>
      <point x="-1.0" y="541.0"/>
      <point x="-1.0" y="595.0" type="curve" smooth="yes"/>
      <point x="-1.0" y="605.0" type="line" smooth="yes"/>
      <point x="-1.0" y="659.0"/>
      <point x="29.0" y="683.0"/>
      <point x="95.0" y="713.0" type="curve" smooth="yes"/>
      <point x="305.0" y="810.0" type="line" smooth="yes"/>
      <point x="383.0" y="846.0"/>
      <point x="425.0" y="799.0"/>
      <point x="425.0" y="745.0" type="curve" smooth="yes"/>
      <point x="425.0" y="740.0" type="line" smooth="yes"/>
      <point x="425.0" y="686.0"/>
      <point x="402.0" y="666.0"/>
      <point x="329.0" y="644.0" type="curve" smooth="yes"/>
      <point x="184.0" y="600.0" type="line"/>
      <point x="329.0" y="556.0" type="line" smooth="yes"/>
      <point x="402.0" y="534.0"/>
      <point x="425.0" y="514.0"/>
      <point x="425.0" y="460.0" type="curve" smooth="yes"/>
      <point x="425.0" y="455.0" type="line" smooth="yes"/>
      <point x="425.0" y="401.0"/>
      <point x="383.0" y="354.0"/>
    </contour>
  </outline>
</glyph>
<glyph name="equal" format="2">
  <advance height="1920" width="590"/>
  <unicode hex="003D"/>
  <outline>
    <contour>
      <point x="60.0" y="371.0" type="curve" smooth="yes"/>
      <point x="60.0" y="389.0" type="line" smooth="yes"/>
      <point x="60.0" y="443.0"/>
      <point x="101.0" y="469.0"/>
      <point x="155.0" y="469.0" type="curve" smooth="yes"/>
      <point x="435.0" y="469.0" type="line" smooth="yes"/>
      <point x="489.0" y="469.0"/>
      <point x="530.0" y="443.0"/>
      <point x="530.0" y="389.0" type="curve" smooth="yes"/>
      <point x="530.0" y="371.0" type="line" smooth="yes"/>
      <point x="530.0" y="317.0"/>
      <point x="489.0" y="291.0"/>
      <point x="435.0" y="291.0" type="curve" smooth="yes"/>
      <point x="155.0" y="291.0" type="line" smooth="yes"/>
      <point x="101.0" y="291.0"/>
      <point x="60.0" y="317.0"/>
    </contour>
    <contour>
      <point x="60.0" y="606.0" type="curve" smooth="yes"/>
      <point x="60.0" y="624.0" type="line" smooth="yes"/>
      <point x="60.0" y="678.0"/>
      <point x="101.0" y="704.0"/>
      <point x="155.0" y="704.0" type="curve" smooth="yes"/>
      <point x="435.0" y="704.0" type="line" smooth="yes"/>
      <point x="489.0" y="704.0"/>
      <point x="530.0" y="678.0"/>
      <point x="530.0" y="624.0" type="curve" smooth="yes"/>
      <point x="530.0" y="606.0" type="line" smooth="yes"/>
      <point x="530.0" y="552.0"/>
      <point x="489.0" y="526.0"/>
      <point x="435.0" y="526.0" type="curve" smooth="yes"/>
      <point x="155.0" y="526.0" type="line" smooth="yes"/>
      <point x="101.0" y="526.0"/>
      <point x="60.0" y="552.0"/>
    </contour>
  </outline>
</glyph>
<glyph name="greater" format="2">
  <advance height="1920" width="505"/>
  <unicode hex="003E"/>
  <outline>
    <contour>
      <point x="199.0" y="810.0" type="curve" smooth="yes"/>
      <point x="409.0" y="713.0" type="line" smooth="yes"/>
      <point x="475.0" y="683.0"/>
      <point x="505.0" y="659.0"/>
      <point x="505.0" y="605.0" type="curve" smooth="yes"/>
      <point x="505.0" y="595.0" type="line" smooth="yes"/>
      <point x="505.0" y="541.0"/>
      <point x="475.0" y="517.0"/>
      <point x="409.0" y="487.0" type="curve" smooth="yes"/>
      <point x="199.0" y="390.0" type="line" smooth="yes"/>
      <point x="121.0" y="354.0"/>
      <point x="79.0" y="401.0"/>
      <point x="79.0" y="455.0" type="curve" smooth="yes"/>
      <point x="79.0" y="460.0" type="line" smooth="yes"/>
      <point x="79.0" y="514.0"/>
      <point x="102.0" y="534.0"/>
      <point x="175.0" y="556.0" type="curve" smooth="yes"/>
      <point x="320.0" y="600.0" type="line"/>
      <point x="175.0" y="644.0" type="line" smooth="yes"/>
      <point x="102.0" y="666.0"/>
      <point x="79.0" y="686.0"/>
      <point x="79.0" y="740.0" type="curve" smooth="yes"/>
      <point x="79.0" y="745.0" type="line" smooth="yes"/>
      <point x="79.0" y="799.0"/>
      <point x="121.0" y="846.0"/>
    </contour>
  </outline>
</glyph>
<glyph name="question" format="2">
  <advance height="1920" width="600"/>
  <unicode hex="003F"/>
  <outline>
    <contour>
      <point x="303.0" y="-17.0" type="curve" smooth="yes"/>
      <point x="287.0" y="-17.0" type="line" smooth="yes"/>
      <point x="203.0" y="-17.0"/>
      <point x="147.0" y="24.0"/>
      <point x="147.0" y="138.0" type="curve" smooth="yes"/>
      <point x="147.0" y="222.0" type="line" smooth="yes"/>
      <point x="147.0" y="336.0"/>
      <point x="203.0" y="377.0"/>
      <point x="287.0" y="377.0" type="curve" smooth="yes"/>
      <point x="303.0" y="377.0" type="line" smooth="yes"/>
      <point x="387.0" y="377.0"/>
      <point x="443.0" y="336.0"/>
      <point x="443.0" y="222.0" type="curve" smooth="yes"/>
      <point x="443.0" y="138.0" type="line" smooth="yes"/>
      <point x="443.0" y="24.0"/>
      <point x="387.0" y="-17.0"/>
    </contour>
    <contour>
      <point x="278.0" y="415.0" type="curve" smooth="yes"/>
      <point x="273.0" y="415.0" type="line" smooth="yes"/>
      <point x="219.0" y="415.0"/>
      <point x="197.0" y="442.0"/>
      <point x="197.0" y="535.0" type="curve" smooth="yes"/>
      <point x="197.0" y="642.0"/>
      <point x="305.0" y="730.0"/>
      <point x="305.0" y="877.0" type="curve" smooth="yes"/>
      <point x="305.0" y="1178.0" type="line" smooth="yes"/>
      <point x="305.0" y="1273.0"/>
      <point x="298.0" y="1291.0"/>
      <point x="280.0" y="1291.0" type="curve" smooth="yes"/>
      <point x="260.0" y="1291.0"/>
      <point x="255.0" y="1266.0"/>
      <point x="255.0" y="1170.0" type="curve" smooth="yes"/>
      <point x="255.0" y="1107.0" type="line" smooth="yes"/>
      <point x="255.0" y="993.0"/>
      <point x="215.0" y="937.0"/>
      <point x="141.0" y="937.0" type="curve" smooth="yes"/>
      <point x="131.0" y="937.0" type="line" smooth="yes"/>
      <point x="57.0" y="937.0"/>
      <point x="15.0" y="993.0"/>
      <point x="15.0" y="1107.0" type="curve" smooth="yes"/>
      <point x="15.0" y="1205.0" type="line" smooth="yes"/>
      <point x="15.0" y="1347.0"/>
      <point x="95.0" y="1467.0"/>
      <point x="293.0" y="1467.0" type="curve" smooth="yes"/>
      <point x="491.0" y="1467.0"/>
      <point x="585.0" y="1361.0"/>
      <point x="585.0" y="1221.0" type="curve" smooth="yes"/>
      <point x="585.0" y="934.0" type="line" smooth="yes"/>
      <point x="585.0" y="692.0"/>
      <point x="413.0" y="614.0"/>
      <point x="383.0" y="524.0" type="curve" smooth="yes"/>
      <point x="352.0" y="434.0"/>
      <point x="331.0" y="415.0"/>
    </contour>
  </outline>
</glyph>
<glyph name="at" format="2">
  <advance height="1920" width="935"/>
  <unicode hex="0040"/>
  <outline>
    <contour>
      <point x="522.0" y="199.0" type="line"/>
      <point x="522.0" y="54.0"/>
      <point x="534.0" y="-17.0"/>
      <point x="400.0" y="-17.0" type="curve" smooth="yes"/>
      <point x="292.0" y="-17.0"/>
      <point x="208.0" y="41.0"/>
      <point x="208.0" y="211.0" type="curve" smooth="yes"/>
      <point x="208.0" y="838.0" type="line" smooth="yes"/>
      <point x="208.0" y="998.0"/>
      <point x="298.0" y="1067.0"/>
      <point x="416.0" y="1067.0" type="curve" smooth="yes"/>
      <point x="544.0" y="1067.0"/>
      <point x="552.0" y="996.0"/>
      <point x="552.0" y="851.0" type="curve"/>
      <point x="478.0" y="841.0" type="line"/>
      <point x="478.0" y="891.0"/>
      <point x="476.0" y="921.0"/>
      <point x="453.0" y="921.0" type="curve" smooth="yes"/>
      <point x="429.0" y="921.0"/>
      <point x="428.0" y="901.0"/>
      <point x="428.0" y="851.0" type="curve" smooth="yes"/>
      <point x="428.0" y="199.0" type="line" smooth="yes"/>
      <point x="428.0" y="149.0"/>
      <point x="429.0" y="128.0"/>
      <point x="453.0" y="128.0" type="curve" smooth="yes"/>
      <point x="476.0" y="128.0"/>
      <point x="478.0" y="159.0"/>
      <point x="478.0" y="209.0" type="curve"/>
    </contour>
    <contour>
      <point x="586.0" y="-344.0" type="curve" smooth="yes"/>
      <point x="547.118581483" y="-367.32885111"/>
      <point x="492.0" y="-377.0"/>
      <point x="442.0" y="-377.0" type="curve" smooth="yes"/>
      <point x="124.0" y="-377.0"/>
      <point x="50.0" y="-191.0"/>
      <point x="50.0" y="49.0" type="curve" smooth="yes"/>
      <point x="50.0" y="990.0" type="line" smooth="yes"/>
      <point x="50.0" y="1245.0"/>
      <point x="214.0" y="1417.0"/>
      <point x="482.0" y="1417.0" type="curve" smooth="yes"/>
      <point x="786.0" y="1417.0"/>
      <point x="885.0" y="1212.0"/>
      <point x="885.0" y="1016.0" type="curve" smooth="yes"/>
      <point x="885.0" y="235.0" type="line" smooth="yes"/>
      <point x="885.0" y="55.0"/>
      <point x="799.0" y="-17.0"/>
      <point x="685.0" y="-17.0" type="curve" smooth="yes"/>
      <point x="581.0" y="-17.0"/>
      <point x="478.0" y="55.0"/>
      <point x="478.0" y="165.0" type="curve" smooth="yes"/>
      <point x="478.0" y="961.0" type="line"/>
      <point x="562.0" y="1021.0" type="line" smooth="yes"/>
      <point x="617.430954392" y="1060.59353885"/>
      <point x="627.0" y="1067.0"/>
      <point x="651.0" y="1067.0" type="curve" smooth="yes"/>
      <point x="652.0" y="1067.0" type="line" smooth="yes"/>
      <point x="686.0" y="1067.0"/>
      <point x="698.0" y="1035.0"/>
      <point x="698.0" y="961.0" type="curve" smooth="yes"/>
      <point x="698.0" y="231.0" type="line" smooth="yes"/>
      <point x="698.0" y="134.0"/>
      <point x="711.0" y="103.0"/>
      <point x="745.0" y="103.0" type="curve" smooth="yes"/>
      <point x="773.0" y="103.0"/>
      <point x="795.0" y="135.0"/>
      <point x="795.0" y="235.0" type="curve" smooth="yes"/>
      <point x="795.0" y="1016.0" type="line" smooth="yes"/>
      <point x="795.0" y="1186.0"/>
      <point x="706.0" y="1347.0"/>
      <point x="482.0" y="1347.0" type="curve" smooth="yes"/>
      <point x="278.0" y="1347.0"/>
      <point x="145.0" y="1206.0"/>
      <point x="145.0" y="996.0" type="curve" smooth="yes"/>
      <point x="145.0" y="45.0" type="line" smooth="yes"/>
      <point x="145.0" y="-145.0"/>
      <point x="184.0" y="-307.0"/>
      <point x="442.0" y="-307.0" type="curve" smooth="yes"/>
      <point x="478.0" y="-307.0"/>
      <point x="532.702148438" y="-293.24609375"/>
      <point x="560.0" y="-277.0" type="curve" smooth="yes"/>
      <point x="588.37109375" y="-260.115234375"/>
      <point x="607.5859375" y="-263.965820312"/>
      <point x="616.0" y="-285.0" type="curve" smooth="yes"/>
      <point x="618.0" y="-290.0" type="line" smooth="yes"/>
      <point x="622.965820312" y="-302.4140625"/>
      <point x="611.0" y="-329.0"/>
    </contour>
  </outline>
</glyph>
<glyph name="A" format="2">
  <advance height="960" width="562"/>
  <unicode hex="0041"/>
  <anchor x="251.0" y="0.0" name="bottom"/>
  <anchor x="424.0" y="0.0" name="ogonek"/>
  <anchor x="286.0" y="1400.0" name="top"/>
  <outline>
    <contour>
      <point x="144.0" y="520.0" type="line"/>
      <point x="359.0" y="520.0" type="line"/>
      <point x="359.0" y="395.0" type="line"/>
      <point x="144.0" y="395.0" type="line"/>
    </contour>
    <contour>
      <point x="270.0" y="1089.0" type="line"/>
      <point x="199.0" y="125.0" type="line" smooth="yes"/>
      <point x="191.522688281" y="23.477063415"/>
      <point x="168.0" y="-15.0"/>
      <point x="94.0" y="-15.0" type="curve" smooth="yes"/>
      <point x="84.0" y="-15.0" type="line" smooth="yes"/>
      <point x="12.0" y="-15.0"/>
      <point x="-8.21460583791" y="20.9935748903"/>
      <point x="3.0" y="125.0" type="curve" smooth="yes"/>
      <point x="127.0" y="1275.0" type="line" smooth="yes"/>
      <point x="135.980240977" y="1358.24748935"/>
      <point x="174.0" y="1400.0"/>
      <point x="266.0" y="1400.0" type="curve" smooth="yes"/>
      <point x="316.0" y="1400.0" type="line" smooth="yes"/>
      <point x="409.0" y="1400.0"/>
      <point x="446.043578059" y="1368.23488413"/>
      <point x="455.0" y="1275.0" type="curve" smooth="yes"/>
      <point x="565.0" y="125.0" type="line" smooth="yes"/>
      <point x="574.573280384" y="24.9157050802"/>
      <point x="529.0" y="-15.0"/>
      <point x="454.0" y="-15.0" type="curve" smooth="yes"/>
      <point x="444.0" y="-15.0" type="line" smooth="yes"/>
      <point x="372.0" y="-15.0"/>
      <point x="316.569810753" y="20.1119627092"/>
      <point x="312.0" y="125.0" type="curve" smooth="yes"/>
    </contour>
  </outline>
</glyph>
<glyph name="C" format="2">
  <advance height="960" width="560"/>
  <unicode hex="0043"/>
  <anchor x="288.0" y="0.0" name="bottom"/>
  <anchor x="297.0" y="1400.0" name="top"/>
  <outline>
    <contour>
      <point x="550.0" y="503.0" type="curve" smooth="yes"/>
      <point x="550.0" y="425.993506767"/>
      <point x="550.0" y="367.0"/>
      <point x="548.0" y="294.0" type="curve" smooth="yes"/>
      <point x="543.0" y="98.0"/>
      <point x="455.0" y="-18.0"/>
      <point x="272.0" y="-18.0" type="curve" smooth="yes"/>
      <point x="68.0" y="-18.0"/>
      <point x="25.0" y="109.0"/>
      <point x="25.0" y="349.0" type="curve" smooth="yes"/>
      <point x="25.0" y="1042.0" type="line" smooth="yes"/>
      <point x="25.0" y="1272.0"/>
      <point x="68.0" y="1418.0"/>
      <point x="282.0" y="1418.0" type="curve" smooth="yes"/>
      <point x="466.0" y="1418.0"/>
      <point x="533.0" y="1293.0"/>
      <point x="534.0" y="1074.0" type="curve" smooth="yes"/>
      <point x="534.0" y="1042.0"/>
      <point x="535.0" y="1006.0"/>
      <point x="535.0" y="966.0" type="curve" smooth="yes"/>
      <point x="535.0" y="892.0"/>
      <point x="519.0" y="847.0"/>
      <point x="445.0" y="847.0" type="curve" smooth="yes"/>
      <point x="441.0" y="847.0" type="line" smooth="yes"/>
      <point x="367.0" y="847.0"/>
      <point x="351.0" y="892.0"/>
      <point x="350.0" y="966.0" type="curve" smooth="yes"/>
      <point x="348.0" y="1129.0"/>
      <point x="352.0" y="1218.0"/>
      <point x="312.0" y="1218.0" type="curve" smooth="yes"/>
      <point x="277.0" y="1218.0"/>
      <point x="275.0" y="1161.0"/>
      <point x="275.0" y="1046.0" type="curve" smooth="yes"/>
      <point x="275.0" y="314.0" type="line" smooth="yes"/>
      <point x="275.0" y="214.0"/>
      <point x="279.0" y="182.0"/>
      <point x="312.0" y="182.0" type="curve" smooth="yes"/>
      <point x="349.0" y="182.0"/>
      <point x="355.0" y="262.0"/>
      <point x="355.0" y="503.0" type="curve" smooth="yes"/>
      <point x="355.0" y="587.0"/>
      <point x="376.0" y="623.0"/>
      <point x="450.0" y="623.0" type="curve" smooth="yes"/>
      <point x="455.0" y="623.0" type="line" smooth="yes"/>
      <point x="529.0" y="623.0"/>
      <point x="550.0" y="587.0"/>
    </contour>
  </outline>
</glyph>
<glyph name="D" format="2">
  <advance height="960" width="620"/>
  <unicode hex="0044"/>
  <anchor x="262.0" y="0.0" name="bottom"/>
  <anchor x="282.0" y="1400.0" name="top"/>
  <outline>
    <contour>
      <point x="283.0" y="0.0" type="curve" smooth="yes"/>
      <point x="190.0" y="0.0" type="line" smooth="yes"/>
      <point x="46.0" y="0.0"/>
      <point x="35.0" y="11.0"/>
      <point x="35.0" y="155.0" type="curve" smooth="yes"/>
      <point x="35.0" y="1245.0" type="line" smooth="yes"/>
      <point x="35.0" y="1389.0"/>
      <point x="46.0" y="1400.0"/>
      <point x="190.0" y="1400.0" type="curve" smooth="yes"/>
      <point x="283.0" y="1400.0" type="line" smooth="yes"/>
      <point x="490.0" y="1400.0"/>
      <point x="595.0" y="1285.0"/>
      <point x="595.0" y="992.0" type="curve" smooth="yes"/>
      <point x="595.0" y="409.0" type="line" smooth="yes"/>
      <point x="595.0" y="116.0"/>
      <point x="510.0" y="0.0"/>
    </contour>
    <contour>
      <point x="303.0" y="175.0" type="line" smooth="yes"/>
      <point x="335.0" y="175.0"/>
      <point x="345.0" y="220.0"/>
      <point x="345.0" y="404.0" type="curve" smooth="yes"/>
      <point x="345.0" y="996.0" type="line" smooth="yes"/>
      <point x="345.0" y="1180.0"/>
      <point x="335.0" y="1225.0"/>
      <point x="303.0" y="1225.0" type="curve" smooth="yes"/>
      <point x="280.0" y="1225.0" type="line"/>
      <point x="280.0" y="175.0" type="line"/>
    </contour>
  </outline>
</glyph>
<glyph name="E" format="2">
  <advance height="960" width="440"/>
  <unicode hex="0045"/>
  <anchor x="292.0" y="0.0" name="bottom"/>
  <anchor x="350.0" y="0.0" name="ogonek"/>
  <anchor x="292.0" y="1400.0" name="top"/>
  <outline>
    <contour>
      <point x="280.0" y="770.0" type="line"/>
      <point x="295.0" y="770.0" type="line" smooth="yes"/>
      <point x="369.0" y="770.0"/>
      <point x="385.0" y="754.0"/>
      <point x="385.0" y="710.0" type="curve" smooth="yes"/>
      <point x="385.0" y="705.0" type="line" smooth="yes"/>
      <point x="385.0" y="661.0"/>
      <point x="369.0" y="645.0"/>
      <point x="295.0" y="645.0" type="curve" smooth="yes"/>
      <point x="280.0" y="645.0" type="line"/>
      <point x="280.0" y="175.0" type="line"/>
      <point x="335.0" y="175.0" type="line" smooth="yes"/>
      <point x="409.0" y="175.0"/>
      <point x="455.0" y="164.0"/>
      <point x="455.0" y="90.0" type="curve" smooth="yes"/>
      <point x="455.0" y="85.0" type="line" smooth="yes"/>
      <point x="455.0" y="11.0"/>
      <point x="409.0" y="-9.06238631369e-15"/>
      <point x="335.0" y="0.0" type="curve" smooth="yes"/>
      <point x="190.0" y="0.0" type="line" smooth="yes"/>
      <point x="46.0" y="0.0"/>
      <point x="35.0" y="11.0"/>
      <point x="35.0" y="155.0" type="curve" smooth="yes"/>
      <point x="35.0" y="1245.0" type="line" smooth="yes"/>
      <point x="35.0" y="1389.0"/>
      <point x="46.0" y="1400.0"/>
      <point x="190.0" y="1400.0" type="curve" smooth="yes"/>
      <point x="325.0" y="1400.0" type="line" smooth="yes"/>
      <point x="399.0" y="1400.0"/>
      <point x="445.0" y="1389.0"/>
      <point x="445.0" y="1315.0" type="curve" smooth="yes"/>
      <point x="445.0" y="1310.0" type="line" smooth="yes"/>
      <point x="445.0" y="1236.0"/>
      <point x="399.0" y="1225.0"/>
      <point x="325.0" y="1225.0" type="curve" smooth="yes"/>
      <point x="280.0" y="1225.0" type="line"/>
    </contour>
  </outline>
</glyph>
<glyph name="F" format="2">
  <advance height="960" width="435"/>
  <unicode hex="0046"/>
  <anchor x="272.0" y="0.0" name="bottom"/>
  <anchor x="272.0" y="1400.0" name="top"/>
  <outline>
    <contour>
      <point x="280.0" y="775.0" type="line"/>
      <point x="290.0" y="775.0" type="line" smooth="yes"/>
      <point x="364.0" y="775.0"/>
      <point x="390.0" y="764.0"/>
      <point x="390.0" y="720.0" type="curve" smooth="yes"/>
      <point x="390.0" y="705.0" type="line" smooth="yes"/>
      <point x="390.0" y="661.0"/>
      <point x="364.0" y="650.0"/>
      <point x="290.0" y="650.0" type="curve" smooth="yes"/>
      <point x="280.0" y="650.0" type="line"/>
      <point x="280.0" y="105.0" type="line" smooth="yes"/>
      <point x="280.0" y="21.0"/>
      <point x="244.0" y="-15.0"/>
      <point x="160.0" y="-15.0" type="curve" smooth="yes"/>
      <point x="155.0" y="-15.0" type="line" smooth="yes"/>
      <point x="71.0" y="-15.0"/>
      <point x="35.0" y="21.0"/>
      <point x="35.0" y="105.0" type="curve" smooth="yes"/>
      <point x="35.0" y="1245.0" type="line" smooth="yes"/>
      <point x="35.0" y="1389.0"/>
      <point x="46.0" y="1400.0"/>
      <point x="190.0" y="1400.0" type="curve" smooth="yes"/>
      <point x="330.0" y="1400.0" type="line" smooth="yes"/>
      <point x="404.0" y="1400.0"/>
      <point x="450.0" y="1389.0"/>
      <point x="450.0" y="1315.0" type="curve" smooth="yes"/>
      <point x="450.0" y="1310.0" type="line" smooth="yes"/>
      <point x="450.0" y="1236.0"/>
      <point x="404.0" y="1225.0"/>
      <point x="330.0" y="1225.0" type="curve" smooth="yes"/>
      <point x="280.0" y="1225.0" type="line"/>
    </contour>
  </outline>
</glyph>
<glyph name="G" format="2">
  <advance height="960" width="582"/>
  <unicode hex="0047"/>
  <anchor x="322.0" y="0.0" name="bottom"/>
  <anchor x="282.0" y="1400.0" name="top"/>
  <outline>
    <contour>
      <point x="295.0" y="637.0" type="curve" smooth="yes"/>
      <point x="295.0" y="640.0" type="line" smooth="yes"/>
      <point x="295.0" y="684.0"/>
      <point x="321.0" y="700.0"/>
      <point x="365.0" y="700.0" type="curve" smooth="yes"/>
      <point x="415.0" y="700.0" type="line" smooth="yes"/>
      <point x="559.0" y="700.0"/>
      <point x="570.0" y="689.0"/>
      <point x="570.0" y="545.0" type="curve" smooth="yes"/>
      <point x="570.0" y="105.0" type="line" smooth="yes"/>
      <point x="570.0" y="11.0"/>
      <point x="554.0" y="-15.0"/>
      <point x="510.0" y="-15.0" type="curve" smooth="yes"/>
      <point x="505.0" y="-15.0" type="line" smooth="yes"/>
      <point x="461.0" y="-15.0"/>
      <point x="443.18" y="12.74"/>
      <point x="430.0" y="105.0" type="curve" smooth="yes"/>
      <point x="405.0" y="280.0" type="line"/>
      <point x="460.0" y="630.0" type="line"/>
      <point x="450.0" y="245.0"/>
      <point x="446.0" y="-18.0"/>
      <point x="232.0" y="-18.0" type="curve" smooth="yes"/>
      <point x="64.0" y="-18.0"/>
      <point x="25.0" y="119.0"/>
      <point x="25.0" y="409.0" type="curve" smooth="yes"/>
      <point x="25.0" y="992.0" type="line" smooth="yes"/>
      <point x="25.0" y="1282.0"/>
      <point x="68.0" y="1418.0"/>
      <point x="282.0" y="1418.0" type="curve" smooth="yes"/>
      <point x="468.267578125" y="1418.0"/>
      <point x="530.130859375" y="1296.29394531"/>
      <point x="531.26171875" y="1094.0" type="curve" smooth="yes"/>
      <point x="531.543945312" y="1043.47949219"/>
      <point x="534.947978486" y="1007.95998425"/>
      <point x="535.0" y="957.0" type="curve" smooth="yes"/>
      <point x="535.075540455" y="883.000992091"/>
      <point x="499.0" y="848.0"/>
      <point x="435.0" y="848.0" type="curve" smooth="yes"/>
      <point x="430.0" y="848.0" type="line" smooth="yes"/>
      <point x="366.0" y="848.0"/>
      <point x="330.521062206" y="883.002491925"/>
      <point x="330.0" y="957.0" type="curve" smooth="yes"/>
      <point x="328.323886452" y="1195.02959473"/>
      <point x="333.0" y="1228.0"/>
      <point x="300.0" y="1228.0" type="curve" smooth="yes"/>
      <point x="277.0" y="1228.0"/>
      <point x="275.0" y="1181.0"/>
      <point x="275.0" y="996.0" type="curve" smooth="yes"/>
      <point x="275.0" y="404.0" type="line" smooth="yes"/>
      <point x="275.0" y="224.0"/>
      <point x="278.0" y="172.0"/>
      <point x="316.0" y="172.0" type="curve" smooth="yes"/>
      <point x="349.0" y="172.0"/>
      <point x="355.0" y="231.0"/>
      <point x="363.0" y="628.0" type="curve"/>
      <point x="424.0" y="578.0" type="line"/>
      <point x="365.0" y="578.0" type="line" smooth="yes"/>
      <point x="322.0" y="578.0"/>
      <point x="295.0" y="593.0"/>
    </contour>
  </outline>
</glyph>
<glyph name="H" format="2">
  <advance height="960" width="610"/>
  <unicode hex="0048"/>
  <anchor x="302.0" y="0.0" name="bottom"/>
  <anchor x="302.0" y="1400.0" name="top"/>
  <outline>
    <contour>
      <point x="450.0" y="1415.0" type="curve" smooth="yes"/>
      <point x="455.0" y="1415.0" type="line" smooth="yes"/>
      <point x="529.0" y="1415.0"/>
      <point x="575.0" y="1389.0"/>
      <point x="575.0" y="1245.0" type="curve" smooth="yes"/>
      <point x="575.0" y="155.0" type="line" smooth="yes"/>
      <point x="575.0" y="11.0"/>
      <point x="529.0" y="-15.0"/>
      <point x="455.0" y="-15.0" type="curve" smooth="yes"/>
      <point x="450.0" y="-15.0" type="line" smooth="yes"/>
      <point x="376.0" y="-15.0"/>
      <point x="330.0" y="11.0"/>
      <point x="330.0" y="155.0" type="curve" smooth="yes"/>
      <point x="330.0" y="620.0" type="line"/>
      <point x="280.0" y="620.0" type="line"/>
      <point x="280.0" y="155.0" type="line" smooth="yes"/>
      <point x="280.0" y="11.0"/>
      <point x="234.0" y="-15.0"/>
      <point x="160.0" y="-15.0" type="curve" smooth="yes"/>
      <point x="155.0" y="-15.0" type="line" smooth="yes"/>
      <point x="81.0" y="-15.0"/>
      <point x="35.0" y="11.0"/>
      <point x="35.0" y="155.0" type="curve" smooth="yes"/>
      <point x="35.0" y="1245.0" type="line" smooth="yes"/>
      <point x="35.0" y="1389.0"/>
      <point x="81.0" y="1415.0"/>
      <point x="155.0" y="1415.0" type="curve" smooth="yes"/>
      <point x="160.0" y="1415.0" type="line" smooth="yes"/>
      <point x="234.0" y="1415.0"/>
      <point x="280.0" y="1389.0"/>
      <point x="280.0" y="1245.0" type="curve" smooth="yes"/>
      <point x="280.0" y="795.0" type="line"/>
      <point x="330.0" y="795.0" type="line"/>
      <point x="330.0" y="1245.0" type="line" smooth="yes"/>
      <point x="330.0" y="1389.0"/>
      <point x="376.0" y="1415.0"/>
    </contour>
  </outline>
</glyph>
<glyph name="I" format="2">
  <advance height="960" width="315"/>
  <unicode hex="0049"/>
  <anchor x="160.0" y="0.0" name="bottom"/>
  <anchor x="160.0" y="0.0" name="ogonek"/>
  <anchor x="160.0" y="1400.0" name="top"/>
  <outline>
    <contour>
      <point x="155.0" y="1415.0" type="curve" smooth="yes"/>
      <point x="160.0" y="1415.0" type="line" smooth="yes"/>
      <point x="234.0" y="1415.0"/>
      <point x="280.0" y="1389.0"/>
      <point x="280.0" y="1245.0" type="curve" smooth="yes"/>
      <point x="280.0" y="155.0" type="line" smooth="yes"/>
      <point x="280.0" y="11.0"/>
      <point x="234.0" y="-15.0"/>
      <point x="160.0" y="-15.0" type="curve" smooth="yes"/>
      <point x="155.0" y="-15.0" type="line" smooth="yes"/>
      <point x="81.0" y="-15.0"/>
      <point x="35.0" y="11.0"/>
      <point x="35.0" y="155.0" type="curve" smooth="yes"/>
      <point x="35.0" y="1245.0" type="line" smooth="yes"/>
      <point x="35.0" y="1389.0"/>
      <point x="81.0" y="1415.0"/>
    </contour>
  </outline>
</glyph>
<glyph name="J" format="2">
  <advance height="960" width="520"/>
  <unicode hex="004A"/>
  <anchor x="238.0" y="0.0" name="bottom"/>
  <anchor x="388.0" y="1400.0" name="top"/>
  <outline>
    <contour>
      <point x="355.0" y="1415.0" type="curve" smooth="yes"/>
      <point x="365.0" y="1415.0" type="line" smooth="yes"/>
      <point x="439.0" y="1415.0"/>
      <point x="485.0" y="1389.0"/>
      <point x="485.0" y="1245.0" type="curve" smooth="yes"/>
      <point x="485.0" y="269.0" type="line" smooth="yes"/>
      <point x="485.0" y="76.0"/>
      <point x="441.0" y="-18.0"/>
      <point x="238.0" y="-18.0" type="curve" smooth="yes"/>
      <point x="60.0" y="-18.0"/>
      <point x="10.0" y="77.0"/>
      <point x="10.0" y="239.0" type="curve" smooth="yes"/>
      <point x="10.0" y="577.0" type="line" smooth="yes"/>
      <point x="10.0" y="651.0"/>
      <point x="46.0" y="678.0"/>
      <point x="100.0" y="678.0" type="curve" smooth="yes"/>
      <point x="105.0" y="678.0" type="line" smooth="yes"/>
      <point x="159.0" y="678.0"/>
      <point x="195.0" y="651.0"/>
      <point x="195.0" y="577.0" type="curve" smooth="yes"/>
      <point x="195.0" y="244.0" type="line" smooth="yes"/>
      <point x="195.0" y="188.0"/>
      <point x="199.0" y="162.0"/>
      <point x="216.0" y="162.0" type="curve" smooth="yes"/>
      <point x="233.0" y="162.0"/>
      <point x="235.0" y="184.0"/>
      <point x="235.0" y="254.0" type="curve" smooth="yes"/>
      <point x="235.0" y="1245.0" type="line" smooth="yes"/>
      <point x="235.0" y="1389.0"/>
      <point x="281.0" y="1415.0"/>
    </contour>
  </outline>
</glyph>
<glyph name="K" format="2">
  <advance height="960" width="630"/>
  <unicode hex="004B"/>
  <anchor x="322.0" y="0.0" name="bottom"/>
  <anchor x="322.0" y="1400.0" name="top"/>
  <outline>
    <contour>
      <point x="155.0" y="1415.0" type="curve" smooth="yes"/>
      <point x="160.0" y="1415.0" type="line" smooth="yes"/>
      <point x="234.0" y="1415.0"/>
      <point x="280.0" y="1389.0"/>
      <point x="280.0" y="1245.0" type="curve" smooth="yes"/>
      <point x="280.0" y="155.0" type="line" smooth="yes"/>
      <point x="280.0" y="11.0"/>
      <point x="234.0" y="-15.0"/>
      <point x="160.0" y="-15.0" type="curve" smooth="yes"/>
      <point x="155.0" y="-15.0" type="line" smooth="yes"/>
      <point x="81.0" y="-15.0"/>
      <point x="35.0" y="11.0"/>
      <point x="35.0" y="155.0" type="curve" smooth="yes"/>
      <point x="35.0" y="1245.0" type="line" smooth="yes"/>
      <point x="35.0" y="1389.0"/>
      <point x="81.0" y="1415.0"/>
    </contour>
    <contour>
      <point x="280.0" y="785.0" type="line"/>
      <point x="455.0" y="890.0" type="line"/>
      <point x="630.0" y="155.0" type="line" smooth="yes"/>
      <point x="658.239106927" y="36.3957509053"/>
      <point x="612.376953125" y="-15.0"/>
      <point x="520.0" y="-15.0" type="curve" smooth="yes"/>
      <point x="515.0" y="-15.0" type="line" smooth="yes"/>
      <point x="440.0390625" y="-15.0"/>
      <point x="383.714359053" y="25.2320208886"/>
      <point x="366.0" y="155.0" type="curve" smooth="yes"/>
    </contour>
    <contour>
      <point x="392.0" y="1245.0" type="line" smooth="yes"/>
      <point x="433.921599381" y="1375.89444532"/>
      <point x="455.25" y="1415.0"/>
      <point x="530.0" y="1415.0" type="curve" smooth="yes"/>
      <point x="533.0" y="1415.0" type="line" smooth="yes"/>
      <point x="604.995117188" y="1415.0"/>
      <point x="646.983996197" y="1372.42194017"/>
      <point x="600.0" y="1245.0" type="curve" smooth="yes"/>
      <point x="406.41796875" y="720.0" type="line"/>
      <point x="346.41796875" y="770.0" type="line"/>
      <point x="270.0" y="450.0" type="line"/>
      <point x="155.0" y="505.0" type="line"/>
    </contour>
  </outline>
</glyph>
<glyph name="L" format="2">
  <advance height="960" width="467"/>
  <unicode hex="004C"/>
  <anchor x="272.0" y="0.0" name="bottom"/>
  <anchor x="142.0" y="1400.0" name="top"/>
  <outline>
    <contour>
      <point x="155.0" y="1415.0" type="curve" smooth="yes"/>
      <point x="160.0" y="1415.0" type="line" smooth="yes"/>
      <point x="234.0" y="1415.0"/>
      <point x="280.0" y="1389.0"/>
      <point x="280.0" y="1245.0" type="curve" smooth="yes"/>
      <point x="280.0" y="175.0" type="line"/>
      <point x="355.0" y="175.0" type="line" smooth="yes"/>
      <point x="429.0" y="175.0"/>
      <point x="475.0" y="154.0"/>
      <point x="475.0" y="90.0" type="curve" smooth="yes"/>
      <point x="475.0" y="85.0" type="line" smooth="yes"/>
      <point x="475.0" y="11.0"/>
      <point x="429.0" y="-9.06238631369e-15"/>
      <point x="355.0" y="0.0" type="curve" smooth="yes"/>
      <point x="190.0" y="0.0" type="line" smooth="yes"/>
      <point x="46.0" y="0.0"/>
      <point x="35.0" y="11.0"/>
      <point x="35.0" y="155.0" type="curve" smooth="yes"/>
      <point x="35.0" y="1245.0" type="line" smooth="yes"/>
      <point x="35.0" y="1389.0"/>
      <point x="81.0" y="1415.0"/>
    </contour>
  </outline>
</glyph>
<glyph name="M" format="2">
  <advance height="960" width="820"/>
  <unicode hex="004D"/>
  <anchor x="372.0" y="0.0" name="bottom"/>
  <anchor x="382.0" y="1400.0" name="top"/>
  <outline>
    <contour>
      <point x="200.0" y="1115.0" type="line"/>
      <point x="200.0" y="155.0" type="line" smooth="yes"/>
      <point x="200.0" y="11.0"/>
      <point x="179.0" y="-15.0"/>
      <point x="115.0" y="-15.0" type="curve" smooth="yes"/>
      <point x="110.0" y="-15.0" type="line" smooth="yes"/>
      <point x="46.0" y="-15.0"/>
      <point x="25.0" y="11.0"/>
      <point x="25.0" y="155.0" type="curve" smooth="yes"/>
      <point x="25.0" y="1245.0" type="line" smooth="yes"/>
      <point x="25.0" y="1389.0"/>
      <point x="55.0" y="1415.0"/>
      <point x="179.0" y="1415.0" type="curve" smooth="yes"/>
      <point x="181.0" y="1415.0" type="line" smooth="yes"/>
      <point x="305.0" y="1415.0"/>
      <point x="338.149163593" y="1388.02504964"/>
      <point x="351.0" y="1245.0" type="curve" smooth="yes"/>
      <point x="405.0" y="644.0" type="line"/>
      <point x="464.0" y="1245.0" type="line" smooth="yes"/>
      <point x="478.020593284" y="1387.81994176"/>
      <point x="506.0" y="1415.0"/>
      <point x="630.0" y="1415.0" type="curve" smooth="yes"/>
      <point x="635.0" y="1415.0" type="line" smooth="yes"/>
      <point x="759.0" y="1415.0"/>
      <point x="785.0" y="1389.0"/>
      <point x="785.0" y="1245.0" type="curve" smooth="yes"/>
      <point x="785.0" y="155.0" type="line" smooth="yes"/>
      <point x="785.0" y="11.0"/>
      <point x="744.0" y="-15.0"/>
      <point x="670.0" y="-15.0" type="curve" smooth="yes"/>
      <point x="665.0" y="-15.0" type="line" smooth="yes"/>
      <point x="591.0" y="-15.0"/>
      <point x="550.0" y="11.0"/>
      <point x="550.0" y="155.0" type="curve" smooth="yes"/>
      <point x="550.0" y="1115.0" type="line"/>
      <point x="458.0" y="155.0" type="line" smooth="yes"/>
      <point x="443.357773229" y="2.21154673227"/>
      <point x="421.0" y="-15.0"/>
      <point x="377.0" y="-15.0" type="curve" smooth="yes"/>
      <point x="367.0" y="-15.0" type="line" smooth="yes"/>
      <point x="323.0" y="-15.0"/>
      <point x="300.858854525" y="2.07470869131"/>
      <point x="287.0" y="155.0" type="curve" smooth="yes"/>
    </contour>
  </outline>
</glyph>
<glyph name="N" format="2">
  <advance height="960" width="590"/>
  <unicode hex="004E"/>
  <anchor x="292.0" y="0.0" name="bottom"/>
  <anchor x="297.0" y="1400.0" name="top"/>
  <outline>
    <contour>
      <point x="470.0" y="1415.0" type="curve" smooth="yes"/>
      <point x="475.0" y="1415.0" type="line" smooth="yes"/>
      <point x="539.0" y="1415.0"/>
      <point x="565.0" y="1389.0"/>
      <point x="565.0" y="1275.0" type="curve" smooth="yes"/>
      <point x="565.0" y="125.0" type="line" smooth="yes"/>
      <point x="565.0" y="11.0"/>
      <point x="529.0" y="-15.0"/>
      <point x="475.0" y="-15.0" type="curve" smooth="yes"/>
      <point x="470.0" y="-15.0" type="line" smooth="yes"/>
      <point x="416.0" y="-15.0"/>
      <point x="382.738201841" y="16.9196781007"/>
      <point x="356.0" y="125.0" type="curve" smooth="yes"/>
      <point x="190.0" y="796.0" type="line"/>
      <point x="210.0" y="796.0" type="line"/>
      <point x="210.0" y="125.0" type="line" smooth="yes"/>
      <point x="210.0" y="11.0"/>
      <point x="174.0" y="-15.0"/>
      <point x="120.0" y="-15.0" type="curve" smooth="yes"/>
      <point x="115.0" y="-15.0" type="line" smooth="yes"/>
      <point x="61.0" y="-15.0"/>
      <point x="25.0" y="11.0"/>
      <point x="25.0" y="125.0" type="curve" smooth="yes"/>
      <point x="25.0" y="1285.0" type="line" smooth="yes"/>
      <point x="25.0" y="1389.0"/>
      <point x="61.0" y="1415.0"/>
      <point x="135.0" y="1415.0" type="curve" smooth="yes"/>
      <point x="140.0" y="1415.0" type="line" smooth="yes"/>
      <point x="214.0" y="1415.0"/>
      <point x="257.780932795" y="1375.93916597"/>
      <point x="277.0" y="1275.0" type="curve" smooth="yes"/>
      <point x="400.0" y="629.0" type="line"/>
      <point x="380.0" y="629.0" type="line"/>
      <point x="380.0" y="1275.0" type="line" smooth="yes"/>
      <point x="380.0" y="1389.0"/>
      <point x="406.0" y="1415.0"/>
    </contour>
  </outline>
</glyph>
<glyph name="P" format="2">
  <advance height="960" width="575"/>
  <unicode hex="0050"/>
  <anchor x="138.0" y="0.0" name="bottom"/>
  <anchor x="322.0" y="1400.0" name="top"/>
  <outline>
    <contour>
      <point x="280.0" y="1225.0" type="line"/>
      <point x="280.0" y="725.0" type="line"/>
      <point x="290.0" y="725.0" type="line" smooth="yes"/>
      <point x="328.0" y="725.0"/>
      <point x="338.0" y="749.0"/>
      <point x="338.0" y="794.0" type="curve" smooth="yes"/>
      <point x="338.0" y="1156.0" type="line" smooth="yes"/>
      <point x="338.0" y="1201.0"/>
      <point x="328.0" y="1225.0"/>
      <point x="290.0" y="1225.0" type="curve" smooth="yes"/>
    </contour>
    <contour>
      <point x="280.0" y="1400.0" type="line" smooth="yes"/>
      <point x="463.0" y="1400.0"/>
      <point x="548.0" y="1326.0"/>
      <point x="548.0" y="1141.0" type="curve" smooth="yes"/>
      <point x="548.0" y="859.0" type="line" smooth="yes"/>
      <point x="548.0" y="674.0"/>
      <point x="464.0" y="600.0"/>
      <point x="320.0" y="600.0" type="curve" smooth="yes"/>
      <point x="280.0" y="600.0" type="line"/>
      <point x="280.0" y="155.0" type="line" smooth="yes"/>
      <point x="280.0" y="11.0"/>
      <point x="244.0" y="-15.0"/>
      <point x="160.0" y="-15.0" type="curve" smooth="yes"/>
      <point x="155.0" y="-15.0" type="line" smooth="yes"/>
      <point x="71.0" y="-15.0"/>
      <point x="35.0" y="11.0"/>
      <point x="35.0" y="155.0" type="curve" smooth="yes"/>
      <point x="35.0" y="1245.0" type="line" smooth="yes"/>
      <point x="35.0" y="1389.0"/>
      <point x="46.0" y="1400.0"/>
      <point x="190.0" y="1400.0" type="curve" smooth="yes"/>
    </contour>
  </outline>
</glyph>
<glyph name="Q" format="2">
  <advance height="960" width="668"/>
  <unicode hex="0051"/>
  <anchor x="312.0" y="0.0" name="bottom"/>
  <anchor x="312.0" y="1400.0" name="top"/>
  <outline>
    <contour>
      <point x="683.0" y="110.0" type="curve" smooth="yes"/>
      <point x="683.0" y="105.0" type="line" smooth="yes"/>
      <point x="683.0" y="21.0"/>
      <point x="658.08276253" y="-8.0"/>
      <point x="602.0" y="-8.0" type="curve" smooth="yes"/>
      <point x="507.0" y="-8.0"/>
      <point x="450.0" y="46.0"/>
      <point x="450.0" y="179.0" type="curve"/>
      <point x="515.0" y="294.0" type="line"/>
      <point x="515.0" y="119.0"/>
      <point x="460.0" y="-18.0"/>
      <point x="272.0" y="-18.0" type="curve" smooth="yes"/>
      <point x="64.0" y="-18.0"/>
      <point x="25.0" y="129.0"/>
      <point x="25.0" y="304.0" type="curve" smooth="yes"/>
      <point x="25.0" y="1096.0" type="line" smooth="yes"/>
      <point x="25.0" y="1271.0"/>
      <point x="68.0" y="1418.0"/>
      <point x="312.0" y="1418.0" type="curve" smooth="yes"/>
      <point x="556.0" y="1418.0"/>
      <point x="600.0" y="1271.0"/>
      <point x="600.0" y="1096.0" type="curve" smooth="yes"/>
      <point x="600.0" y="289.0" type="line" smooth="yes"/>
      <point x="600.0" y="232.0"/>
      <point x="617.101641787" y="219.167570231"/>
      <point x="632.0" y="213.0" type="curve" smooth="yes"/>
      <point x="657.95366726" y="202.255791592"/>
      <point x="683.0" y="183.0"/>
    </contour>
    <contour>
      <point x="350.0" y="264.0" type="curve" smooth="yes"/>
      <point x="350.0" y="1136.0" type="line" smooth="yes"/>
      <point x="350.0" y="1201.0"/>
      <point x="346.0" y="1248.0"/>
      <point x="312.0" y="1248.0" type="curve" smooth="yes"/>
      <point x="278.0" y="1248.0"/>
      <point x="275.0" y="1201.0"/>
      <point x="275.0" y="1136.0" type="curve" smooth="yes"/>
      <point x="275.0" y="264.0" type="line" smooth="yes"/>
      <point x="275.0" y="194.0"/>
      <point x="278.0" y="152.0"/>
      <point x="312.0" y="152.0" type="curve" smooth="yes"/>
      <point x="346.0" y="152.0"/>
      <point x="350.0" y="194.0"/>
    </contour>
  </outline>
</glyph>
<glyph name="R" format="2">
  <advance height="960" width="630"/>
  <unicode hex="0052"/>
  <anchor x="322.0" y="0.0" name="bottom"/>
  <anchor x="322.0" y="1400.0" name="top"/>
  <outline>
    <contour>
      <point x="280.0" y="1225.0" type="line"/>
      <point x="280.0" y="720.0" type="line"/>
      <point x="300.0" y="720.0" type="line" smooth="yes"/>
      <point x="334.0" y="720.0"/>
      <point x="338.0" y="751.0"/>
      <point x="338.0" y="796.0" type="curve" smooth="yes"/>
      <point x="338.0" y="1148.0" type="line" smooth="yes"/>
      <point x="338.0" y="1188.0"/>
      <point x="334.0" y="1225.0"/>
      <point x="300.0" y="1225.0" type="curve" smooth="yes"/>
    </contour>
    <contour>
      <point x="310.0" y="1400.0" type="line" smooth="yes"/>
      <point x="543.0" y="1400.0"/>
      <point x="588.0" y="1296.0"/>
      <point x="588.0" y="1141.0" type="curve" smooth="yes"/>
      <point x="588.0" y="879.0" type="line" smooth="yes"/>
      <point x="588.0" y="709.0"/>
      <point x="474.0" y="640.0"/>
      <point x="310.0" y="640.0" type="curve"/>
      <point x="310.0" y="670.0" type="line"/>
      <point x="488.0" y="670.0"/>
      <point x="591.337974991" y="656.001177613"/>
      <point x="592.0" y="466.0" type="curve" smooth="yes"/>
      <point x="593.0" y="179.0" type="line" smooth="yes"/>
      <point x="593.0" y="152.0"/>
      <point x="599.623139299" y="130.141630549"/>
      <point x="604.685546875" y="114.0" type="curve" smooth="yes"/>
      <point x="608.83984375" y="100.75390625"/>
      <point x="617.0" y="77.83203125"/>
      <point x="617.0" y="51.5" type="curve" smooth="yes"/>
      <point x="617.0" y="49.0" type="line" smooth="yes"/>
      <point x="617.0" y="6.0"/>
      <point x="589.0" y="-15.0"/>
      <point x="515.5" y="-15.0" type="curve" smooth="yes"/>
      <point x="500.5" y="-15.0" type="line" smooth="yes"/>
      <point x="424.4140625" y="-15.0"/>
      <point x="373.228515625" y="0.40625"/>
      <point x="352.888671875" y="69.5" type="curve" smooth="yes"/>
      <point x="344.994140625" y="96.31640625"/>
      <point x="338.0" y="120.0"/>
      <point x="338.0" y="164.0" type="curve" smooth="yes"/>
      <point x="338.0" y="536.0" type="line" smooth="yes"/>
      <point x="338.0" y="576.0"/>
      <point x="323.0" y="595.0"/>
      <point x="295.0" y="595.0" type="curve" smooth="yes"/>
      <point x="280.0" y="595.0" type="line"/>
      <point x="280.0" y="155.0" type="line" smooth="yes"/>
      <point x="280.0" y="11.0"/>
      <point x="234.0" y="-15.0"/>
      <point x="160.0" y="-15.0" type="curve" smooth="yes"/>
      <point x="155.0" y="-15.0" type="line" smooth="yes"/>
      <point x="81.0" y="-15.0"/>
      <point x="35.0" y="11.0"/>
      <point x="35.0" y="155.0" type="curve" smooth="yes"/>
      <point x="35.0" y="1245.0" type="line" smooth="yes"/>
      <point x="35.0" y="1389.0"/>
      <point x="46.0" y="1400.0"/>
      <point x="190.0" y="1400.0" type="curve" smooth="yes"/>
    </contour>
  </outline>
</glyph>
<glyph name="S" format="2">
  <advance height="960" width="489"/>
  <unicode hex="0053"/>
  <anchor x="242.0" y="0.0" name="bottom"/>
  <anchor x="201.0" y="1400.0" name="top"/>
  <outline>
    <contour>
      <point x="104.0" y="539.0" type="curve" smooth="yes"/>
      <point x="110.0" y="539.0" type="line" smooth="yes"/>
      <point x="171.0" y="539.0"/>
      <point x="199.0" y="514.0"/>
      <point x="199.0" y="420.0" type="curve" smooth="yes"/>
      <point x="199.0" y="352.099609375"/>
      <point x="199.0" y="372.100069464"/>
      <point x="199.044420408" y="285.0" type="curve" smooth="yes"/>
      <point x="199.087886267" y="199.771622774"/>
      <point x="204.069335938" y="172.0"/>
      <point x="223.0" y="172.0" type="curve" smooth="yes"/>
      <point x="247.0" y="172.0"/>
      <point x="249.0" y="208.0"/>
      <point x="249.0" y="314.0" type="curve" smooth="yes"/>
      <point x="249.0" y="465.921875"/>
      <point x="197.29296875" y="558.216796875"/>
      <point x="148.334960938" y="645.259765625" type="curve" smooth="yes"/>
      <point x="86.845703125" y="754.58203125"/>
      <point x="16.0" y="868.997070312"/>
      <point x="16.0" y="1116.0" type="curve" smooth="yes"/>
      <point x="16.0" y="1321.0"/>
      <point x="89.0" y="1418.0"/>
      <point x="255.0" y="1418.0" type="curve" smooth="yes"/>
      <point x="422.0" y="1418.0"/>
      <point x="475.0" y="1308.0"/>
      <point x="475.0" y="1150.0" type="curve" smooth="yes"/>
      <point x="475.0" y="1016.0" type="line" smooth="yes"/>
      <point x="475.0" y="912.0"/>
      <point x="442.0" y="887.0"/>
      <point x="389.0" y="887.0" type="curve" smooth="yes"/>
      <point x="385.0" y="887.0" type="line" smooth="yes"/>
      <point x="332.0" y="887.0"/>
      <point x="299.0" y="912.0"/>
      <point x="299.0" y="1016.0" type="curve" smooth="yes"/>
      <point x="299.0" y="1110.26171875"/>
      <point x="299.0" y="1060.26171875"/>
      <point x="298.940429688" y="1139.0" type="curve" smooth="yes"/>
      <point x="298.878664399" y="1220.63953648"/>
      <point x="294.771484375" y="1238.0"/>
      <point x="278.0" y="1238.0" type="curve" smooth="yes"/>
      <point x="262.0" y="1238.0"/>
      <point x="256.0" y="1211.0"/>
      <point x="256.0" y="1132.0" type="curve" smooth="yes"/>
      <point x="256.0" y="952.244140625"/>
      <point x="316.649414062" y="839.1875"/>
      <point x="369.934570312" y="752.703125" type="curve" smooth="yes"/>
      <point x="431.80686473" y="652.281411167"/>
      <point x="489.0" y="552.170898438"/>
      <point x="489.0" y="314.0" type="curve" smooth="yes"/>
      <point x="489.0" y="85.0"/>
      <point x="410.0" y="-18.0"/>
      <point x="250.0" y="-18.0" type="curve" smooth="yes"/>
      <point x="86.0" y="-18.0"/>
      <point x="15.0" y="52.0"/>
      <point x="15.0" y="240.0" type="curve" smooth="yes"/>
      <point x="15.0" y="420.0" type="line" smooth="yes"/>
      <point x="15.0" y="514.0"/>
      <point x="43.0" y="539.0"/>
    </contour>
  </outline>
</glyph>
<glyph name="T" format="2">
  <advance height="960" width="545"/>
  <unicode hex="0054"/>
  <anchor x="253.0" y="0.0" name="bottom"/>
  <anchor x="272.0" y="1400.0" name="top"/>
  <outline>
    <contour>
      <point x="110.0" y="1400.0" type="curve" smooth="yes"/>
      <point x="435.0" y="1400.0" type="line" smooth="yes"/>
      <point x="523.5" y="1400.0"/>
      <point x="560.0" y="1368.5"/>
      <point x="560.0" y="1315.0" type="curve" smooth="yes"/>
      <point x="560.0" y="1310.0" type="line" smooth="yes"/>
      <point x="560.0" y="1256.5"/>
      <point x="523.5" y="1225.0"/>
      <point x="435.0" y="1225.0" type="curve" smooth="yes"/>
      <point x="395.0" y="1225.0" type="line"/>
      <point x="395.0" y="115.0" type="line" smooth="yes"/>
      <point x="395.0" y="26.5"/>
      <point x="348.5" y="-15.0"/>
      <point x="275.0" y="-15.0" type="curve" smooth="yes"/>
      <point x="270.0" y="-15.0" type="line" smooth="yes"/>
      <point x="196.5" y="-15.0"/>
      <point x="150.0" y="26.5"/>
      <point x="150.0" y="115.0" type="curve" smooth="yes"/>
      <point x="150.0" y="1225.0" type="line"/>
      <point x="110.0" y="1225.0" type="line" smooth="yes"/>
      <point x="21.5" y="1225.0"/>
      <point x="-15.0" y="1256.5"/>
      <point x="-15.0" y="1310.0" type="curve" smooth="yes"/>
      <point x="-15.0" y="1315.0" type="line" smooth="yes"/>
      <point x="-15.0" y="1368.5"/>
      <point x="21.5" y="1400.0"/>
    </contour>
  </outline>
</glyph>
<glyph name="U" format="2">
  <advance height="960" width="555"/>
  <unicode hex="0055"/>
  <anchor x="300.0" y="0.0" name="bottom"/>
  <anchor x="348.0" y="0.0" name="ogonek"/>
  <anchor x="300.0" y="1400.0" name="top"/>
  <outline>
    <contour>
      <point x="335.0" y="254.0" type="curve" smooth="yes"/>
      <point x="335.0" y="1265.0" type="line" smooth="yes"/>
      <point x="335.0" y="1369.0"/>
      <point x="361.0" y="1415.0"/>
      <point x="425.0" y="1415.0" type="curve" smooth="yes"/>
      <point x="430.0" y="1415.0" type="line" smooth="yes"/>
      <point x="494.0" y="1415.0"/>
      <point x="520.0" y="1369.0"/>
      <point x="520.0" y="1265.0" type="curve" smooth="yes"/>
      <point x="520.0" y="299.0" type="line" smooth="yes"/>
      <point x="520.0" y="139.0"/>
      <point x="496.0" y="-18.0"/>
      <point x="278.0" y="-18.0" type="curve" smooth="yes"/>
      <point x="44.0" y="-18.0"/>
      <point x="30.0" y="104.0"/>
      <point x="30.0" y="294.0" type="curve" smooth="yes"/>
      <point x="30.0" y="1245.0" type="line" smooth="yes"/>
      <point x="30.0" y="1389.0"/>
      <point x="76.0" y="1415.0"/>
      <point x="150.0" y="1415.0" type="curve" smooth="yes"/>
      <point x="160.0" y="1415.0" type="line" smooth="yes"/>
      <point x="234.0" y="1415.0"/>
      <point x="280.0" y="1389.0"/>
      <point x="280.0" y="1245.0" type="curve" smooth="yes"/>
      <point x="280.0" y="289.0" type="line" smooth="yes"/>
      <point x="280.0" y="174.0"/>
      <point x="284.0" y="152.0"/>
      <point x="307.0" y="152.0" type="curve" smooth="yes"/>
      <point x="330.0" y="152.0"/>
      <point x="335.0" y="179.0"/>
    </contour>
  </outline>
</glyph>
<glyph name="V" format="2">
  <advance height="960" width="559"/>
  <unicode hex="0056"/>
  <anchor x="290.396" y="0.0" name="bottom"/>
  <anchor x="290.396" y="1400.0" name="top"/>
  <outline>
    <contour>
      <point x="292.395507812" y="311.0" type="line"/>
      <point x="363.395507812" y="1275.0" type="line" smooth="yes"/>
      <point x="370.873046875" y="1376.52246094"/>
      <point x="394.395507812" y="1415.0"/>
      <point x="468.395507812" y="1415.0" type="curve" smooth="yes"/>
      <point x="478.395507812" y="1415.0" type="line" smooth="yes"/>
      <point x="550.395507812" y="1415.0"/>
      <point x="570.610351562" y="1379.00683594"/>
      <point x="559.395507812" y="1275.0" type="curve" smooth="yes"/>
      <point x="435.395507812" y="125.0" type="line" smooth="yes"/>
      <point x="426.415039062" y="41.7529296875"/>
      <point x="388.395507812" y="-15.0"/>
      <point x="296.395507812" y="-15.0" type="curve" smooth="yes"/>
      <point x="246.395507812" y="-15.0" type="line" smooth="yes"/>
      <point x="153.395507812" y="-15.0"/>
      <point x="116.3515625" y="31.7646484375"/>
      <point x="107.395507812" y="125.0" type="curve" smooth="yes"/>
      <point x="-2.6044921875" y="1275.0" type="line" smooth="yes"/>
      <point x="-12.177734375" y="1375.08398438"/>
      <point x="33.3955078125" y="1415.0"/>
      <point x="108.395507812" y="1415.0" type="curve" smooth="yes"/>
      <point x="118.395507812" y="1415.0" type="line" smooth="yes"/>
      <point x="190.395507812" y="1415.0"/>
      <point x="245.826171875" y="1379.88769531"/>
      <point x="250.395507812" y="1275.0" type="curve" smooth="yes"/>
    </contour>
  </outline>
</glyph>
<glyph name="W" format="2">
  <advance height="960" width="817"/>
  <unicode hex="0057"/>
  <anchor x="416.0" y="0.0" name="bottom"/>
  <anchor x="436.0" y="1400.0" name="top"/>
  <outline>
    <contour>
      <point x="264.0" y="495.0" type="line"/>
      <point x="333.0" y="1245.0" type="line" smooth="yes"/>
      <point x="346.053975154" y="1386.89103429"/>
      <point x="380.0" y="1415.0"/>
      <point x="434.0" y="1415.0" type="curve" smooth="yes"/>
      <point x="439.0" y="1415.0" type="line" smooth="yes"/>
      <point x="493.0" y="1415.0"/>
      <point x="526.24721108" y="1386.94408537"/>
      <point x="539.0" y="1245.0" type="curve" smooth="yes"/>
      <point x="608.0" y="477.0" type="line"/>
      <point x="657.0" y="1245.0" type="line" smooth="yes"/>
      <point x="666.090762801" y="1387.48379248"/>
      <point x="695.0" y="1415.0"/>
      <point x="749.0" y="1415.0" type="curve" smooth="yes"/>
      <point x="754.0" y="1415.0" type="line" smooth="yes"/>
      <point x="808.0" y="1415.0"/>
      <point x="845.607276507" y="1386.79010814"/>
      <point x="832.0" y="1245.0" type="curve" smooth="yes"/>
      <point x="724.0" y="115.0" type="line" smooth="yes"/>
      <point x="714.141099705" y="11.8466913556"/>
      <point x="685.0" y="-15.0"/>
      <point x="611.0" y="-15.0" type="curve" smooth="yes"/>
      <point x="601.0" y="-15.0" type="line" smooth="yes"/>
      <point x="528.0" y="-15.0"/>
      <point x="479.527341" y="11.7871391692"/>
      <point x="470.0" y="115.0" type="curve" smooth="yes"/>
      <point x="410.0" y="765.0" type="line"/>
      <point x="353.0" y="115.0" type="line" smooth="yes"/>
      <point x="343.941965806" y="11.7066276139"/>
      <point x="300.0" y="-15.0"/>
      <point x="226.0" y="-15.0" type="curve" smooth="yes"/>
      <point x="224.0" y="-15.0" type="line" smooth="yes"/>
      <point x="150.0" y="-15.0"/>
      <point x="106.589552963" y="11.7981443019"/>
      <point x="97.0" y="115.0" type="curve" smooth="yes"/>
      <point x="-8.0" y="1245.0" type="line" smooth="yes"/>
      <point x="-20.2613757533" y="1376.95575811"/>
      <point x="27.0" y="1415.0"/>
      <point x="101.0" y="1415.0" type="curve" smooth="yes"/>
      <point x="109.0" y="1415.0" type="line" smooth="yes"/>
      <point x="183.0" y="1415.0"/>
      <point x="226.333827841" y="1377.80090999"/>
      <point x="232.0" y="1245.0" type="curve" smooth="yes"/>
    </contour>
  </outline>
</glyph>
<glyph name="X" format="2">
  <advance height="960" width="616"/>
  <unicode hex="0058"/>
  <anchor x="316.0" y="0.0" name="bottom"/>
  <anchor x="316.0" y="1400.0" name="top"/>
  <outline>
    <contour>
      <point x="476.0" y="1415.0" type="curve" smooth="yes"/>
      <point x="488.0" y="1415.0" type="line" smooth="yes"/>
      <point x="562.0" y="1415.0"/>
      <point x="598.342838631" y="1343.96591915"/>
      <point x="575.0" y="1245.0" type="curve" smooth="yes"/>
      <point x="454.0" y="732.0" type="line"/>
      <point x="598.0" y="155.0" type="line" smooth="yes"/>
      <point x="627.252788523" y="37.7857015417"/>
      <point x="574.0" y="-15.0"/>
      <point x="490.0" y="-15.0" type="curve" smooth="yes"/>
      <point x="480.0" y="-15.0" type="line" smooth="yes"/>
      <point x="396.0" y="-15.0"/>
      <point x="343.254034785" y="32.0220080535"/>
      <point x="331.0" y="155.0" type="curve" smooth="yes"/>
      <point x="303.0" y="436.0" type="line"/>
      <point x="255.0" y="155.0" type="line" smooth="yes"/>
      <point x="234.330551091" y="33.997601176"/>
      <point x="190.0" y="-15.0"/>
      <point x="106.0" y="-15.0" type="curve" smooth="yes"/>
      <point x="99.0" y="-15.0" type="line" smooth="yes"/>
      <point x="15.0" y="-15.0"/>
      <point x="-9.62517636318" y="31.5423900583"/>
      <point x="28.0" y="155.0" type="curve" smooth="yes"/>
      <point x="188.0" y="680.0" type="line"/>
      <point x="37.0" y="1245.0" type="line" smooth="yes"/>
      <point x="10.9249004462" y="1342.56576985"/>
      <point x="64.0" y="1415.0"/>
      <point x="138.0" y="1415.0" type="curve" smooth="yes"/>
      <point x="148.0" y="1415.0" type="line" smooth="yes"/>
      <point x="222.0" y="1415.0"/>
      <point x="281.972961017" y="1348.03389549"/>
      <point x="293.0" y="1245.0" type="curve" smooth="yes"/>
      <point x="325.0" y="946.0" type="line"/>
      <point x="354.0" y="1245.0" type="line" smooth="yes"/>
      <point x="364.011591055" y="1348.22295605"/>
      <point x="402.0" y="1415.0"/>
    </contour>
  </outline>
</glyph>
<glyph name="Y" format="2">
  <advance height="960" width="645"/>
  <unicode hex="0059"/>
  <anchor x="325.0" y="0.0" name="bottom"/>
  <anchor x="340.0" y="1400.0" name="top"/>
  <outline>
    <contour>
      <point x="535.0" y="1415.0" type="curve" smooth="yes"/>
      <point x="538.0" y="1415.0" type="line" smooth="yes"/>
      <point x="602.0" y="1415.0"/>
      <point x="637.130023207" y="1364.8110089"/>
      <point x="619.0" y="1295.0" type="curve" smooth="yes"/>
      <point x="445.0" y="625.0" type="line"/>
      <point x="445.0" y="155.0" type="line" smooth="yes"/>
      <point x="445.0" y="11.0"/>
      <point x="399.0" y="-15.0"/>
      <point x="325.0" y="-15.0" type="curve" smooth="yes"/>
      <point x="320.0" y="-15.0" type="line" smooth="yes"/>
      <point x="246.0" y="-15.0"/>
      <point x="200.0" y="11.0"/>
      <point x="200.0" y="155.0" type="curve" smooth="yes"/>
      <point x="200.0" y="625.0" type="line"/>
      <point x="27.0" y="1295.0" type="line" smooth="yes"/>
      <point x="8.89932731666" y="1365.10087109"/>
      <point x="74.0" y="1415.0"/>
      <point x="148.0" y="1415.0" type="curve" smooth="yes"/>
      <point x="155.0" y="1415.0" type="line" smooth="yes"/>
      <point x="229.0" y="1415.0"/>
      <point x="290.285078335" y="1377.87322225"/>
      <point x="301.0" y="1295.0" type="curve" smooth="yes"/>
      <point x="365.0" y="800.0" type="line"/>
      <point x="429.0" y="1295.0" type="line" smooth="yes"/>
      <point x="438.443250469" y="1368.03764034"/>
      <point x="471.0" y="1415.0"/>
    </contour>
  </outline>
</glyph>
<glyph name="Z" format="2">
  <advance height="960" width="535"/>
  <unicode hex="005A"/>
  <anchor x="284.0" y="0.0" name="bottom"/>
  <anchor x="263.0" y="1400.0" name="top"/>
  <outline>
    <contour>
      <point x="1.0" y="155.0" type="curve" smooth="yes"/>
      <point x="254.0" y="1225.0" type="line"/>
      <point x="186.0" y="1225.0" type="line" smooth="yes"/>
      <point x="42.0" y="1225.0"/>
      <point x="16.0" y="1246.0"/>
      <point x="16.0" y="1310.0" type="curve" smooth="yes"/>
      <point x="16.0" y="1315.0" type="line" smooth="yes"/>
      <point x="16.0" y="1379.0"/>
      <point x="42.0" y="1400.0"/>
      <point x="186.0" y="1400.0" type="curve" smooth="yes"/>
      <point x="381.0" y="1400.0" type="line" smooth="yes"/>
      <point x="505.0" y="1400.0"/>
      <point x="526.227801854" y="1363.42986985"/>
      <point x="499.0" y="1245.0" type="curve" smooth="yes"/>
      <point x="253.0" y="175.0" type="line"/>
      <point x="371.0" y="175.0" type="line" smooth="yes"/>
      <point x="515.0" y="175.0"/>
      <point x="541.0" y="154.0"/>
      <point x="541.0" y="90.0" type="curve" smooth="yes"/>
      <point x="541.0" y="85.0" type="line" smooth="yes"/>
      <point x="541.0" y="21.0"/>
      <point x="515.0" y="-1.76349139077e-14"/>
      <point x="371.0" y="0.0" type="curve" smooth="yes"/>
      <point x="116.0" y="0.0" type="line" smooth="yes"/>
      <point x="-18.0" y="0.0"/>
      <point x="-29.1653532234" y="27.4232096874"/>
    </contour>
  </outline>
</glyph>
<glyph name="bracketleft" format="2">
  <advance height="1920" width="380"/>
  <unicode hex="005B"/>
  <outline>
    <contour>
      <point x="235.0" y="1475.0" type="line"/>
      <point x="235.0" y="-235.0" type="line"/>
      <point x="275.0" y="-235.0" type="line" smooth="yes"/>
      <point x="329.0" y="-235.0"/>
      <point x="369.0" y="-246.0"/>
      <point x="369.0" y="-290.0" type="curve" smooth="yes"/>
      <point x="369.0" y="-305.0" type="line" smooth="yes"/>
      <point x="369.0" y="-349.0"/>
      <point x="329.0" y="-360.0"/>
      <point x="275.0" y="-360.0" type="curve" smooth="yes"/>
      <point x="139.0" y="-360.0" type="line" smooth="yes"/>
      <point x="61.0" y="-360.0"/>
      <point x="35.0" y="-333.0"/>
      <point x="35.0" y="-255.0" type="curve" smooth="yes"/>
      <point x="35.0" y="1495.0" type="line" smooth="yes"/>
      <point x="35.0" y="1572.87106331"/>
      <point x="61.0" y="1600.0"/>
      <point x="139.0" y="1600.0" type="curve" smooth="yes"/>
      <point x="275.0" y="1600.0" type="line" smooth="yes"/>
      <point x="329.0" y="1600.0"/>
      <point x="369.0" y="1589.0"/>
      <point x="369.0" y="1545.0" type="curve" smooth="yes"/>
      <point x="369.0" y="1530.0" type="line" smooth="yes"/>
      <point x="369.0" y="1486.0"/>
      <point x="329.0" y="1475.0"/>
      <point x="275.0" y="1475.0" type="curve" smooth="yes"/>
    </contour>
  </outline>
</glyph>
<glyph name="backslash" format="2">
  <advance height="2048" width="519"/>
  <unicode hex="005C"/>
  <outline>
    <contour>
      <point x="489.0" y="5.0" type="line" smooth="yes"/>
      <point x="506.0" y="-76.0"/>
      <point x="473.0" y="-115.0"/>
      <point x="419.0" y="-115.0" type="curve" smooth="yes"/>
      <point x="417.0" y="-115.0" type="line" smooth="yes"/>
      <point x="364.0" y="-115.0"/>
      <point x="326.0" y="-76.0"/>
      <point x="309.0" y="5.0" type="curve" smooth="yes"/>
      <point x="43.0" y="1295.0" type="line" smooth="yes"/>
      <point x="26.28515625" y="1376.05859375"/>
      <point x="59.0" y="1415.0"/>
      <point x="113.0" y="1415.0" type="curve" smooth="yes"/>
      <point x="115.0" y="1415.0" type="line" smooth="yes"/>
      <point x="168.0" y="1415.0"/>
      <point x="206.28515625" y="1376.05859375"/>
      <point x="223.0" y="1295.0" type="curve" smooth="yes"/>
    </contour>
  </outline>
</glyph>
<glyph name="bracketright" format="2">
  <advance height="1920" width="380"/>
  <unicode hex="005D"/>
  <outline>
    <contour>
      <point x="145.0" y="-235.0" type="line"/>
      <point x="145.0" y="1475.0" type="line"/>
      <point x="105.0" y="1475.0" type="line" smooth="yes"/>
      <point x="51.0" y="1475.0"/>
      <point x="11.0" y="1486.0"/>
      <point x="11.0" y="1530.0" type="curve" smooth="yes"/>
      <point x="11.0" y="1545.0" type="line" smooth="yes"/>
      <point x="11.0" y="1589.0"/>
      <point x="51.0" y="1600.0"/>
      <point x="105.0" y="1600.0" type="curve" smooth="yes"/>
      <point x="241.0" y="1600.0" type="line" smooth="yes"/>
      <point x="319.0" y="1600.0"/>
      <point x="345.0" y="1573.0"/>
      <point x="345.0" y="1495.0" type="curve" smooth="yes"/>
      <point x="345.0" y="-255.0" type="line" smooth="yes"/>
      <point x="345.0" y="-332.87109375"/>
      <point x="319.0" y="-360.0"/>
      <point x="241.0" y="-360.0" type="curve" smooth="yes"/>
      <point x="105.0" y="-360.0" type="line" smooth="yes"/>
      <point x="51.0" y="-360.0"/>
      <point x="11.0" y="-349.0"/>
      <point x="11.0" y="-305.0" type="curve" smooth="yes"/>
      <point x="11.0" y="-290.0" type="line" smooth="yes"/>
      <point x="11.0" y="-246.0"/>
      <point x="51.0" y="-235.0"/>
      <point x="105.0" y="-235.0" type="curve" smooth="yes"/>
    </contour>
  </outline>
</glyph>
<glyph name="asciicircum" format="2">
  <advance height="1920" width="412"/>
  <unicode hex="005E"/>
  <outline>
    <contour>
      <point x="205.0" y="1131.0" type="line"/>
      <point x="183.0" y="811.0" type="line" smooth="yes"/>
      <point x="177.856459702" y="736.184868395"/>
      <point x="139.0" y="715.0"/>
      <point x="85.0" y="715.0" type="curve" smooth="yes"/>
      <point x="80.0" y="715.0" type="line" smooth="yes"/>
      <point x="26.0" y="715.0"/>
      <point x="-20.8099355482" y="741.201322277"/>
      <point x="-6.0" y="811.0" type="curve" smooth="yes"/>
      <point x="102.0" y="1320.0" type="line" smooth="yes"/>
      <point x="115.25941384" y="1382.49112634"/>
      <point x="146.0" y="1416.0"/>
      <point x="200.0" y="1416.0" type="curve" smooth="yes"/>
      <point x="210.0" y="1416.0" type="line" smooth="yes"/>
      <point x="264.0" y="1416.0"/>
      <point x="294.74058616" y="1382.49112634"/>
      <point x="308.0" y="1320.0" type="curve" smooth="yes"/>
      <point x="416.0" y="811.0" type="line" smooth="yes"/>
      <point x="430.809935548" y="741.201322277"/>
      <point x="386.0" y="715.0"/>
      <point x="330.0" y="715.0" type="curve" smooth="yes"/>
      <point x="325.0" y="715.0" type="line" smooth="yes"/>
      <point x="270.0" y="715.0"/>
      <point x="232.143540298" y="736.184868395"/>
      <point x="227.0" y="811.0" type="curve" smooth="yes"/>
    </contour>
  </outline>
</glyph>
<glyph name="underscore" format="2">
  <advance height="1920" width="450"/>
  <unicode hex="005F"/>
  <outline>
    <contour>
      <point x="-15.0" y="-97.0" type="curve" smooth="yes"/>
      <point x="-15.0" y="-80.0" type="line" smooth="yes"/>
      <point x="-15.0" y="-26.0"/>
      <point x="26.0" y="0.0"/>
      <point x="80.0" y="0.0" type="curve" smooth="yes"/>
      <point x="370.0" y="0.0" type="line" smooth="yes"/>
      <point x="424.0" y="0.0"/>
      <point x="465.0" y="-26.0"/>
      <point x="465.0" y="-80.0" type="curve" smooth="yes"/>
      <point x="465.0" y="-97.0" type="line" smooth="yes"/>
      <point x="465.0" y="-151.0"/>
      <point x="424.0" y="-177.0"/>
      <point x="370.0" y="-177.0" type="curve" smooth="yes"/>
      <point x="80.0" y="-177.0" type="line" smooth="yes"/>
      <point x="26.0" y="-177.0"/>
      <point x="-15.0" y="-151.0"/>
    </contour>
  </outline>
</glyph>
<glyph name="grave" format="2">
  <advance width="386"/>
  <unicode hex="0060"/>
  <outline>
    <contour>
      <point x="318.0" y="1054.0" type="curve" smooth="yes"/>
      <point x="314.0" y="1054.0" type="line" smooth="yes"/>
      <point x="270.0" y="1054.0"/>
      <point x="215.0" y="1121.0"/>
      <point x="158.0" y="1204.0" type="curve" smooth="yes"/>
      <point x="140.0" y="1230.0" type="line" smooth="yes"/>
      <point x="66.0" y="1339.0"/>
      <point x="123.0" y="1430.0"/>
      <point x="201.0" y="1430.0" type="curve" smooth="yes"/>
      <point x="206.0" y="1430.0" type="line" smooth="yes"/>
      <point x="284.0" y="1430.0"/>
      <point x="318.0" y="1390.0"/>
      <point x="332.0" y="1290.0" type="curve" smooth="yes"/>
      <point x="342.0" y="1214.0" type="line" smooth="yes"/>
      <point x="357.0" y="1105.0"/>
      <point x="346.0" y="1054.0"/>
    </contour>
  </outline>
</glyph>
<glyph name="a" format="2">
  <advance height="960" width="550"/>
  <unicode hex="0061"/>
  <anchor x="241.0" y="0.0" name="bottom"/>
  <anchor x="443.0" y="0.0" name="ogonek"/>
  <anchor x="295.0" y="1050.0" name="top"/>
  <outline>
    <contour>
      <point x="246.0" y="330.0" type="curve" smooth="yes"/>
      <point x="246.0" y="198.0"/>
      <point x="259.0" y="158.0"/>
      <point x="273.0" y="158.0" type="curve" smooth="yes"/>
      <point x="290.0" y="158.0"/>
      <point x="292.0" y="186.0"/>
      <point x="292.0" y="234.0" type="curve"/>
      <point x="322.0" y="234.0" type="line"/>
      <point x="322.0" y="132.0"/>
      <point x="267.0" y="-18.0"/>
      <point x="161.0" y="-18.0" type="curve" smooth="yes"/>
      <point x="76.0" y="-18.0"/>
      <point x="8.0" y="28.0"/>
      <point x="8.0" y="255.0" type="curve" smooth="yes"/>
      <point x="8.0" y="491.0"/>
      <point x="77.0" y="566.0"/>
      <point x="208.0" y="627.0" type="curve" smooth="yes"/>
      <point x="264.0" y="653.0"/>
      <point x="292.0" y="678.0"/>
      <point x="292.0" y="734.0" type="curve"/>
      <point x="312.0" y="584.0" type="line"/>
      <point x="305.0" y="562.0"/>
      <point x="292.0" y="548.0"/>
      <point x="281.0" y="535.0" type="curve" smooth="yes"/>
      <point x="257.0" y="507.0"/>
      <point x="246.0" y="460.0"/>
    </contour>
    <contour>
      <point x="292.0" y="129.0" type="curve" smooth="yes"/>
      <point x="292.0" y="814.0" type="line" smooth="yes"/>
      <point x="292.0" y="874.0"/>
      <point x="294.0" y="907.0"/>
      <point x="277.0" y="907.0" type="curve" smooth="yes"/>
      <point x="258.0" y="907.0"/>
      <point x="259.0" y="882.01171875"/>
      <point x="256.0" y="796.0" type="curve" smooth="yes"/>
      <point x="253.106445312" y="713.05078125"/>
      <point x="233.0" y="676.0"/>
      <point x="150.0" y="676.0" type="curve" smooth="yes"/>
      <point x="147.0" y="676.0" type="line" smooth="yes"/>
      <point x="63.0" y="676.0"/>
      <point x="38.4520295566" y="713.673296705"/>
      <point x="49.0" y="796.0" type="curve" smooth="yes"/>
      <point x="69.0" y="952.099609375"/>
      <point x="134.0" y="1067.0"/>
      <point x="297.0" y="1067.0" type="curve" smooth="yes"/>
      <point x="467.0" y="1067.0"/>
      <point x="532.0" y="975.0"/>
      <point x="532.0" y="761.0" type="curve" smooth="yes"/>
      <point x="532.0" y="139.0" type="line" smooth="yes"/>
      <point x="532.0" y="122.0"/>
      <point x="532.784179688" y="89.9443359375"/>
      <point x="536.0" y="78.0" type="curve" smooth="yes"/>
      <point x="550.0" y="26.0"/>
      <point x="510.0" y="-15.0"/>
      <point x="437.0" y="-15.0" type="curve" smooth="yes"/>
      <point x="435.0" y="-15.0" type="line" smooth="yes"/>
      <point x="363.0" y="-15.0"/>
      <point x="316.0" y="16.0"/>
      <point x="304.0" y="48.0" type="curve" smooth="yes"/>
      <point x="298.0" y="65.0"/>
      <point x="292.0" y="81.0"/>
    </contour>
  </outline>
</glyph>
<glyph name="b" format="2">
  <advance height="1920" width="590"/>
  <unicode hex="0062"/>
  <outline>
    <contour>
      <point x="145.0" y="1465.0" type="curve" smooth="yes"/>
      <point x="150.0" y="1465.0" type="line" smooth="yes"/>
      <point x="224.0" y="1465.0"/>
      <point x="270.0" y="1424.0"/>
      <point x="270.0" y="1340.0" type="curve" smooth="yes"/>
      <point x="270.0" y="165.0" type="line"/>
      <point x="157.0" y="30.0" type="line" smooth="yes"/>
      <point x="134.0" y="3.0"/>
      <point x="113.0" y="-15.0"/>
      <point x="85.0" y="-15.0" type="curve" smooth="yes"/>
      <point x="79.0" y="-15.0" type="line" smooth="yes"/>
      <point x="45.0" y="-15.0"/>
      <point x="25.0" y="12.0"/>
      <point x="25.0" y="90.0" type="curve" smooth="yes"/>
      <point x="25.0" y="1340.0" type="line" smooth="yes"/>
      <point x="25.0" y="1424.0"/>
      <point x="71.0" y="1465.0"/>
    </contour>
    <contour>
      <point x="240.0" y="801.0" type="line"/>
      <point x="240.0" y="946.0"/>
      <point x="312.0" y="1067.0"/>
      <point x="410.0" y="1067.0" type="curve" smooth="yes"/>
      <point x="518.0" y="1067.0"/>
      <point x="570.0" y="997.0"/>
      <point x="570.0" y="827.0" type="curve" smooth="yes"/>
      <point x="570.0" y="224.0" type="line" smooth="yes"/>
      <point x="570.0" y="64.0"/>
      <point x="502.0" y="-18.0"/>
      <point x="354.0" y="-18.0" type="curve" smooth="yes"/>
      <point x="230.0" y="-18.0"/>
      <point x="145.0" y="63.0"/>
      <point x="145.0" y="208.0" type="curve"/>
      <point x="270.0" y="244.0" type="line"/>
      <point x="270.0" y="174.0"/>
      <point x="276.0" y="152.0"/>
      <point x="297.0" y="152.0" type="curve" smooth="yes"/>
      <point x="321.0" y="152.0"/>
      <point x="325.0" y="179.0"/>
      <point x="325.0" y="234.0" type="curve" smooth="yes"/>
      <point x="325.0" y="817.0" type="line" smooth="yes"/>
      <point x="325.0" y="872.0"/>
      <point x="321.0" y="897.0"/>
      <point x="297.0" y="897.0" type="curve" smooth="yes"/>
      <point x="276.0" y="897.0"/>
      <point x="270.0" y="862.0"/>
      <point x="270.0" y="807.0" type="curve"/>
    </contour>
  </outline>
</glyph>
<glyph name="c" format="2">
  <advance height="960" width="479"/>
  <unicode hex="0063"/>
  <anchor x="252.0" y="0.0" name="bottom"/>
  <anchor x="249.0" y="1050.0" name="top"/>
  <outline>
    <contour>
      <point x="464.0" y="364.0" type="curve" smooth="yes"/>
      <point x="464.0" y="179.376797077"/>
      <point x="452.536132812" y="88.564453125"/>
      <point x="395.971679688" y="32.0" type="curve" smooth="yes"/>
      <point x="359.46875" y="-4.5029296875"/>
      <point x="305.45313997" y="-18.0"/>
      <point x="237.0" y="-18.0" type="curve" smooth="yes"/>
      <point x="102.0" y="-18.0"/>
      <point x="20.0" y="76.0"/>
      <point x="20.0" y="224.0" type="curve" smooth="yes"/>
      <point x="20.0" y="827.0" type="line" smooth="yes"/>
      <point x="20.0" y="975.0"/>
      <point x="90.0" y="1067.0"/>
      <point x="240.0" y="1067.0" type="curve" smooth="yes"/>
      <point x="314.833468758" y="1067.0"/>
      <point x="364.276367188" y="1046.76953125"/>
      <point x="390.046875" y="1021.0" type="curve" smooth="yes"/>
      <point x="418.614257812" y="992.434570312"/>
      <point x="460.0" y="951.046442738"/>
      <point x="460.0" y="697.0" type="curve" smooth="yes"/>
      <point x="460.0" y="634.0"/>
      <point x="439.0" y="598.0"/>
      <point x="385.0" y="598.0" type="curve" smooth="yes"/>
      <point x="380.0" y="598.0" type="line" smooth="yes"/>
      <point x="327.0" y="598.0"/>
      <point x="304.0" y="635.0"/>
      <point x="304.0" y="697.0" type="curve" smooth="yes"/>
      <point x="304.0" y="790.423390593"/>
      <point x="305.0" y="858.428710938"/>
      <point x="293.428710938" y="870.0" type="curve" smooth="yes"/>
      <point x="291.766601562" y="871.662109375"/>
      <point x="289.427734375" y="873.0"/>
      <point x="286.0" y="873.0" type="curve" smooth="yes"/>
      <point x="267.0" y="873.0"/>
      <point x="265.0" y="842.0"/>
      <point x="265.0" y="767.0" type="curve" smooth="yes"/>
      <point x="265.0" y="284.0" type="line" smooth="yes"/>
      <point x="265.0" y="212.0"/>
      <point x="265.0" y="178.0"/>
      <point x="285.0" y="178.0" type="curve" smooth="yes"/>
      <point x="289.152036859" y="178.0"/>
      <point x="292.0" y="179.4296875"/>
      <point x="294.5703125" y="182.0" type="curve" smooth="yes"/>
      <point x="306.0" y="193.4296875"/>
      <point x="309.0" y="258.647607986"/>
      <point x="309.0" y="365.0" type="curve" smooth="yes"/>
      <point x="309.0" y="427.0"/>
      <point x="332.0" y="453.0"/>
      <point x="385.0" y="453.0" type="curve" smooth="yes"/>
      <point x="390.0" y="453.0" type="line" smooth="yes"/>
      <point x="444.0" y="453.0"/>
      <point x="464.0" y="427.0"/>
    </contour>
  </outline>
</glyph>
<glyph name="d" format="2">
  <advance height="960" width="590"/>
  <unicode hex="0064"/>
  <outline>
    <contour>
      <point x="350.0" y="238.0" type="line"/>
      <point x="350.0" y="93.0"/>
      <point x="285.0" y="-18.0"/>
      <point x="181.0" y="-18.0" type="curve" smooth="yes"/>
      <point x="73.0" y="-18.0"/>
      <point x="20.0" y="54.0"/>
      <point x="20.0" y="224.0" type="curve" smooth="yes"/>
      <point x="20.0" y="827.0" type="line" smooth="yes"/>
      <point x="20.0" y="997.0"/>
      <point x="73.0" y="1067.0"/>
      <point x="181.0" y="1067.0" type="curve" smooth="yes"/>
      <point x="285.0" y="1067.0"/>
      <point x="350.0" y="956.0"/>
      <point x="350.0" y="811.0" type="curve"/>
      <point x="320.0" y="807.0" type="line"/>
      <point x="320.0" y="862.0"/>
      <point x="318.0" y="897.0"/>
      <point x="294.0" y="897.0" type="curve" smooth="yes"/>
      <point x="270.0" y="897.0"/>
      <point x="266.0" y="872.0"/>
      <point x="266.0" y="817.0" type="curve" smooth="yes"/>
      <point x="266.0" y="234.0" type="line" smooth="yes"/>
      <point x="266.0" y="179.0"/>
      <point x="270.0" y="152.0"/>
      <point x="294.0" y="152.0" type="curve" smooth="yes"/>
      <point x="318.0" y="152.0"/>
      <point x="320.0" y="189.0"/>
      <point x="320.0" y="244.0" type="curve"/>
    </contour>
    <contour>
      <point x="566.0" y="1335.0" type="curve" smooth="yes"/>
      <point x="566.0" y="115.0" type="line" smooth="yes"/>
      <point x="566.0" y="31.0"/>
      <point x="523.0" y="-15.0"/>
      <point x="449.0" y="-15.0" type="curve" smooth="yes"/>
      <point x="446.0" y="-15.0" type="line" smooth="yes"/>
      <point x="372.0" y="-15.0"/>
      <point x="328.0" y="31.0"/>
      <point x="328.0" y="115.0" type="curve" smooth="yes"/>
      <point x="328.0" y="130.0" type="line"/>
      <point x="320.0" y="136.0" type="line"/>
      <point x="320.0" y="1335.0" type="line" smooth="yes"/>
      <point x="320.0" y="1419.0"/>
      <point x="367.0" y="1465.0"/>
      <point x="441.0" y="1465.0" type="curve" smooth="yes"/>
      <point x="446.0" y="1465.0" type="line" smooth="yes"/>
      <point x="520.0" y="1465.0"/>
      <point x="566.0" y="1419.0"/>
    </contour>
  </outline>
</glyph>
<glyph name="e" format="2">
  <advance height="960" width="570"/>
  <unicode hex="0065"/>
  <anchor x="300.0" y="0.0" name="bottom"/>
  <anchor x="402.0" y="30.0" name="ogonek"/>
  <anchor x="305.0" y="1050.0" name="top"/>
  <outline>
    <contour>
      <point x="550.0" y="314.0" type="curve" smooth="yes"/>
      <point x="550.0" y="177.108881161"/>
      <point x="534.721488992" y="104.459706274"/>
      <point x="478.00000453" y="47.7382218116" type="curve" smooth="yes"/>
      <point x="432.695616111" y="2.43383339196"/>
      <point x="366.558649517" y="-18.0"/>
      <point x="288.0" y="-18.0" type="curve" smooth="yes"/>
      <point x="104.0" y="-18.0"/>
      <point x="20.0" y="69.0"/>
      <point x="20.0" y="274.0" type="curve" smooth="yes"/>
      <point x="20.0" y="777.0" type="line" smooth="yes"/>
      <point x="20.0" y="977.0"/>
      <point x="100.0" y="1067.0"/>
      <point x="288.0" y="1067.0" type="curve" smooth="yes"/>
      <point x="472.0" y="1067.0"/>
      <point x="545.655903143" y="979.133520144"/>
      <point x="550.0" y="767.0" type="curve" smooth="yes"/>
      <point x="550.92369684" y="721.893486795"/>
      <point x="554.0" y="677.0"/>
      <point x="554.0" y="635.0" type="curve" smooth="yes"/>
      <point x="554.0" y="493.0"/>
      <point x="544.0" y="481.0"/>
      <point x="400.0" y="481.0" type="curve" smooth="yes"/>
      <point x="158.0" y="481.0" type="line"/>
      <point x="158.0" y="565.0" type="line"/>
      <point x="312.0" y="565.0" type="line"/>
      <point x="310.0" y="906.0"/>
      <point x="312.0" y="927.0"/>
      <point x="288.0" y="927.0" type="curve" smooth="yes"/>
      <point x="270.0" y="927.0"/>
      <point x="266.0" y="901.0"/>
      <point x="266.0" y="841.0" type="curve" smooth="yes"/>
      <point x="266.0" y="209.0" type="line" smooth="yes"/>
      <point x="266.0" y="134.0"/>
      <point x="271.0" y="122.0"/>
      <point x="287.0" y="122.0" type="curve" smooth="yes"/>
      <point x="310.225401863" y="122.0"/>
      <point x="309.038196878" y="208.50550742"/>
      <point x="312.696675433" y="289.999997796" type="curve" smooth="yes"/>
      <point x="316.798801202" y="381.376957914"/>
      <point x="349.447477895" y="433.0"/>
      <point x="430.0" y="433.0" type="curve" smooth="yes"/>
      <point x="436.0" y="433.0" type="line" smooth="yes"/>
      <point x="510.0" y="433.0"/>
      <point x="550.0" y="377.162109375"/>
    </contour>
  </outline>
</glyph>
<glyph name="g" format="2">
  <advance height="960" width="564"/>
  <unicode hex="0067"/>
  <anchor x="297.946" y="1075.0" name="top"/>
  <outline>
    <contour>
      <point x="558.0" y="1206.0" type="curve" smooth="yes"/>
      <point x="558.0" y="1134.0"/>
      <point x="482.0" y="1030.0"/>
      <point x="302.0" y="1030.0" type="curve"/>
      <point x="288.0" y="1045.0" type="line"/>
      <point x="318.0" y="1045.0"/>
      <point x="337.798290251" y="1074.02751884"/>
      <point x="353.0" y="1176.0" type="curve" smooth="yes"/>
      <point x="363.864165429" y="1248.8764016"/>
      <point x="405.0" y="1274.0"/>
      <point x="469.0" y="1274.0" type="curve" smooth="yes"/>
      <point x="471.0" y="1274.0" type="line" smooth="yes"/>
      <point x="525.0" y="1274.0"/>
      <point x="558.0" y="1240.0"/>
    </contour>
    <contour>
      <point x="356.0" y="170.0" type="line" smooth="yes"/>
      <point x="496.0" y="170.0"/>
      <point x="568.0" y="100.0"/>
      <point x="568.0" y="-88.0" type="curve" smooth="yes"/>
      <point x="568.0" y="-286.0"/>
      <point x="477.0" y="-360.0"/>
      <point x="292.0" y="-360.0" type="curve" smooth="yes"/>
      <point x="214.0" y="-360.0" type="line" smooth="yes"/>
      <point x="69.0" y="-360.0"/>
      <point x="-8.0" y="-296.0"/>
      <point x="-8.0" y="-168.0" type="curve" smooth="yes"/>
      <point x="-8.0" y="-70.0"/>
      <point x="79.0" y="15.0"/>
      <point x="224.0" y="15.0" type="curve"/>
      <point x="289.0" y="15.0" type="line"/>
      <point x="249.0" y="5.0"/>
      <point x="222.0" y="-44.0"/>
      <point x="222.0" y="-132.0" type="curve" smooth="yes"/>
      <point x="222.0" y="-226.0"/>
      <point x="239.0" y="-260.0"/>
      <point x="279.0" y="-260.0" type="curve" smooth="yes"/>
      <point x="286.0" y="-260.0" type="line" smooth="yes"/>
      <point x="316.0" y="-260.0"/>
      <point x="338.0" y="-206.0"/>
      <point x="338.0" y="-118.0" type="curve" smooth="yes"/>
      <point x="338.0" y="-34.0"/>
      <point x="322.0" y="0.0"/>
      <point x="282.0" y="0.0" type="curve" smooth="yes"/>
      <point x="169.0" y="0.0" type="line" smooth="yes"/>
      <point x="69.0" y="0.0"/>
      <point x="3.0" y="68.0"/>
      <point x="3.0" y="162.0" type="curve" smooth="yes"/>
      <point x="3.0" y="266.0"/>
      <point x="100.0" y="333.0"/>
      <point x="220.0" y="333.0" type="curve"/>
      <point x="210.0" y="283.0" type="line"/>
      <point x="180.0" y="283.0"/>
      <point x="158.0" y="262.0"/>
      <point x="158.0" y="228.0" type="curve" smooth="yes"/>
      <point x="158.0" y="182.0"/>
      <point x="199.0" y="170.0"/>
      <point x="264.0" y="170.0" type="curve" smooth="yes"/>
    </contour>
    <contour>
      <point x="322.0" y="494.0" type="curve" smooth="yes"/>
      <point x="322.0" y="811.0" type="line" smooth="yes"/>
      <point x="322.0" y="912.0"/>
      <point x="319.0" y="943.0"/>
      <point x="298.0" y="943.0" type="curve" smooth="yes"/>
      <point x="279.0" y="943.0"/>
      <point x="272.0" y="913.0"/>
      <point x="272.0" y="811.0" type="curve" smooth="yes"/>
      <point x="272.0" y="494.0" type="line" smooth="yes"/>
      <point x="272.0" y="396.0"/>
      <point x="279.0" y="363.0"/>
      <point x="298.0" y="363.0" type="curve" smooth="yes"/>
      <point x="319.0" y="363.0"/>
      <point x="322.0" y="392.0"/>
    </contour>
    <contour>
      <point x="542.0" y="574.0" type="line" smooth="yes"/>
      <point x="542.0" y="399.0"/>
      <point x="482.0" y="237.0"/>
      <point x="298.0" y="237.0" type="curve" smooth="yes"/>
      <point x="114.0" y="237.0"/>
      <point x="52.0" y="399.0"/>
      <point x="52.0" y="574.0" type="curve" smooth="yes"/>
      <point x="52.0" y="781.0" type="line" smooth="yes"/>
      <point x="52.0" y="956.0"/>
      <point x="114.0" y="1067.0"/>
      <point x="298.0" y="1067.0" type="curve" smooth="yes"/>
      <point x="482.0" y="1067.0"/>
      <point x="542.0" y="956.0"/>
      <point x="542.0" y="781.0" type="curve" smooth="yes"/>
    </contour>
  </outline>
</glyph>
<glyph name="h" format="2">
  <advance height="960" width="580"/>
  <unicode hex="0068"/>
  <anchor x="293.0" y="0.0" name="bottom"/>
  <anchor x="152.0" y="1450.0" name="top"/>
  <outline>
    <contour>
      <point x="145.0" y="1465.0" type="curve" smooth="yes"/>
      <point x="150.0" y="1465.0" type="line" smooth="yes"/>
      <point x="224.0" y="1465.0"/>
      <point x="270.0" y="1439.0"/>
      <point x="270.0" y="1295.0" type="curve" smooth="yes"/>
      <point x="270.0" y="155.0" type="line" smooth="yes"/>
      <point x="270.0" y="11.0"/>
      <point x="223.0" y="-15.0"/>
      <point x="150.0" y="-15.0" type="curve" smooth="yes"/>
      <point x="145.0" y="-15.0" type="line" smooth="yes"/>
      <point x="71.0" y="-15.0"/>
      <point x="25.0" y="11.0"/>
      <point x="25.0" y="155.0" type="curve" smooth="yes"/>
      <point x="25.0" y="1295.0" type="line" smooth="yes"/>
      <point x="25.0" y="1439.0"/>
      <point x="71.0" y="1465.0"/>
    </contour>
    <contour>
      <point x="245.0" y="877.0" type="line"/>
      <point x="245.0" y="997.0"/>
      <point x="317.0" y="1067.0"/>
      <point x="411.0" y="1067.0" type="curve" smooth="yes"/>
      <point x="515.0" y="1067.0"/>
      <point x="558.0" y="1012.0"/>
      <point x="558.0" y="857.0" type="curve" smooth="yes"/>
      <point x="558.0" y="155.0" type="line" smooth="yes"/>
      <point x="558.0" y="11.0"/>
      <point x="512.0" y="-15.0"/>
      <point x="438.0" y="-15.0" type="curve" smooth="yes"/>
      <point x="433.0" y="-15.0" type="line" smooth="yes"/>
      <point x="359.0" y="-15.0"/>
      <point x="313.0" y="11.0"/>
      <point x="313.0" y="155.0" type="curve" smooth="yes"/>
      <point x="313.0" y="831.0" type="line" smooth="yes"/>
      <point x="313.0" y="881.0"/>
      <point x="309.0" y="903.0"/>
      <point x="295.0" y="903.0" type="curve" smooth="yes"/>
      <point x="277.0" y="903.0"/>
      <point x="270.0" y="866.0"/>
      <point x="270.0" y="761.0" type="curve"/>
    </contour>
  </outline>
</glyph>
<glyph name="i" format="2">
  <advance height="960" width="295"/>
  <unicode hex="0069"/>
  <anchor x="148.0" y="0.0" name="bottom"/>
  <anchor x="148.0" y="0.0" name="ogonek"/>
  <outline>
    <contour>
      <point x="240.0" y="1360.0" type="curve" smooth="yes"/>
      <point x="240.0" y="1285.0" type="line" smooth="yes"/>
      <point x="240.0" y="1191.0"/>
      <point x="214.0" y="1145.0"/>
      <point x="150.0" y="1145.0" type="curve" smooth="yes"/>
      <point x="145.0" y="1145.0" type="line" smooth="yes"/>
      <point x="81.0" y="1145.0"/>
      <point x="55.0" y="1191.0"/>
      <point x="55.0" y="1285.0" type="curve" smooth="yes"/>
      <point x="55.0" y="1360.0" type="line" smooth="yes"/>
      <point x="55.0" y="1454.0"/>
      <point x="81.0" y="1500.0"/>
      <point x="145.0" y="1500.0" type="curve" smooth="yes"/>
      <point x="150.0" y="1500.0" type="line" smooth="yes"/>
      <point x="214.0" y="1500.0"/>
      <point x="240.0" y="1454.0"/>
    </contour>
    <contour>
      <point x="270.0" y="895.0" type="curve" smooth="yes"/>
      <point x="270.0" y="155.0" type="line" smooth="yes"/>
      <point x="270.0" y="11.0"/>
      <point x="224.0" y="-15.0"/>
      <point x="150.0" y="-15.0" type="curve" smooth="yes"/>
      <point x="145.0" y="-15.0" type="line" smooth="yes"/>
      <point x="71.0" y="-15.0"/>
      <point x="25.0" y="11.0"/>
      <point x="25.0" y="155.0" type="curve" smooth="yes"/>
      <point x="25.0" y="895.0" type="line" smooth="yes"/>
      <point x="25.0" y="1039.0"/>
      <point x="71.0" y="1065.0"/>
      <point x="145.0" y="1065.0" type="curve" smooth="yes"/>
      <point x="150.0" y="1065.0" type="line" smooth="yes"/>
      <point x="224.0" y="1065.0"/>
      <point x="270.0" y="1039.0"/>
    </contour>
  </outline>
</glyph>
<glyph name="k" format="2">
  <advance height="960" width="595"/>
  <unicode hex="006B"/>
  <outline>
    <contour>
      <point x="145.0" y="1465.0" type="curve" smooth="yes"/>
      <point x="150.0" y="1465.0" type="line" smooth="yes"/>
      <point x="224.0" y="1465.0"/>
      <point x="270.0" y="1439.0"/>
      <point x="270.0" y="1295.0" type="curve" smooth="yes"/>
      <point x="270.0" y="155.0" type="line" smooth="yes"/>
      <point x="270.0" y="11.0"/>
      <point x="224.0" y="-15.0"/>
      <point x="150.0" y="-15.0" type="curve" smooth="yes"/>
      <point x="145.0" y="-15.0" type="line" smooth="yes"/>
      <point x="71.0" y="-15.0"/>
      <point x="25.0" y="11.0"/>
      <point x="25.0" y="155.0" type="curve" smooth="yes"/>
      <point x="25.0" y="1295.0" type="line" smooth="yes"/>
      <point x="25.0" y="1439.0"/>
      <point x="71.0" y="1465.0"/>
    </contour>
    <contour>
      <point x="185.0" y="422.0" type="line"/>
      <point x="356.0" y="895.0" type="line" smooth="yes"/>
      <point x="405.339522149" y="1031.47715776"/>
      <point x="424.240234375" y="1065.0"/>
      <point x="490.0" y="1065.0" type="curve" smooth="yes"/>
      <point x="497.0" y="1065.0" type="line" smooth="yes"/>
      <point x="561.357421875" y="1065.0"/>
      <point x="626.84813987" y="1029.97707289"/>
      <point x="562.0" y="895.0" type="curve" smooth="yes"/>
      <point x="255.0" y="256.0" type="line"/>
    </contour>
    <contour>
      <point x="250.0" y="586.0" type="line"/>
      <point x="390.0" y="616.0" type="line"/>
      <point x="580.0" y="155.0" type="line" smooth="yes"/>
      <point x="616.92994558" y="65.3962899353"/>
      <point x="594.0" y="-15.0"/>
      <point x="490.0" y="-15.0" type="curve" smooth="yes"/>
      <point x="485.0" y="-15.0" type="line" smooth="yes"/>
      <point x="401.0" y="-15.0"/>
      <point x="354.601493734" y="15.3260278539"/>
      <point x="329.0" y="155.0" type="curve" smooth="yes"/>
    </contour>
  </outline>
</glyph>
<glyph name="l" format="2">
  <advance height="960" width="295"/>
  <unicode hex="006C"/>
  <outline>
    <contour>
      <point x="145.0" y="1465.0" type="curve" smooth="yes"/>
      <point x="150.0" y="1465.0" type="line" smooth="yes"/>
      <point x="224.0" y="1465.0"/>
      <point x="270.0" y="1439.0"/>
      <point x="270.0" y="1295.0" type="curve" smooth="yes"/>
      <point x="270.0" y="155.0" type="line" smooth="yes"/>
      <point x="270.0" y="11.0"/>
      <point x="223.0" y="-15.0"/>
      <point x="150.0" y="-15.0" type="curve" smooth="yes"/>
      <point x="145.0" y="-15.0" type="line" smooth="yes"/>
      <point x="71.0" y="-15.0"/>
      <point x="25.0" y="11.0"/>
      <point x="25.0" y="155.0" type="curve" smooth="yes"/>
      <point x="25.0" y="1295.0" type="line" smooth="yes"/>
      <point x="25.0" y="1439.0"/>
      <point x="71.0" y="1465.0"/>
    </contour>
  </outline>
</glyph>
<glyph name="m" format="2">
  <advance height="960" width="802"/>
  <unicode hex="006D"/>
  <outline>
    <contour>
      <point x="465.0" y="877.0" type="line"/>
      <point x="465.0" y="997.0"/>
      <point x="534.0" y="1067.0"/>
      <point x="632.0" y="1067.0" type="curve" smooth="yes"/>
      <point x="736.0" y="1067.0"/>
      <point x="780.0" y="1012.0"/>
      <point x="780.0" y="857.0" type="curve" smooth="yes"/>
      <point x="780.0" y="155.0" type="line" smooth="yes"/>
      <point x="780.0" y="11.0"/>
      <point x="739.0" y="-15.0"/>
      <point x="665.0" y="-15.0" type="curve" smooth="yes"/>
      <point x="660.0" y="-15.0" type="line" smooth="yes"/>
      <point x="586.0" y="-15.0"/>
      <point x="545.0" y="11.0"/>
      <point x="545.0" y="155.0" type="curve" smooth="yes"/>
      <point x="545.0" y="857.0" type="line" smooth="yes"/>
      <point x="545.0" y="887.0"/>
      <point x="538.0" y="903.0"/>
      <point x="525.0" y="903.0" type="curve" smooth="yes"/>
      <point x="512.0" y="903.0"/>
      <point x="500.0" y="892.0"/>
      <point x="500.0" y="787.0" type="curve"/>
    </contour>
    <contour>
      <point x="139.0" y="1065.0" type="curve" smooth="yes"/>
      <point x="141.0" y="1065.0" type="line" smooth="yes"/>
      <point x="215.0" y="1065.0"/>
      <point x="255.0" y="1029.0"/>
      <point x="255.0" y="895.0" type="curve" smooth="yes"/>
      <point x="255.0" y="869.0" type="line"/>
      <point x="260.0" y="855.0" type="line"/>
      <point x="260.0" y="155.0" type="line" smooth="yes"/>
      <point x="260.0" y="11.0"/>
      <point x="219.0" y="-15.0"/>
      <point x="145.0" y="-15.0" type="curve" smooth="yes"/>
      <point x="140.0" y="-15.0" type="line" smooth="yes"/>
      <point x="66.0" y="-15.0"/>
      <point x="25.0" y="11.0"/>
      <point x="25.0" y="155.0" type="curve" smooth="yes"/>
      <point x="25.0" y="895.0" type="line" smooth="yes"/>
      <point x="25.0" y="1029.0"/>
      <point x="65.0" y="1065.0"/>
    </contour>
    <contour>
      <point x="235.0" y="877.0" type="line"/>
      <point x="235.0" y="997.0"/>
      <point x="278.0" y="1067.0"/>
      <point x="372.0" y="1067.0" type="curve" smooth="yes"/>
      <point x="466.0" y="1067.0"/>
      <point x="500.0" y="1012.0"/>
      <point x="500.0" y="857.0" type="curve" smooth="yes"/>
      <point x="500.0" y="155.0" type="line" smooth="yes"/>
      <point x="500.0" y="11.0"/>
      <point x="459.0" y="-15.0"/>
      <point x="405.0" y="-15.0" type="curve" smooth="yes"/>
      <point x="400.0" y="-15.0" type="line" smooth="yes"/>
      <point x="346.0" y="-15.0"/>
      <point x="305.0" y="11.0"/>
      <point x="305.0" y="155.0" type="curve" smooth="yes"/>
      <point x="305.0" y="857.0" type="line" smooth="yes"/>
      <point x="305.0" y="887.0"/>
      <point x="297.0" y="903.0"/>
      <point x="285.0" y="903.0" type="curve" smooth="yes"/>
      <point x="272.0" y="903.0"/>
      <point x="260.0" y="892.0"/>
      <point x="260.0" y="787.0" type="curve"/>
    </contour>
  </outline>
</glyph>
<glyph name="n" format="2">
  <advance height="960" width="580"/>
  <unicode hex="006E"/>
  <anchor x="317.0" y="0.0" name="bottom"/>
  <anchor x="318.0" y="1050.0" name="top"/>
  <outline>
    <contour>
      <point x="140.0" y="1065.0" type="curve" smooth="yes"/>
      <point x="150.0" y="1065.0" type="line" smooth="yes"/>
      <point x="224.0" y="1065.0"/>
      <point x="265.0" y="1039.0"/>
      <point x="265.0" y="895.0" type="curve" smooth="yes"/>
      <point x="265.0" y="869.0" type="line"/>
      <point x="270.0" y="855.0" type="line"/>
      <point x="270.0" y="155.0" type="line" smooth="yes"/>
      <point x="270.0" y="11.0"/>
      <point x="224.0" y="-15.0"/>
      <point x="150.0" y="-15.0" type="curve" smooth="yes"/>
      <point x="145.0" y="-15.0" type="line" smooth="yes"/>
      <point x="71.0" y="-15.0"/>
      <point x="25.0" y="11.0"/>
      <point x="25.0" y="155.0" type="curve" smooth="yes"/>
      <point x="25.0" y="895.0" type="line" smooth="yes"/>
      <point x="25.0" y="1039.0"/>
      <point x="66.0" y="1065.0"/>
    </contour>
    <contour>
      <point x="245.0" y="877.0" type="line"/>
      <point x="245.0" y="997.0"/>
      <point x="317.0" y="1067.0"/>
      <point x="411.0" y="1067.0" type="curve" smooth="yes"/>
      <point x="515.0" y="1067.0"/>
      <point x="558.0" y="1012.0"/>
      <point x="558.0" y="857.0" type="curve" smooth="yes"/>
      <point x="558.0" y="155.0" type="line" smooth="yes"/>
      <point x="558.0" y="11.0"/>
      <point x="512.0" y="-15.0"/>
      <point x="438.0" y="-15.0" type="curve" smooth="yes"/>
      <point x="433.0" y="-15.0" type="line" smooth="yes"/>
      <point x="359.0" y="-15.0"/>
      <point x="313.0" y="11.0"/>
      <point x="313.0" y="155.0" type="curve" smooth="yes"/>
      <point x="313.0" y="831.0" type="line" smooth="yes"/>
      <point x="313.0" y="881.0"/>
      <point x="309.0" y="903.0"/>
      <point x="295.0" y="903.0" type="curve" smooth="yes"/>
      <point x="277.0" y="903.0"/>
      <point x="270.0" y="866.0"/>
      <point x="270.0" y="761.0" type="curve"/>
    </contour>
  </outline>
</glyph>
<glyph name="p" format="2">
  <advance height="960" width="590"/>
  <unicode hex="0070"/>
  <outline>
    <contour>
      <point x="240.0" y="812.0" type="line"/>
      <point x="240.0" y="957.0"/>
      <point x="305.0" y="1068.0"/>
      <point x="409.0" y="1068.0" type="curve" smooth="yes"/>
      <point x="517.0" y="1068.0"/>
      <point x="570.0" y="996.0"/>
      <point x="570.0" y="826.0" type="curve" smooth="yes"/>
      <point x="570.0" y="223.0" type="line" smooth="yes"/>
      <point x="570.0" y="53.0"/>
      <point x="517.0" y="-17.0"/>
      <point x="409.0" y="-17.0" type="curve" smooth="yes"/>
      <point x="305.0" y="-17.0"/>
      <point x="240.0" y="94.0"/>
      <point x="240.0" y="239.0" type="curve"/>
      <point x="270.0" y="243.0" type="line"/>
      <point x="270.0" y="188.0"/>
      <point x="272.0" y="153.0"/>
      <point x="296.0" y="153.0" type="curve" smooth="yes"/>
      <point x="320.0" y="153.0"/>
      <point x="324.0" y="178.0"/>
      <point x="324.0" y="233.0" type="curve" smooth="yes"/>
      <point x="324.0" y="816.0" type="line" smooth="yes"/>
      <point x="324.0" y="871.0"/>
      <point x="320.0" y="898.0"/>
      <point x="296.0" y="898.0" type="curve" smooth="yes"/>
      <point x="272.0" y="898.0"/>
      <point x="270.0" y="861.0"/>
      <point x="270.0" y="806.0" type="curve"/>
    </contour>
    <contour>
      <point x="24.0" y="-245.0" type="curve" smooth="yes"/>
      <point x="24.0" y="935.0" type="line" smooth="yes"/>
      <point x="24.0" y="1019.0"/>
      <point x="67.0" y="1065.0"/>
      <point x="141.0" y="1065.0" type="curve" smooth="yes"/>
      <point x="144.0" y="1065.0" type="line" smooth="yes"/>
      <point x="218.0" y="1065.0"/>
      <point x="262.0" y="1019.0"/>
      <point x="262.0" y="935.0" type="curve" smooth="yes"/>
      <point x="262.0" y="920.0" type="line"/>
      <point x="270.0" y="914.0" type="line"/>
      <point x="270.0" y="-245.0" type="line" smooth="yes"/>
      <point x="270.0" y="-329.0"/>
      <point x="223.0" y="-375.0"/>
      <point x="149.0" y="-375.0" type="curve" smooth="yes"/>
      <point x="144.0" y="-375.0" type="line" smooth="yes"/>
      <point x="70.0" y="-375.0"/>
      <point x="24.0" y="-329.0"/>
    </contour>
  </outline>
</glyph>
<glyph name="q" format="2">
  <advance height="960" width="590"/>
  <unicode hex="0071"/>
  <outline>
    <contour>
      <point x="445.0" y="-375.0" type="curve" smooth="yes"/>
      <point x="440.0" y="-375.0" type="line" smooth="yes"/>
      <point x="366.0" y="-375.0"/>
      <point x="320.0" y="-334.0"/>
      <point x="320.0" y="-250.0" type="curve" smooth="yes"/>
      <point x="320.0" y="885.0" type="line"/>
      <point x="433.0" y="1020.0" type="line" smooth="yes"/>
      <point x="456.0" y="1047.0"/>
      <point x="477.0" y="1065.0"/>
      <point x="505.0" y="1065.0" type="curve" smooth="yes"/>
      <point x="511.0" y="1065.0" type="line" smooth="yes"/>
      <point x="545.0" y="1065.0"/>
      <point x="565.0" y="1038.0"/>
      <point x="565.0" y="960.0" type="curve" smooth="yes"/>
      <point x="565.0" y="-250.0" type="line" smooth="yes"/>
      <point x="565.0" y="-334.0"/>
      <point x="519.0" y="-375.0"/>
    </contour>
    <contour>
      <point x="350.0" y="249.0" type="line"/>
      <point x="350.0" y="104.0"/>
      <point x="278.0" y="-17.0"/>
      <point x="180.0" y="-17.0" type="curve" smooth="yes"/>
      <point x="72.0" y="-17.0"/>
      <point x="20.0" y="53.0"/>
      <point x="20.0" y="223.0" type="curve" smooth="yes"/>
      <point x="20.0" y="826.0" type="line" smooth="yes"/>
      <point x="20.0" y="986.0"/>
      <point x="88.0" y="1068.0"/>
      <point x="236.0" y="1068.0" type="curve" smooth="yes"/>
      <point x="360.0" y="1068.0"/>
      <point x="445.0" y="987.0"/>
      <point x="445.0" y="842.0" type="curve"/>
      <point x="320.0" y="806.0" type="line"/>
      <point x="320.0" y="876.0"/>
      <point x="314.0" y="898.0"/>
      <point x="293.0" y="898.0" type="curve" smooth="yes"/>
      <point x="269.0" y="898.0"/>
      <point x="265.0" y="871.0"/>
      <point x="265.0" y="816.0" type="curve" smooth="yes"/>
      <point x="265.0" y="233.0" type="line" smooth="yes"/>
      <point x="265.0" y="178.0"/>
      <point x="269.0" y="153.0"/>
      <point x="293.0" y="153.0" type="curve" smooth="yes"/>
      <point x="314.0" y="153.0"/>
      <point x="320.0" y="188.0"/>
      <point x="320.0" y="243.0" type="curve"/>
    </contour>
  </outline>
</glyph>
<glyph name="r" format="2">
  <advance height="960" width="402"/>
  <unicode hex="0072"/>
  <anchor x="152.0" y="0.0" name="bottom"/>
  <anchor x="228.0" y="1050.0" name="top"/>
  <outline>
    <contour>
      <point x="135.0" y="1065.0" type="curve" smooth="yes"/>
      <point x="143.0" y="1065.0" type="line" smooth="yes"/>
      <point x="217.0" y="1065.0"/>
      <point x="252.0" y="1038.0"/>
      <point x="252.0" y="895.0" type="curve" smooth="yes"/>
      <point x="252.0" y="887.0" type="line"/>
      <point x="270.0" y="883.0" type="line"/>
      <point x="270.0" y="155.0" type="line" smooth="yes"/>
      <point x="270.0" y="11.0"/>
      <point x="223.0" y="-15.0"/>
      <point x="150.0" y="-15.0" type="curve" smooth="yes"/>
      <point x="145.0" y="-15.0" type="line" smooth="yes"/>
      <point x="72.0" y="-15.0"/>
      <point x="25.0" y="12.0"/>
      <point x="25.0" y="155.0" type="curve" smooth="yes"/>
      <point x="25.0" y="895.0" type="line" smooth="yes"/>
      <point x="25.0" y="1038.0"/>
      <point x="62.0" y="1065.0"/>
    </contour>
    <contour>
      <point x="240.0" y="737.0" type="line"/>
      <point x="240.0" y="835.0"/>
      <point x="259.0" y="1063.0"/>
      <point x="346.0" y="1063.0" type="curve" smooth="yes"/>
      <point x="391.098632812" y="1063.0"/>
      <point x="407.0" y="1031.0"/>
      <point x="407.0" y="967.0" type="curve" smooth="yes"/>
      <point x="407.0" y="947.0" type="line" smooth="yes"/>
      <point x="407.0" y="864.0"/>
      <point x="364.335459779" y="823.668185556"/>
      <point x="334.0" y="802.0" type="curve" smooth="yes"/>
      <point x="292.0" y="772.0"/>
      <point x="270.0" y="674.0"/>
      <point x="270.0" y="567.0" type="curve"/>
    </contour>
  </outline>
</glyph>
<glyph name="s" format="2">
  <advance height="960" width="504"/>
  <unicode hex="0073"/>
  <anchor x="243.0" y="0.0" name="bottom"/>
  <anchor x="241.0" y="1050.0" name="top"/>
  <outline>
    <contour>
      <point x="94.0" y="414.0" type="curve" smooth="yes"/>
      <point x="100.0" y="414.0" type="line" smooth="yes"/>
      <point x="154.0" y="414.0"/>
      <point x="187.0" y="387.0"/>
      <point x="187.0" y="284.0" type="curve" smooth="yes"/>
      <point x="187.0" y="274.076171875"/>
      <point x="187.136741632" y="262.134704245"/>
      <point x="187.200195312" y="257.0" type="curve" smooth="yes"/>
      <point x="188.021555976" y="190.535074699"/>
      <point x="193.435006701" y="162.0"/>
      <point x="213.0" y="162.0" type="curve" smooth="yes"/>
      <point x="230.0" y="162.0"/>
      <point x="240.0" y="181.0"/>
      <point x="240.0" y="256.0" type="curve" smooth="yes"/>
      <point x="240.0" y="531.334911682"/>
      <point x="26.0" y="467.119140625"/>
      <point x="26.0" y="804.0" type="curve" smooth="yes"/>
      <point x="26.0" y="992.0"/>
      <point x="115.0" y="1067.0"/>
      <point x="260.0" y="1067.0" type="curve" smooth="yes"/>
      <point x="397.423934423" y="1067.0"/>
      <point x="468.394888496" y="980.808163877"/>
      <point x="471.859375" y="842.0" type="curve" smooth="yes"/>
      <point x="472.246813784" y="826.476872363"/>
      <point x="474.0" y="806.552734375"/>
      <point x="474.0" y="786.0" type="curve" smooth="yes"/>
      <point x="474.0" y="673.0"/>
      <point x="448.0" y="646.0"/>
      <point x="394.0" y="646.0" type="curve" smooth="yes"/>
      <point x="387.0" y="646.0" type="line" smooth="yes"/>
      <point x="333.0" y="646.0"/>
      <point x="308.0" y="674.0"/>
      <point x="308.0" y="787.0" type="curve" smooth="yes"/>
      <point x="308.0" y="794.98046875"/>
      <point x="307.107562683" y="805.922052092"/>
      <point x="306.760358983" y="824.0" type="curve" smooth="yes"/>
      <point x="305.734525235" y="877.412360158"/>
      <point x="295.649187459" y="895.0"/>
      <point x="282.0" y="895.0" type="curve" smooth="yes"/>
      <point x="269.0" y="895.0"/>
      <point x="255.0" y="875.0"/>
      <point x="255.0" y="823.0" type="curve" smooth="yes"/>
      <point x="255.0" y="524.863152285"/>
      <point x="490.0" y="600.909179688"/>
      <point x="490.0" y="231.0" type="curve" smooth="yes"/>
      <point x="490.0" y="79.0"/>
      <point x="428.0" y="-18.0"/>
      <point x="258.0" y="-18.0" type="curve" smooth="yes"/>
      <point x="73.0419921875" y="-18.0"/>
      <point x="17.732421875" y="65.0966796875"/>
      <point x="12.154296875" y="211.0" type="curve" smooth="yes"/>
      <point x="11.1258508045" y="237.900382556"/>
      <point x="10.0" y="267.89453125"/>
      <point x="10.0" y="285.0" type="curve" smooth="yes"/>
      <point x="10.0" y="388.0"/>
      <point x="40.0" y="414.0"/>
    </contour>
  </outline>
</glyph>
<glyph name="t" format="2">
  <advance height="960" width="357"/>
  <unicode hex="0074"/>
  <anchor x="254.0" y="0.0" name="bottom"/>
  <outline>
    <contour>
      <point x="268.0" y="930.0" type="curve" smooth="yes"/>
      <point x="68.0" y="930.0" type="line" smooth="yes"/>
      <point x="-6.0" y="930.0"/>
      <point x="-33.0" y="941.0"/>
      <point x="-33.0" y="985.0" type="curve" smooth="yes"/>
      <point x="-33.0" y="995.0" type="line" smooth="yes"/>
      <point x="-33.0" y="1039.0"/>
      <point x="-6.0" y="1050.0"/>
      <point x="68.0" y="1050.0" type="curve" smooth="yes"/>
      <point x="268.0" y="1050.0" type="line" smooth="yes"/>
      <point x="342.0" y="1050.0"/>
      <point x="367.0" y="1039.0"/>
      <point x="367.0" y="995.0" type="curve" smooth="yes"/>
      <point x="367.0" y="985.0" type="line" smooth="yes"/>
      <point x="367.0" y="941.0"/>
      <point x="342.0" y="930.0"/>
    </contour>
    <contour>
      <point x="370.0" y="85.0" type="curve" smooth="yes"/>
      <point x="370.0" y="80.0" type="line" smooth="yes"/>
      <point x="370.0" y="6.0"/>
      <point x="344.0" y="-8.0"/>
      <point x="250.0" y="-8.0" type="curve" smooth="yes"/>
      <point x="106.0" y="-8.0"/>
      <point x="32.0" y="22.0"/>
      <point x="32.0" y="176.0" type="curve" smooth="yes"/>
      <point x="32.0" y="1085.0" type="line" smooth="yes"/>
      <point x="32.0" y="1229.0"/>
      <point x="84.0" y="1255.0"/>
      <point x="158.0" y="1255.0" type="curve" smooth="yes"/>
      <point x="160.0" y="1255.0" type="line" smooth="yes"/>
      <point x="234.0" y="1255.0"/>
      <point x="275.0" y="1229.0"/>
      <point x="275.0" y="1085.0" type="curve" smooth="yes"/>
      <point x="275.0" y="211.0" type="line" smooth="yes"/>
      <point x="275.0" y="167.0"/>
      <point x="300.0" y="161.0"/>
      <point x="310.0" y="161.0" type="curve" smooth="yes"/>
      <point x="343.16227766" y="161.0"/>
      <point x="370.0" y="158.0"/>
    </contour>
  </outline>
</glyph>
<glyph name="u" format="2">
  <advance height="960" width="582"/>
  <unicode hex="0075"/>
  <anchor x="262.0" y="0.0" name="bottom"/>
  <anchor x="439.0" y="0.0" name="ogonek"/>
  <anchor x="284.0" y="1050.0" name="top"/>
  <outline>
    <contour>
      <point x="441.0" y="-16.0" type="curve" smooth="yes"/>
      <point x="431.0" y="-16.0" type="line" smooth="yes"/>
      <point x="357.0" y="-16.0"/>
      <point x="316.0" y="10.0"/>
      <point x="316.0" y="154.0" type="curve" smooth="yes"/>
      <point x="316.0" y="180.0" type="line"/>
      <point x="311.0" y="194.0" type="line"/>
      <point x="311.0" y="894.0" type="line" smooth="yes"/>
      <point x="311.0" y="1038.0"/>
      <point x="357.0" y="1064.0"/>
      <point x="431.0" y="1064.0" type="curve" smooth="yes"/>
      <point x="436.0" y="1064.0" type="line" smooth="yes"/>
      <point x="510.0" y="1064.0"/>
      <point x="556.0" y="1038.0"/>
      <point x="556.0" y="894.0" type="curve" smooth="yes"/>
      <point x="556.0" y="154.0" type="line" smooth="yes"/>
      <point x="556.0" y="10.0"/>
      <point x="515.0" y="-16.0"/>
    </contour>
    <contour>
      <point x="336.0" y="172.0" type="line"/>
      <point x="336.0" y="52.0"/>
      <point x="264.0" y="-18.0"/>
      <point x="170.0" y="-18.0" type="curve" smooth="yes"/>
      <point x="66.0" y="-18.0"/>
      <point x="23.0" y="37.0"/>
      <point x="23.0" y="192.0" type="curve" smooth="yes"/>
      <point x="23.0" y="894.0" type="line" smooth="yes"/>
      <point x="23.0" y="1038.0"/>
      <point x="69.0" y="1064.0"/>
      <point x="143.0" y="1064.0" type="curve" smooth="yes"/>
      <point x="148.0" y="1064.0" type="line" smooth="yes"/>
      <point x="222.0" y="1064.0"/>
      <point x="268.0" y="1038.0"/>
      <point x="268.0" y="894.0" type="curve" smooth="yes"/>
      <point x="268.0" y="218.0" type="line" smooth="yes"/>
      <point x="268.0" y="168.0"/>
      <point x="272.0" y="146.0"/>
      <point x="286.0" y="146.0" type="curve" smooth="yes"/>
      <point x="304.0" y="146.0"/>
      <point x="311.0" y="183.0"/>
      <point x="311.0" y="288.0" type="curve"/>
    </contour>
  </outline>
</glyph>
<glyph name="v" format="2">
  <advance height="960" width="535"/>
  <unicode hex="0076"/>
  <outline>
    <contour>
      <point x="288.0" y="319.0" type="line"/>
      <point x="332.0" y="895.0" type="line" smooth="yes"/>
      <point x="342.182528647" y="1028.29855684"/>
      <point x="382.0" y="1065.0"/>
      <point x="436.0" y="1065.0" type="curve" smooth="yes"/>
      <point x="439.0" y="1065.0" type="line" smooth="yes"/>
      <point x="503.0" y="1065.0"/>
      <point x="542.517589654" y="1027.6298314"/>
      <point x="528.0" y="895.0" type="curve" smooth="yes"/>
      <point x="447.0" y="155.0" type="line" smooth="yes"/>
      <point x="432.482410346" y="22.3701685972"/>
      <point x="363.0" y="-15.0"/>
      <point x="279.0" y="-15.0" type="curve" smooth="yes"/>
      <point x="277.0" y="-15.0" type="line" smooth="yes"/>
      <point x="193.0" y="-15.0"/>
      <point x="122.646975876" y="23.0933116374"/>
      <point x="105.0" y="155.0" type="curve" smooth="yes"/>
      <point x="6.0" y="895.0" type="line" smooth="yes"/>
      <point x="-12.9437065954" y="1036.59942304"/>
      <point x="45.0" y="1064.0"/>
      <point x="119.0" y="1064.0" type="curve" smooth="yes"/>
      <point x="124.0" y="1064.0" type="line" smooth="yes"/>
      <point x="198.0" y="1064.0"/>
      <point x="251.76580271" y="1038.68612548"/>
      <point x="259.0" y="895.0" type="curve" smooth="yes"/>
    </contour>
  </outline>
</glyph>
<glyph name="w" format="2">
  <advance height="960" width="665"/>
  <unicode hex="0077"/>
  <outline>
    <contour>
      <point x="486.0" y="454.0" type="line"/>
      <point x="504.0" y="895.0" type="line" smooth="yes"/>
      <point x="509.869438669" y="1038.8012474"/>
      <point x="527.0" y="1065.0"/>
      <point x="581.0" y="1065.0" type="curve" smooth="yes"/>
      <point x="586.0" y="1065.0" type="line" smooth="yes"/>
      <point x="640.0" y="1065.0"/>
      <point x="664.113217499" y="1038.48470105"/>
      <point x="655.0" y="895.0" type="curve" smooth="yes"/>
      <point x="608.0" y="155.0" type="line" smooth="yes"/>
      <point x="598.886782501" y="11.5152989493"/>
      <point x="560.0" y="-15.0"/>
      <point x="486.0" y="-15.0" type="curve" smooth="yes"/>
      <point x="479.0" y="-15.0" type="line" smooth="yes"/>
      <point x="405.0" y="-15.0"/>
      <point x="366.090435121" y="11.3005148908"/>
      <point x="359.0" y="155.0" type="curve" smooth="yes"/>
      <point x="344.0" y="459.0" type="line"/>
      <point x="320.0" y="155.0" type="line" smooth="yes"/>
      <point x="308.695801789" y="11.8134893324"/>
      <point x="265.0" y="-15.0"/>
      <point x="191.0" y="-15.0" type="curve" smooth="yes"/>
      <point x="189.0" y="-15.0" type="line" smooth="yes"/>
      <point x="115.0" y="-15.0"/>
      <point x="72.0741117637" y="11.6376402861"/>
      <point x="62.0" y="155.0" type="curve" smooth="yes"/>
      <point x="10.0" y="895.0" type="line" smooth="yes"/>
      <point x="-0.0741117636797" y="1038.36235971"/>
      <point x="44.0" y="1065.0"/>
      <point x="118.0" y="1065.0" type="curve" smooth="yes"/>
      <point x="119.0" y="1065.0" type="line" smooth="yes"/>
      <point x="193.0" y="1065.0"/>
      <point x="229.946085233" y="1038.91397423"/>
      <point x="234.0" y="895.0" type="curve" smooth="yes"/>
      <point x="246.0" y="469.0" type="line"/>
      <point x="286.0" y="895.0" type="line" smooth="yes"/>
      <point x="299.411697874" y="1037.83458236"/>
      <point x="322.0" y="1065.0"/>
      <point x="366.0" y="1065.0" type="curve" smooth="yes"/>
      <point x="374.0" y="1065.0" type="line" smooth="yes"/>
      <point x="418.0" y="1065.0"/>
      <point x="440.95765116" y="1038.22575995"/>
      <point x="452.0" y="895.0" type="curve" smooth="yes"/>
    </contour>
  </outline>
</glyph>
<glyph name="x" format="2">
  <advance height="960" width="563"/>
  <unicode hex="0078"/>
  <outline>
    <contour>
      <point x="118.0" y="-15.0" type="curve" smooth="yes"/>
      <point x="113.0" y="-15.0" type="line" smooth="yes"/>
      <point x="39.0" y="-15.0"/>
      <point x="-14.2282188478" y="22.2844742683"/>
      <point x="26.0" y="155.0" type="curve" smooth="yes"/>
      <point x="133.0" y="508.0" type="line"/>
      <point x="40.0" y="895.0" type="line" smooth="yes"/>
      <point x="7.12083854107" y="1031.81973639"/>
      <point x="71.0" y="1065.0"/>
      <point x="145.0" y="1065.0" type="curve" smooth="yes"/>
      <point x="150.0" y="1065.0" type="line" smooth="yes"/>
      <point x="214.0" y="1065.0"/>
      <point x="272.50071672" y="1038.79664256"/>
      <point x="279.0" y="895.0" type="curve" smooth="yes"/>
      <point x="287.0" y="718.0" type="line"/>
      <point x="310.0" y="895.0" type="line" smooth="yes"/>
      <point x="328.434364995" y="1036.86446105"/>
      <point x="364.0" y="1065.0"/>
      <point x="428.0" y="1065.0" type="curve" smooth="yes"/>
      <point x="433.0" y="1065.0" type="line" smooth="yes"/>
      <point x="507.0" y="1065.0"/>
      <point x="549.514646993" y="1029.9303146"/>
      <point x="513.0" y="895.0" type="curve" smooth="yes"/>
      <point x="408.0" y="507.0" type="line"/>
      <point x="523.0" y="155.0" type="line" smooth="yes"/>
      <point x="565.797621218" y="24.0020637502"/>
      <point x="499.0" y="-15.0"/>
      <point x="425.0" y="-15.0" type="curve" smooth="yes"/>
      <point x="420.0" y="-15.0" type="line" smooth="yes"/>
      <point x="346.0" y="-15.0"/>
      <point x="281.065543645" y="11.5660030628"/>
      <point x="271.0" y="155.0" type="curve" smooth="yes"/>
      <point x="259.0" y="326.0" type="line"/>
      <point x="236.0" y="155.0" type="line" smooth="yes"/>
      <point x="216.940208263" y="13.294591871"/>
      <point x="182.0" y="-15.0"/>
    </contour>
  </outline>
</glyph>
<glyph name="y" format="2">
  <advance height="960" width="545"/>
  <unicode hex="0079"/>
  <anchor x="281.444" y="1050.0" name="top"/>
  <outline>
    <contour>
      <point x="290.444335938" y="281.0" type="line"/>
      <point x="341.444335938" y="895.0" type="line" smooth="yes"/>
      <point x="353.248046875" y="1037.10253906"/>
      <point x="383.444335938" y="1065.0"/>
      <point x="447.444335938" y="1065.0" type="curve" smooth="yes"/>
      <point x="451.444335938" y="1065.0" type="line" smooth="yes"/>
      <point x="515.444335938" y="1065.0"/>
      <point x="553.570182257" y="1036.27343998"/>
      <point x="537.444335938" y="895.0" type="curve" smooth="yes"/>
      <point x="420.444335938" y="-130.0" type="line" smooth="yes"/>
      <point x="394.931155906" y="-353.512901989"/>
      <point x="237.189783981" y="-376.963904098"/>
      <point x="129.444335938" y="-362.0" type="curve" smooth="yes"/>
      <point x="23.404930854" y="-347.273034573"/>
      <point x="-33.5556640625" y="-264.0"/>
      <point x="-33.5556640625" y="-190.0" type="curve" smooth="yes"/>
      <point x="-33.5556640625" y="-185.0" type="line" smooth="yes"/>
      <point x="-33.5556640625" y="-112.0"/>
      <point x="-3.15408625637" y="-88.7274018597"/>
      <point x="57.4443359375" y="-112.0" type="curve" smooth="yes"/>
      <point x="99.3639314328" y="-128.099064379"/>
      <point x="140.444335938" y="-152.0"/>
      <point x="157.444335938" y="-105.0" type="curve"/>
      <point x="7.4443359375" y="895.0" type="line" smooth="yes"/>
      <point x="-13.5556640626" y="1035.0"/>
      <point x="40.4443359375" y="1065.0"/>
      <point x="114.444335938" y="1065.0" type="curve" smooth="yes"/>
      <point x="124.444335938" y="1065.0" type="line" smooth="yes"/>
      <point x="198.444335938" y="1065.0"/>
      <point x="246.085269396" y="1037.56852379"/>
      <point x="254.444335938" y="895.0" type="curve" smooth="yes"/>
    </contour>
  </outline>
</glyph>
<glyph name="z" format="2">
  <advance height="960" width="490"/>
  <unicode hex="007A"/>
  <anchor x="240.0" y="1050.0" name="top"/>
  <outline>
    <contour>
      <point x="25.0" y="145.0" type="curve" smooth="yes"/>
      <point x="212.0" y="875.0" type="line"/>
      <point x="176.0" y="875.0" type="line" smooth="yes"/>
      <point x="32.0" y="875.0"/>
      <point x="6.0" y="896.0"/>
      <point x="6.0" y="960.0" type="curve" smooth="yes"/>
      <point x="6.0" y="965.0" type="line" smooth="yes"/>
      <point x="6.0" y="1029.0"/>
      <point x="32.0" y="1050.0"/>
      <point x="176.0" y="1050.0" type="curve" smooth="yes"/>
      <point x="346.0" y="1050.0" type="line" smooth="yes"/>
      <point x="480.0" y="1050.0"/>
      <point x="492.64699454" y="1022.81937766"/>
      <point x="463.0" y="895.0" type="curve" smooth="yes"/>
      <point x="296.0" y="175.0" type="line"/>
      <point x="316.0" y="175.0" type="line" smooth="yes"/>
      <point x="460.0" y="175.0"/>
      <point x="486.0" y="144.0"/>
      <point x="486.0" y="90.0" type="curve" smooth="yes"/>
      <point x="486.0" y="85.0" type="line" smooth="yes"/>
      <point x="486.0" y="32.0"/>
      <point x="460.0" y="-1.76349139077e-14"/>
      <point x="316.0" y="0.0" type="curve" smooth="yes"/>
      <point x="141.0" y="0.0" type="line" smooth="yes"/>
      <point x="7.0" y="0.0"/>
      <point x="-7.39699120748" y="18.5304621312"/>
    </contour>
  </outline>
</glyph>
<glyph name="braceleft" format="2">
  <advance height="2048" width="388"/>
  <unicode hex="007B"/>
  <outline>
    <contour>
      <point x="76.0" y="1437.0" type="line" smooth="yes"/>
      <point x="76.0" y="1551.0"/>
      <point x="137.0" y="1593.0"/>
      <point x="281.0" y="1598.0" type="curve" smooth="yes"/>
      <point x="334.0" y="1600.0"/>
      <point x="351.0" y="1572.0"/>
      <point x="351.0" y="1538.0" type="curve" smooth="yes"/>
      <point x="351.0" y="1533.0" type="line" smooth="yes"/>
      <point x="351.0" y="1499.0"/>
      <point x="339.0" y="1483.0"/>
      <point x="305.0" y="1478.0" type="curve" smooth="yes"/>
      <point x="281.0" y="1474.0"/>
      <point x="263.0" y="1454.0"/>
      <point x="263.0" y="1367.0" type="curve" smooth="yes"/>
      <point x="263.0" y="786.0" type="line" smooth="yes"/>
      <point x="263.0" y="694.0"/>
      <point x="219.0" y="642.0"/>
      <point x="141.0" y="618.0" type="curve"/>
      <point x="219.0" y="594.0"/>
      <point x="263.0" y="542.0"/>
      <point x="263.0" y="450.0" type="curve" smooth="yes"/>
      <point x="263.0" y="-126.0" type="line" smooth="yes"/>
      <point x="263.0" y="-212.0"/>
      <point x="281.0" y="-233.0"/>
      <point x="304.0" y="-237.0" type="curve" smooth="yes"/>
      <point x="339.0" y="-243.0"/>
      <point x="351.0" y="-258.0"/>
      <point x="351.0" y="-292.0" type="curve" smooth="yes"/>
      <point x="351.0" y="-302.0" type="line" smooth="yes"/>
      <point x="351.0" y="-336.0"/>
      <point x="334.0" y="-364.0"/>
      <point x="280.0" y="-362.0" type="curve" smooth="yes"/>
      <point x="137.0" y="-357.0"/>
      <point x="76.0" y="-315.0"/>
      <point x="76.0" y="-201.0" type="curve" smooth="yes"/>
      <point x="76.0" y="450.0" type="line" smooth="yes"/>
      <point x="76.0" y="506.0"/>
      <point x="63.0" y="533.0"/>
      <point x="39.0" y="544.0" type="curve" smooth="yes"/>
      <point x="10.0" y="557.0"/>
      <point x="-12.0" y="568.0"/>
      <point x="-12.0" y="616.0" type="curve" smooth="yes"/>
      <point x="-12.0" y="620.0" type="line" smooth="yes"/>
      <point x="-12.0" y="668.0"/>
      <point x="10.0" y="680.0"/>
      <point x="38.0" y="692.0" type="curve" smooth="yes"/>
      <point x="64.0" y="703.0"/>
      <point x="76.0" y="729.0"/>
      <point x="76.0" y="786.0" type="curve" smooth="yes"/>
    </contour>
  </outline>
</glyph>
<glyph name="bar" format="2">
  <advance height="1920" width="260"/>
  <unicode hex="007C"/>
  <outline>
    <contour>
      <point x="125.0" y="1615.0" type="curve" smooth="yes"/>
      <point x="135.0" y="1615.0" type="line" smooth="yes"/>
      <point x="189.0" y="1615.0"/>
      <point x="220.0" y="1553.0"/>
      <point x="220.0" y="1495.0" type="curve" smooth="yes"/>
      <point x="220.0" y="-255.0" type="line" smooth="yes"/>
      <point x="220.0" y="-309.0"/>
      <point x="189.0" y="-375.0"/>
      <point x="135.0" y="-375.0" type="curve" smooth="yes"/>
      <point x="125.0" y="-375.0" type="line" smooth="yes"/>
      <point x="71.0" y="-375.0"/>
      <point x="40.0" y="-309.0"/>
      <point x="40.0" y="-255.0" type="curve" smooth="yes"/>
      <point x="40.0" y="1495.0" type="line" smooth="yes"/>
      <point x="40.0" y="1553.0"/>
      <point x="71.0" y="1615.0"/>
    </contour>
  </outline>
</glyph>
<glyph name="braceright" format="2">
  <advance height="2048" width="388"/>
  <unicode hex="007D"/>
  <outline>
    <contour>
      <point x="310.0" y="-199.0" type="line" smooth="yes"/>
      <point x="310.0" y="-313.0"/>
      <point x="249.0" y="-355.0"/>
      <point x="105.0" y="-360.0" type="curve" smooth="yes"/>
      <point x="52.0" y="-362.0"/>
      <point x="35.0" y="-334.0"/>
      <point x="35.0" y="-300.0" type="curve" smooth="yes"/>
      <point x="35.0" y="-295.0" type="line" smooth="yes"/>
      <point x="35.0" y="-261.0"/>
      <point x="47.0" y="-245.0"/>
      <point x="81.0" y="-240.0" type="curve" smooth="yes"/>
      <point x="105.0" y="-236.0"/>
      <point x="123.0" y="-216.0"/>
      <point x="123.0" y="-129.0" type="curve" smooth="yes"/>
      <point x="123.0" y="452.0" type="line" smooth="yes"/>
      <point x="123.0" y="544.0"/>
      <point x="167.0" y="596.0"/>
      <point x="245.0" y="620.0" type="curve"/>
      <point x="167.0" y="644.0"/>
      <point x="123.0" y="696.0"/>
      <point x="123.0" y="788.0" type="curve" smooth="yes"/>
      <point x="123.0" y="1364.0" type="line" smooth="yes"/>
      <point x="123.0" y="1450.0"/>
      <point x="105.0" y="1471.0"/>
      <point x="82.0" y="1475.0" type="curve" smooth="yes"/>
      <point x="47.0" y="1481.0"/>
      <point x="35.0" y="1496.0"/>
      <point x="35.0" y="1530.0" type="curve" smooth="yes"/>
      <point x="35.0" y="1540.0" type="line" smooth="yes"/>
      <point x="35.0" y="1574.0"/>
      <point x="52.0" y="1602.0"/>
      <point x="106.0" y="1600.0" type="curve" smooth="yes"/>
      <point x="249.0" y="1595.0"/>
      <point x="310.0" y="1553.0"/>
      <point x="310.0" y="1439.0" type="curve" smooth="yes"/>
      <point x="310.0" y="788.0" type="line" smooth="yes"/>
      <point x="310.0" y="732.0"/>
      <point x="323.0" y="705.0"/>
      <point x="347.0" y="694.0" type="curve" smooth="yes"/>
      <point x="376.0" y="681.0"/>
      <point x="398.0" y="670.0"/>
      <point x="398.0" y="622.0" type="curve" smooth="yes"/>
      <point x="398.0" y="618.0" type="line" smooth="yes"/>
      <point x="398.0" y="570.0"/>
      <point x="376.0" y="558.0"/>
      <point x="348.0" y="546.0" type="curve" smooth="yes"/>
      <point x="322.0" y="535.0"/>
      <point x="310.0" y="509.0"/>
      <point x="310.0" y="452.0" type="curve" smooth="yes"/>
    </contour>
  </outline>
</glyph>
<glyph name="asciitilde" format="2">
  <advance height="2048" width="664"/>
  <unicode hex="007E"/>
  <outline>
    <contour>
      <point x="211.0" y="562.0" type="curve" smooth="yes"/>
      <point x="190.0" y="562.0"/>
      <point x="183.0" y="552.0"/>
      <point x="180.0" y="541.0" type="curve" smooth="yes"/>
      <point x="170.0" y="503.0"/>
      <point x="138.0" y="487.0"/>
      <point x="100.0" y="487.0" type="curve" smooth="yes"/>
      <point x="90.0" y="487.0" type="line" smooth="yes"/>
      <point x="36.0" y="487.0"/>
      <point x="1.0" y="535.0"/>
      <point x="15.0" y="586.0" type="curve" smooth="yes"/>
      <point x="30.0" y="640.0"/>
      <point x="76.0" y="742.0"/>
      <point x="211.0" y="742.0" type="curve" smooth="yes"/>
      <point x="355.0" y="742.0"/>
      <point x="403.0" y="644.0"/>
      <point x="454.0" y="644.0" type="curve" smooth="yes"/>
      <point x="475.0" y="644.0"/>
      <point x="481.0" y="653.0"/>
      <point x="485.0" y="674.0" type="curve" smooth="yes"/>
      <point x="490.0" y="702.0"/>
      <point x="527.0" y="724.0"/>
      <point x="565.0" y="724.0" type="curve" smooth="yes"/>
      <point x="575.0" y="724.0" type="line" smooth="yes"/>
      <point x="629.0" y="724.0"/>
      <point x="669.0" y="676.0"/>
      <point x="655.0" y="624.0" type="curve" smooth="yes"/>
      <point x="640.0" y="570.0"/>
      <point x="589.0" y="469.0"/>
      <point x="454.0" y="469.0" type="curve" smooth="yes"/>
      <point x="310.0" y="469.0"/>
      <point x="262.0" y="562.0"/>
    </contour>
  </outline>
</glyph>
<glyph name="exclamdown" format="2">
  <advance height="1920" width="400"/>
  <unicode hex="00A1"/>
  <outline>
    <contour>
      <point x="192.0" y="1065.0" type="curve" smooth="yes"/>
      <point x="208.0" y="1065.0" type="line" smooth="yes"/>
      <point x="292.0" y="1065.0"/>
      <point x="348.0" y="1024.0"/>
      <point x="348.0" y="910.0" type="curve" smooth="yes"/>
      <point x="348.0" y="826.0" type="line" smooth="yes"/>
      <point x="348.0" y="712.0"/>
      <point x="292.0" y="671.0"/>
      <point x="208.0" y="671.0" type="curve" smooth="yes"/>
      <point x="192.0" y="671.0" type="line" smooth="yes"/>
      <point x="108.0" y="671.0"/>
      <point x="52.0" y="712.0"/>
      <point x="52.0" y="826.0" type="curve" smooth="yes"/>
      <point x="52.0" y="910.0" type="line" smooth="yes"/>
      <point x="52.0" y="1024.0"/>
      <point x="108.0" y="1065.0"/>
    </contour>
    <contour>
      <point x="370.0" y="-102.0" type="curve" smooth="yes"/>
      <point x="370.0" y="-232.0" type="line" smooth="yes"/>
      <point x="370.0" y="-339.0"/>
      <point x="312.0" y="-417.0"/>
      <point x="205.0" y="-417.0" type="curve" smooth="yes"/>
      <point x="195.0" y="-417.0" type="line" smooth="yes"/>
      <point x="88.0" y="-417.0"/>
      <point x="30.0" y="-339.0"/>
      <point x="30.0" y="-232.0" type="curve" smooth="yes"/>
      <point x="30.0" y="-102.0" type="line" smooth="yes"/>
      <point x="30.0" y="5.0"/>
      <point x="35.1728515625" y="71.5986328125"/>
      <point x="81.0" y="268.0" type="curve" smooth="yes"/>
      <point x="109.0" y="388.0" type="line" smooth="yes"/>
      <point x="134.911132812" y="499.047851562"/>
      <point x="158.0" y="563.0"/>
      <point x="195.0" y="563.0" type="curve" smooth="yes"/>
      <point x="205.0" y="563.0" type="line" smooth="yes"/>
      <point x="242.0" y="563.0"/>
      <point x="265.088867188" y="499.047851562"/>
      <point x="291.0" y="388.0" type="curve" smooth="yes"/>
      <point x="319.0" y="268.0" type="line" smooth="yes"/>
      <point x="364.827148438" y="71.5986328125"/>
      <point x="370.0" y="5.0"/>
    </contour>
  </outline>
</glyph>
<glyph name="cent" format="2">
  <advance height="1920" width="479"/>
  <unicode hex="00A2"/>
  <outline>
    <contour>
      <point x="245.0" y="1240.0" type="curve" smooth="yes"/>
      <point x="250.0" y="1240.0" type="line" smooth="yes"/>
      <point x="258.0" y="1240.0"/>
      <point x="267.0" y="1234.0"/>
      <point x="267.0" y="1216.0" type="curve" smooth="yes"/>
      <point x="267.0" y="-166.0" type="line" smooth="yes"/>
      <point x="267.0" y="-184.0"/>
      <point x="258.0" y="-190.0"/>
      <point x="250.0" y="-190.0" type="curve" smooth="yes"/>
      <point x="245.0" y="-190.0" type="line" smooth="yes"/>
      <point x="237.0" y="-190.0"/>
      <point x="227.0" y="-184.0"/>
      <point x="227.0" y="-166.0" type="curve" smooth="yes"/>
      <point x="227.0" y="1216.0" type="line" smooth="yes"/>
      <point x="227.0" y="1234.0"/>
      <point x="237.0" y="1240.0"/>
    </contour>
    <component base="c"/>
  </outline>
</glyph>
<glyph name="sterling" format="2">
  <advance height="1920" width="610"/>
  <unicode hex="00A3"/>
  <outline>
    <contour>
      <point x="4.984375" y="692.0" type="curve" smooth="yes"/>
      <point x="4.984375" y="700.0" type="line" smooth="yes"/>
      <point x="4.984375" y="754.0"/>
      <point x="31.984375" y="775.0"/>
      <point x="125.984375" y="775.0" type="curve" smooth="yes"/>
      <point x="419.984375" y="775.0" type="line" smooth="yes"/>
      <point x="513.984375" y="775.0"/>
      <point x="540.984375" y="754.0"/>
      <point x="540.984375" y="700.0" type="curve" smooth="yes"/>
      <point x="540.984375" y="692.0" type="line" smooth="yes"/>
      <point x="540.984375" y="638.0"/>
      <point x="513.984375" y="617.0"/>
      <point x="419.984375" y="617.0" type="curve" smooth="yes"/>
      <point x="125.984375" y="617.0" type="line" smooth="yes"/>
      <point x="31.984375" y="617.0"/>
      <point x="4.984375" y="638.0"/>
    </contour>
    <contour>
      <point x="37.984375" y="177.0" type="curve" smooth="yes"/>
      <point x="99.5836940802" y="277.7847446"/>
      <point x="159.984375" y="422.0"/>
      <point x="159.984375" y="657.0" type="curve" smooth="yes"/>
      <point x="159.984375" y="856.0"/>
      <point x="65.984375" y="907.0"/>
      <point x="65.984375" y="1091.0" type="curve" smooth="yes"/>
      <point x="65.984375" y="1306.0"/>
      <point x="149.984375" y="1417.0"/>
      <point x="317.984375" y="1417.0" type="curve" smooth="yes"/>
      <point x="489.984375" y="1417.0"/>
      <point x="559.607710458" y="1322.07019137"/>
      <point x="585.984375" y="1067.0" type="curve" smooth="yes"/>
      <point x="593.595987522" y="993.393442975"/>
      <point x="549.984375" y="948.0"/>
      <point x="475.984375" y="948.0" type="curve" smooth="yes"/>
      <point x="469.984375" y="948.0" type="line" smooth="yes"/>
      <point x="396.984375" y="948.0"/>
      <point x="356.040315512" y="973.00025337"/>
      <point x="354.984375" y="1067.0" type="curve" smooth="yes"/>
      <point x="353.377937334" y="1210.0049627"/>
      <point x="358.984375" y="1247.0"/>
      <point x="331.984375" y="1247.0" type="curve" smooth="yes"/>
      <point x="313.984375" y="1247.0"/>
      <point x="305.984375" y="1211.0"/>
      <point x="305.984375" y="1066.0" type="curve" smooth="yes"/>
      <point x="305.984375" y="945.0"/>
      <point x="389.984375" y="885.0"/>
      <point x="389.984375" y="672.0" type="curve" smooth="yes"/>
      <point x="389.984375" y="426.0"/>
      <point x="333.984375" y="295.0"/>
      <point x="264.984375" y="177.0" type="curve"/>
      <point x="479.984375" y="177.0" type="line" smooth="yes"/>
      <point x="563.984375" y="177.0"/>
      <point x="600.984375" y="156.0"/>
      <point x="600.984375" y="92.0" type="curve" smooth="yes"/>
      <point x="600.984375" y="85.0" type="line" smooth="yes"/>
      <point x="600.984375" y="21.0"/>
      <point x="563.984375" y="-1.02870331128e-14"/>
      <point x="479.984375" y="0.0" type="curve" smooth="yes"/>
      <point x="189.984375" y="0.0" type="line" smooth="yes"/>
      <point x="45.984375" y="0.0"/>
      <point x="20.984375" y="41.0"/>
      <point x="20.984375" y="105.0" type="curve" smooth="yes"/>
      <point x="20.984375" y="107.0" type="line" smooth="yes"/>
      <point x="20.984375" y="149.0"/>
      <point x="29.0061971656" y="162.310497364"/>
    </contour>
  </outline>
</glyph>
<glyph name="currency" format="2">
  <advance width="579"/>
  <unicode hex="00A4"/>
  <outline>
    <contour>
      <point x="526.0" y="945.0" type="curve" smooth="yes"/>
      <point x="534.0" y="937.0" type="line" smooth="yes"/>
      <point x="572.0" y="899.0"/>
      <point x="558.0" y="855.0"/>
      <point x="520.0" y="817.0" type="curve" smooth="yes"/>
      <point x="492.0" y="789.0" type="line" smooth="yes"/>
      <point x="490.0" y="787.0"/>
      <point x="486.0" y="787.0"/>
      <point x="484.0" y="789.0" type="curve" smooth="yes"/>
      <point x="370.0" y="903.0" type="line" smooth="yes"/>
      <point x="368.0" y="905.0"/>
      <point x="368.0" y="908.0"/>
      <point x="370.0" y="910.0" type="curve" smooth="yes"/>
      <point x="398.0" y="938.0" type="line" smooth="yes"/>
      <point x="436.0" y="976.0"/>
      <point x="488.0" y="983.0"/>
    </contour>
    <contour>
      <point x="94.0" y="627.0" type="curve" smooth="yes"/>
      <point x="208.0" y="513.0" type="line" smooth="yes"/>
      <point x="210.0" y="511.0"/>
      <point x="210.0" y="508.0"/>
      <point x="208.0" y="506.0" type="curve" smooth="yes"/>
      <point x="180.0" y="478.0" type="line" smooth="yes"/>
      <point x="142.0" y="440.0"/>
      <point x="98.0" y="425.0"/>
      <point x="60.0" y="463.0" type="curve" smooth="yes"/>
      <point x="52.0" y="471.0" type="line" smooth="yes"/>
      <point x="14.0" y="509.0"/>
      <point x="22.0" y="561.0"/>
      <point x="60.0" y="599.0" type="curve" smooth="yes"/>
      <point x="88.0" y="627.0" type="line" smooth="yes"/>
      <point x="90.0" y="629.0"/>
      <point x="92.0" y="629.0"/>
    </contour>
    <contour>
      <point x="48.0" y="940.0" type="curve" smooth="yes"/>
      <point x="56.0" y="949.0" type="line" smooth="yes"/>
      <point x="94.0" y="987.0"/>
      <point x="142.0" y="976.0"/>
      <point x="180.0" y="938.0" type="curve" smooth="yes"/>
      <point x="208.0" y="910.0" type="line" smooth="yes"/>
      <point x="210.0" y="908.0"/>
      <point x="210.0" y="905.0"/>
      <point x="208.0" y="903.0" type="curve" smooth="yes"/>
      <point x="94.0" y="788.0" type="line" smooth="yes"/>
      <point x="92.0" y="786.0"/>
      <point x="90.0" y="786.0"/>
      <point x="88.0" y="788.0" type="curve" smooth="yes"/>
      <point x="59.0" y="817.0" type="line" smooth="yes"/>
      <point x="21.0" y="855.0"/>
      <point x="10.0" y="902.0"/>
    </contour>
    <contour>
      <point x="370.0" y="513.0" type="curve" smooth="yes"/>
      <point x="450.0" y="592.0" type="line" smooth="yes"/>
      <point x="452.0" y="594.0"/>
      <point x="490.0" y="629.0"/>
      <point x="492.0" y="627.0" type="curve" smooth="yes"/>
      <point x="520.0" y="599.0" type="line" smooth="yes"/>
      <point x="558.0" y="561.0"/>
      <point x="568.0" y="513.0"/>
      <point x="530.0" y="475.0" type="curve" smooth="yes"/>
      <point x="522.0" y="467.0" type="line" smooth="yes"/>
      <point x="484.0" y="429.0"/>
      <point x="436.0" y="439.0"/>
      <point x="398.0" y="477.0" type="curve" smooth="yes"/>
      <point x="370.0" y="506.0" type="line" smooth="yes"/>
      <point x="368.0" y="508.0"/>
      <point x="368.0" y="511.0"/>
    </contour>
    <contour>
      <point x="46.0" y="709.0" type="curve" smooth="yes"/>
      <point x="46.0" y="843.0"/>
      <point x="157.0" y="954.0"/>
      <point x="291.0" y="954.0" type="curve" smooth="yes"/>
      <point x="425.0" y="954.0"/>
      <point x="536.0" y="843.0"/>
      <point x="536.0" y="709.0" type="curve" smooth="yes"/>
      <point x="536.0" y="575.0"/>
      <point x="425.0" y="464.0"/>
      <point x="291.0" y="464.0" type="curve" smooth="yes"/>
      <point x="157.0" y="464.0"/>
      <point x="46.0" y="575.0"/>
    </contour>
    <contour>
      <point x="226.0" y="709.0" type="curve" smooth="yes"/>
      <point x="226.0" y="665.0"/>
      <point x="247.0" y="639.0"/>
      <point x="291.0" y="639.0" type="curve" smooth="yes"/>
      <point x="335.0" y="639.0"/>
      <point x="356.0" y="665.0"/>
      <point x="356.0" y="709.0" type="curve" smooth="yes"/>
      <point x="356.0" y="753.0"/>
      <point x="335.0" y="779.0"/>
      <point x="291.0" y="779.0" type="curve" smooth="yes"/>
      <point x="247.0" y="779.0"/>
      <point x="226.0" y="753.0"/>
    </contour>
  </outline>
</glyph>
<glyph name="yen" format="2">
  <advance height="1920" width="645"/>
  <unicode hex="00A5"/>
  <outline>
    <contour>
      <point x="23.0" y="474.0" type="curve" smooth="yes"/>
      <point x="23.0" y="476.0" type="line" smooth="yes"/>
      <point x="23.0" y="494.0"/>
      <point x="40.0" y="506.0"/>
      <point x="78.0" y="506.0" type="curve" smooth="yes"/>
      <point x="563.0" y="506.0" type="line" smooth="yes"/>
      <point x="601.0" y="506.0"/>
      <point x="618.0" y="494.0"/>
      <point x="618.0" y="476.0" type="curve" smooth="yes"/>
      <point x="618.0" y="474.0" type="line" smooth="yes"/>
      <point x="618.0" y="456.0"/>
      <point x="601.0" y="444.0"/>
      <point x="563.0" y="444.0" type="curve" smooth="yes"/>
      <point x="78.0" y="444.0" type="line" smooth="yes"/>
      <point x="40.0" y="444.0"/>
      <point x="23.0" y="456.0"/>
    </contour>
    <contour>
      <point x="23.0" y="609.0" type="curve" smooth="yes"/>
      <point x="23.0" y="611.0" type="line" smooth="yes"/>
      <point x="23.0" y="629.0"/>
      <point x="40.0" y="641.0"/>
      <point x="78.0" y="641.0" type="curve" smooth="yes"/>
      <point x="563.0" y="641.0" type="line" smooth="yes"/>
      <point x="601.0" y="641.0"/>
      <point x="618.0" y="629.0"/>
      <point x="618.0" y="611.0" type="curve" smooth="yes"/>
      <point x="618.0" y="609.0" type="line" smooth="yes"/>
      <point x="618.0" y="591.0"/>
      <point x="601.0" y="579.0"/>
      <point x="563.0" y="579.0" type="curve" smooth="yes"/>
      <point x="78.0" y="579.0" type="line" smooth="yes"/>
      <point x="40.0" y="579.0"/>
      <point x="23.0" y="591.0"/>
    </contour>
    <component base="Y"/>
  </outline>
</glyph>
<glyph name="brokenbar" format="2">
  <advance height="1920" width="260"/>
  <unicode hex="00A6"/>
  <outline>
    <contour>
      <point x="125.0" y="445.0" type="curve" smooth="yes"/>
      <point x="135.0" y="445.0" type="line" smooth="yes"/>
      <point x="189.0" y="445.0"/>
      <point x="220.0" y="383.0"/>
      <point x="220.0" y="325.0" type="curve" smooth="yes"/>
      <point x="220.0" y="-255.0" type="line" smooth="yes"/>
      <point x="220.0" y="-309.0"/>
      <point x="189.0" y="-375.0"/>
      <point x="135.0" y="-375.0" type="curve" smooth="yes"/>
      <point x="125.0" y="-375.0" type="line" smooth="yes"/>
      <point x="71.0" y="-375.0"/>
      <point x="40.0" y="-309.0"/>
      <point x="40.0" y="-255.0" type="curve" smooth="yes"/>
      <point x="40.0" y="325.0" type="line" smooth="yes"/>
      <point x="40.0" y="383.0"/>
      <point x="71.0" y="445.0"/>
    </contour>
    <contour>
      <point x="125.0" y="1615.0" type="curve" smooth="yes"/>
      <point x="135.0" y="1615.0" type="line" smooth="yes"/>
      <point x="189.0" y="1615.0"/>
      <point x="220.0" y="1553.0"/>
      <point x="220.0" y="1495.0" type="curve" smooth="yes"/>
      <point x="220.0" y="915.0" type="line" smooth="yes"/>
      <point x="220.0" y="861.0"/>
      <point x="189.0" y="795.0"/>
      <point x="135.0" y="795.0" type="curve" smooth="yes"/>
      <point x="125.0" y="795.0" type="line" smooth="yes"/>
      <point x="71.0" y="795.0"/>
      <point x="40.0" y="861.0"/>
      <point x="40.0" y="915.0" type="curve" smooth="yes"/>
      <point x="40.0" y="1495.0" type="line" smooth="yes"/>
      <point x="40.0" y="1553.0"/>
      <point x="71.0" y="1615.0"/>
    </contour>
  </outline>
</glyph>
<glyph name="section" format="2">
  <advance height="1920" width="512"/>
  <unicode hex="00A7"/>
  <outline>
    <contour>
      <point x="274.0" y="873.0" type="line"/>
      <point x="236.5" y="873.0"/>
      <point x="205.0" y="809.0"/>
      <point x="205.0" y="691.0" type="curve" smooth="yes"/>
      <point x="205.0" y="554.0"/>
      <point x="214.4375" y="435.0390625"/>
      <point x="307.5" y="324.0" type="curve" smooth="yes"/>
      <point x="373.869140625" y="244.809570312"/>
      <point x="420.0" y="150.0"/>
      <point x="420.0" y="-20.0" type="curve" smooth="yes"/>
      <point x="420.0" y="-252.0"/>
      <point x="362.5" y="-377.0"/>
      <point x="224.0" y="-377.0" type="curve" smooth="yes"/>
      <point x="97.0" y="-377.0"/>
      <point x="63.9377354971" y="-274.106080727"/>
      <point x="53.5" y="-134.0" type="curve" smooth="yes"/>
      <point x="46.368084038" y="-38.2680480073"/>
      <point x="68.0" y="-10.0"/>
      <point x="111.5" y="-10.0" type="curve" smooth="yes"/>
      <point x="113.0" y="-10.0" type="line" smooth="yes"/>
      <point x="156.5" y="-10.0"/>
      <point x="177.533887158" y="-38.0991939823"/>
      <point x="180.5" y="-135.0" type="curve" smooth="yes"/>
      <point x="182.044691777" y="-185.463986439"/>
      <point x="179.5" y="-212.0"/>
      <point x="198.0" y="-212.0" type="curve" smooth="yes"/>
      <point x="212.0" y="-212.0"/>
      <point x="220.0" y="-157.0"/>
      <point x="220.0" y="-87.0" type="curve" smooth="yes"/>
      <point x="220.0" y="1.0"/>
      <point x="191.588867188" y="52.0439453125"/>
      <point x="147.5" y="115.0" type="curve" smooth="yes"/>
      <point x="69.7001953125" y="226.091796875"/>
      <point x="20.0" y="329.0"/>
      <point x="20.0" y="586.0" type="curve" smooth="yes"/>
      <point x="20.0" y="858.0"/>
      <point x="147.5" y="953.0"/>
      <point x="279.5" y="953.0" type="curve"/>
    </contour>
    <contour>
      <point x="238.0" y="167.0" type="line"/>
      <point x="275.5" y="167.0"/>
      <point x="307.0" y="231.0"/>
      <point x="307.0" y="349.0" type="curve" smooth="yes"/>
      <point x="307.0" y="486.0"/>
      <point x="297.5625" y="604.9609375"/>
      <point x="204.5" y="716.0" type="curve" smooth="yes"/>
      <point x="138.130859375" y="795.190429688"/>
      <point x="92.0" y="890.0"/>
      <point x="92.0" y="1060.0" type="curve" smooth="yes"/>
      <point x="92.0" y="1292.0"/>
      <point x="149.5" y="1417.0"/>
      <point x="288.0" y="1417.0" type="curve" smooth="yes"/>
      <point x="415.0" y="1417.0"/>
      <point x="449.062264503" y="1294.10608073"/>
      <point x="459.5" y="1174.0" type="curve" smooth="yes"/>
      <point x="467.811248066" y="1078.3632183"/>
      <point x="445.0" y="1050.0"/>
      <point x="401.5" y="1050.0" type="curve" smooth="yes"/>
      <point x="397.0" y="1050.0" type="line" smooth="yes"/>
      <point x="353.5" y="1050.0"/>
      <point x="333.43791196" y="1078.06063544"/>
      <point x="331.5" y="1175.0" type="curve" smooth="yes"/>
      <point x="330.996480405" y="1200.18735141"/>
      <point x="335.5" y="1252.0"/>
      <point x="314.0" y="1252.0" type="curve" smooth="yes"/>
      <point x="300.0" y="1252.0"/>
      <point x="292.0" y="1197.0"/>
      <point x="292.0" y="1127.0" type="curve" smooth="yes"/>
      <point x="292.0" y="1039.0"/>
      <point x="320.411132812" y="987.956054688"/>
      <point x="364.5" y="925.0" type="curve" smooth="yes"/>
      <point x="442.299804688" y="813.908203125"/>
      <point x="492.0" y="711.0"/>
      <point x="492.0" y="454.0" type="curve" smooth="yes"/>
      <point x="492.0" y="182.0"/>
      <point x="364.5" y="87.0"/>
      <point x="232.5" y="87.0" type="curve"/>
    </contour>
  </outline>
</glyph>
<glyph name="copyright" format="2">
  <advance width="844"/>
  <unicode hex="00A9"/>
  <outline>
    <contour>
      <point x="575.0" y="561.599609375" type="curve" smooth="yes"/>
      <point x="575.0" y="378.972313129"/>
      <point x="575.0" y="249.0"/>
      <point x="408.200195312" y="249.0" type="curve" smooth="yes"/>
      <point x="285.799804688" y="249.0"/>
      <point x="260.0" y="325.200195312"/>
      <point x="260.0" y="469.200195312" type="curve" smooth="yes"/>
      <point x="260.0" y="885.0" type="line" smooth="yes"/>
      <point x="260.0" y="1023.0"/>
      <point x="285.799804688" y="1110.59960938"/>
      <point x="414.200195312" y="1110.59960938" type="curve" smooth="yes"/>
      <point x="566.0" y="1110.59960938"/>
      <point x="566.0" y="974.249600181"/>
      <point x="566.0" y="839.399414062" type="curve" smooth="yes"/>
      <point x="566.0" y="795.0"/>
      <point x="556.400390625" y="768.0"/>
      <point x="512.0" y="768.0" type="curve" smooth="yes"/>
      <point x="509.599609375" y="768.0" type="line" smooth="yes"/>
      <point x="465.200195312" y="768.0"/>
      <point x="455.599609375" y="795.0"/>
      <point x="455.0" y="839.399414062" type="curve" smooth="yes"/>
      <point x="453.799804688" y="937.200195312"/>
      <point x="456.200195312" y="990.599609375"/>
      <point x="432.200195312" y="990.599609375" type="curve" smooth="yes"/>
      <point x="411.200195312" y="990.599609375"/>
      <point x="410.0" y="956.399414062"/>
      <point x="410.0" y="887.399414062" type="curve" smooth="yes"/>
      <point x="410.0" y="448.200195312" type="line" smooth="yes"/>
      <point x="410.0" y="388.200195312"/>
      <point x="412.400390625" y="369.0"/>
      <point x="432.200195312" y="369.0" type="curve" smooth="yes"/>
      <point x="454.400390625" y="369.0"/>
      <point x="458.0" y="417.0"/>
      <point x="458.0" y="561.599609375" type="curve" smooth="yes"/>
      <point x="458.0" y="612.0"/>
      <point x="470.599609375" y="633.599609375"/>
      <point x="515.0" y="633.599609375" type="curve" smooth="yes"/>
      <point x="518.0" y="633.599609375" type="line" smooth="yes"/>
      <point x="562.400390625" y="633.599609375"/>
      <point x="575.0" y="612.0"/>
    </contour>
    <contour>
      <point x="769.0" y="668.0" type="curve" smooth="yes"/>
      <point x="769.0" y="284.0"/>
      <point x="735.0" y="-28.0"/>
      <point x="421.0" y="-28.0" type="curve" smooth="yes"/>
      <point x="107.0" y="-28.0"/>
      <point x="75.0" y="284.0"/>
      <point x="75.0" y="668.0" type="curve" smooth="yes"/>
      <point x="75.0" y="1052.0"/>
      <point x="107.0" y="1366.0"/>
      <point x="421.0" y="1366.0" type="curve" smooth="yes"/>
      <point x="735.0" y="1366.0"/>
      <point x="769.0" y="1052.0"/>
    </contour>
    <contour>
      <point x="723.0" y="668.0" type="curve" smooth="yes"/>
      <point x="723.0" y="1006.0"/>
      <point x="709.0" y="1320.0"/>
      <point x="421.0" y="1320.0" type="curve" smooth="yes"/>
      <point x="133.0" y="1320.0"/>
      <point x="121.0" y="1006.0"/>
      <point x="121.0" y="668.0" type="curve" smooth="yes"/>
      <point x="121.0" y="330.0"/>
      <point x="133.0" y="18.0"/>
      <point x="421.0" y="18.0" type="curve" smooth="yes"/>
      <point x="709.0" y="18.0"/>
      <point x="723.0" y="330.0"/>
    </contour>
  </outline>
</glyph>
